/* XPM */
static char *plant_piranha4[] = {
/* columns rows colors chars-per-pixel */
"20 20 9 1 ",
"  c black",
". c #007800",
"X c #880000",
"o c #B80000",
"O c #F80000",
"+ c #00B800",
"@ c #00F800",
"# c #F8F8F8",
"$ c None",
/* pixels */
"$$$$$$$$$$$$$$$$$$$$",
"$$$$$$$$$$$$$$$$$$$$",
"$  $$$$$$   $$$$$$$$",
"  @ $$$  XXO  $$$$$$",
" +@ $$ #OXO#OX $$$$$",
" +@ $ ##OooOoo    $$",
" .+ $ OOooo   #### $",
"  +  XXOOo ######## ",
".+   XO## ######### ",
".+@  XO## #        $",
".+@  XXOO #        $",
".+   XOOo ######### ",
"  +  O##Oo ######## ",
" .+ $ ##Ooo   #### $",
" +@ $ OOXooOoX    $$",
" +@ $$ XXXO#OX $$$$$",
"  @ $$$  XXo  $$$$$$",
"$  $$$$$$   $$$$$$$$",
"$$$$$$$$$$$$$$$$$$$$",
"$$$$$$$$$$$$$$$$$$$$"
};
