/* XPM */
static char *plant_piranha3[] = {
/* columns rows colors chars-per-pixel */
"20 20 56 1 ",
"  c black",
". c #010000",
"X c #010101",
"o c #000300",
"O c gray1",
"+ c #040000",
"@ c #050000",
"# c #000400",
"$ c #060606",
"% c #070707",
"& c #000900",
"* c #000C00",
"= c #000D00",
"- c gray4",
"; c #150000",
": c #170000",
"> c #003900",
", c #003A00",
"< c #003C00",
"1 c #005200",
"2 c #005800",
"3 c #005E00",
"4 c #006300",
"5 c #006E00",
"6 c #007900",
"7 c #860000",
"8 c #B80000",
"9 c #BC0000",
"0 c #C60303",
"q c #EB0404",
"w c #F60303",
"e c #F41212",
"r c #008200",
"t c #008C00",
"y c #008E00",
"u c #009300",
"i c #009D00",
"p c #00A200",
"a c #00A400",
"s c #00A700",
"d c #00AA00",
"f c #00B100",
"g c #00C600",
"h c #00CE00",
"j c #00D800",
"k c #00DD00",
"l c #00DE00",
"z c #D8D8D8",
"x c gray89",
"c c #E7E7E7",
"v c #F3F3F3",
"b c #F6F3F3",
"n c #F4F4F4",
"m c gray96",
"M c #F8F8F8",
"N c None",
/* pixels */
"NNNNNNNNNNNN$$$$$NNN",
"NNNNNNNNN$$$$xxx$NNN",
"NNNNNNN$@88$cMMx$NNN",
"NNNNNN;0w88$xMM$-$$$",
"NNNNN+7wMw$xMM$%$xx$",
"NNNNN:77w8$MM$$$MMx$",
"NNNN$ww78$xn$O$MMvx$",
"NNNN$MMw8$xMX$Mmxx$$",
"N$$N$MMqww$zMMMx$$$N",
"$ii$$wwwMbw$xx$$77$N",
"&ayi$77wMMw8$$88w7$N",
"#6jii.77ww8ww98wM$NN",
"N$ast=.788eMMw87w$NN",
"NN$$3*$ 78wMMw77$NNN",
"NNN$jdk$ 88ww7$$NNNN",
"NNNN$pg$$o$$$$NNNNNN",
"NNNNN$j4i1$NNNNNNNNN",
"NNNNNN$$5hr$NNNNNNNN",
"NNNNNNN$<flu$NNNNNNN",
"NNNNNNNN$,>2$NNNNNNN"
};
