/* XPM */
static char *plant_piranha7[] = {
/* columns rows colors chars-per-pixel */
"20 20 56 1 ",
"  c black",
". c #010000",
"X c #010101",
"o c #000300",
"O c gray1",
"+ c #040000",
"@ c #050000",
"# c #000400",
"$ c #060606",
"% c #070707",
"& c #000900",
"* c #000C00",
"= c #000D00",
"- c gray4",
"; c #150000",
": c #170000",
"> c #003900",
", c #003A00",
"< c #003C00",
"1 c #005200",
"2 c #005800",
"3 c #005E00",
"4 c #006300",
"5 c #006E00",
"6 c #007900",
"7 c #860000",
"8 c #B80000",
"9 c #BC0000",
"0 c #C60303",
"q c #EB0404",
"w c #F60303",
"e c #F41212",
"r c #008200",
"t c #008C00",
"y c #008E00",
"u c #009300",
"i c #009D00",
"p c #00A200",
"a c #00A400",
"s c #00A700",
"d c #00AA00",
"f c #00B100",
"g c #00C600",
"h c #00CE00",
"j c #00D800",
"k c #00DD00",
"l c #00DE00",
"z c #D8D8D8",
"x c gray89",
"c c #E7E7E7",
"v c #F3F3F3",
"b c #F6F3F3",
"n c #F4F4F4",
"m c gray96",
"M c #F8F8F8",
"N c None",
/* pixels */
"NNNNNNN$2>,$NNNNNNNN",
"NNNNNNN$ulf<$NNNNNNN",
"NNNNNNNN$rh5$$NNNNNN",
"NNNNNNNNN$1i4j$NNNNN",
"NNNNNN$$$$o$$gp$NNNN",
"NNNN$$7ww88 $kdj$NNN",
"NNN$77wMMw87 $*3$$NN",
"NN$w78wMMe887.=tsa$N",
"NN$Mw89ww8ww77.iij6#",
"N$7w88$$8wMMw77$iya&",
"N$77$$xx$wbMwww$$ii$",
"N$$$xMMMz$wwqMM$N$$N",
"$$xxmM$XMx$8wMM$NNNN",
"$xvMM$O$nx$87ww$NNNN",
"$xMM$$$MM$8w77:NNNNN",
"$xx$%$MMx$wMw7+NNNNN",
"$$$-$MMx$88w0;NNNNNN",
"NNN$xMMc$88@$NNNNNNN",
"NNN$xxx$$$$NNNNNNNNN",
"NNN$$$$$NNNNNNNNNNNN"
};
