/* XPM */
static char *plant_piranha2[] = {
/* columns rows colors chars-per-pixel */
"16 20 9 1 ",
"  c black",
". c #007800",
"X c #880000",
"o c #B80000",
"O c #F80000",
"+ c #00B800",
"@ c #00F800",
"# c #F8F8F8",
"$ c None",
/* pixels */
"$$$$$$$$$$$$$$$$",
"$   #$$$$$$#   $",
" ### $$$$$$ ### ",
" ### #$$$$# ### ",
" #### $$$$ #### ",
"$ ### #$$# ### $",
"$$ ### ## ### $$",
"$ X ###  ### O $",
"$ Oo ###### O# $",
" O#Oo #### ooOX ",
" XOooo    oooXX ",
" XXooO##OooOOXX ",
"$ OOoO##OoO##O $",
"$ ##OXOOXXO##O $",
"$$  OXXXXXXO  $$",
"$$$$        $$$$",
"$              $",
" @@@++ @@ ++@@@ ",
"  ++. ++++ .++  ",
"$     ....     $"
};
