/* XPM */
static char *plant_piranha5[] = {
/* columns rows colors chars-per-pixel */
"20 20 56 1 ",
"  c black",
". c #010000",
"X c #010101",
"o c #000300",
"O c gray1",
"+ c #040000",
"@ c #050000",
"# c #000400",
"$ c #060606",
"% c #070707",
"& c #000900",
"* c #000C00",
"= c #000D00",
"- c gray4",
"; c #150000",
": c #170000",
"> c #003900",
", c #003A00",
"< c #003C00",
"1 c #005200",
"2 c #005800",
"3 c #005E00",
"4 c #006300",
"5 c #006E00",
"6 c #007900",
"7 c #860000",
"8 c #B80000",
"9 c #BC0000",
"0 c #C60303",
"q c #EB0404",
"w c #F60303",
"e c #F41212",
"r c #008200",
"t c #008C00",
"y c #008E00",
"u c #009300",
"i c #009D00",
"p c #00A200",
"a c #00A400",
"s c #00A700",
"d c #00AA00",
"f c #00B100",
"g c #00C600",
"h c #00CE00",
"j c #00D800",
"k c #00DD00",
"l c #00DE00",
"z c #D8D8D8",
"x c gray89",
"c c #E7E7E7",
"v c #F3F3F3",
"b c #F6F3F3",
"n c #F4F4F4",
"m c gray96",
"M c #F8F8F8",
"N c None",
/* pixels */
"NNNNNNNN#&$NNNNNNNNN",
"NNNNNNN$6ai$NNNNNNNN",
"NNNNNN$ajyi$NNNNNNNN",
"NNNNN$$sii$NNNNNNNNN",
"NNNN$j3ti$$$$$NNNNNN",
"NNN$pd*=.7wMMw:+NNNN",
"NN$jgk$.77wMMw77;NNN",
"N$$4$$ 77wwqw77w0$NN",
"$<5i$ 78wMMw88wMw@NN",
",fh1o888wMbw$$8w88$N",
">lr$$8we8ww$xx$$88$N",
"2u$N$wMMw8$zMnMx$$$N",
"$$NN$wMMw$xMX$MMxc$$",
"NNNN$7ww9$xM$O$MMMx$",
"NNNNN$7888$MM$$$MMx$",
"NNNNN$77w8$xmM$%$xx$",
"NNNNNN$wMw7$xMM$-$$$",
"NNNNNNN$$77$xvMx$NNN",
"NNNNNNNNN$$$$xxx$NNN",
"NNNNNNNNNNNN$$$$$NNN"
};
