/* XPM */
static char *plant_piranha1[] = {
/* columns rows colors chars-per-pixel */
"16 20 9 1 ",
"  c black",
". c #007800",
"X c #880000",
"o c #B80000",
"O c #F80000",
"+ c #00B800",
"@ c #00F800",
"# c #F8F8F8",
"$ c None",
/* pixels */
"$$$$$  $$  $$$$$",
"$$$$ ##  ## $$$$",
"$$$ ###  ### $$$",
"$$$ ###  ### $$$",
"$$$ ###  ### $$$",
"$$  ###  ###  $$",
"$ Xo ##  ## XX $",
"$ Oo ##  ## oO $",
" O#O ##  ## O#o ",
" XOoo #### ooOX ",
" XXooo    oooXX ",
"$ OOoO##OoOOXX $",
"$ ##OO##OO##OX $",
"$$ #OXOOXO##O $$",
"$$$  XXXXXO  $$$",
"$$$$$      $$$$$",
"$              $",
" @@@++ @@ ++@@@ ",
"  ++. ++++ .++  ",
"$     ....     $"
};
