/* XPM */
static char *plant_piranha6[] = {
/* columns rows colors chars-per-pixel */
"20 20 126 2 ",
"   c black",
".  c #010000",
"X  c #000100",
"o  c #010101",
"O  c #020000",
"+  c #030000",
"@  c #040000",
"#  c #050000",
"$  c #060000",
"%  c #070000",
"&  c #000400",
"*  c #000600",
"=  c #040404",
"-  c #050404",
";  c gray2",
":  c #060606",
">  c #070707",
",  c #080000",
"<  c #090000",
"1  c #0A0000",
"2  c #0B0000",
"3  c #000800",
"4  c #000900",
"5  c #000A00",
"6  c #000D00",
"7  c #000E00",
"8  c #000F00",
"9  c #090909",
"0  c gray4",
"q  c #0B0B0B",
"w  c gray5",
"e  c #0E0E0E",
"r  c gray6",
"t  c #001000",
"y  c #001500",
"u  c #111111",
"i  c gray7",
"p  c #131313",
"a  c gray8",
"s  c #151515",
"d  c #006A00",
"f  c #006E00",
"g  c #007800",
"h  c #800000",
"j  c #820000",
"k  c #830000",
"l  c #860000",
"z  c #870000",
"x  c #880000",
"c  c #890000",
"v  c #8A0000",
"b  c #8C0000",
"n  c #8E0000",
"m  c #8F0000",
"M  c #AA0000",
"N  c #B10000",
"B  c #B20000",
"V  c #B40000",
"C  c #B60000",
"Z  c #B80000",
"A  c #B90000",
"S  c #BA0000",
"D  c #BB0000",
"F  c #BC0000",
"G  c #ED0000",
"H  c #EE0000",
"J  c #E90404",
"K  c #ED0808",
"L  c #F00000",
"P  c #F10000",
"I  c #F20000",
"U  c #F50000",
"Y  c #F40404",
"T  c #F50404",
"R  c #F60606",
"E  c #F70606",
"W  c #F80000",
"Q  c #F80101",
"!  c #F80404",
"~  c #F80606",
"^  c #F20D0D",
"/  c #F80909",
"(  c #F80E0E",
")  c #008000",
"_  c #00A600",
"`  c #00A700",
"'  c #00AB00",
"]  c #00AD00",
"[  c #00AE00",
"{  c #00B400",
"}  c #00B500",
"|  c #00B600",
" . c #00B700",
".. c #00B800",
"X. c #00BB00",
"o. c #00D800",
"O. c #00E500",
"+. c #00E900",
"@. c #00EA00",
"#. c #00ED00",
"$. c #00F000",
"%. c #00F400",
"&. c #00F800",
"*. c gray88",
"=. c #E4E4E4",
"-. c gray90",
";. c gray91",
":. c #EAEAEA",
">. c gray93",
",. c #EEEEEE",
"<. c #EFEFEF",
"1. c #F2E5E5",
"2. c #F7E7E7",
"3. c #F8E7E7",
"4. c #F0EFEF",
"5. c #F8EAEA",
"6. c #F8EDED",
"7. c gray94",
"8. c gray95",
"9. c #F3F3F3",
"0. c #F4F0F0",
"q. c #F4F4F4",
"w. c gray97",
"e. c #F8F2F2",
"r. c #F8F8F8",
"t. c None",
/* pixels */
"t.t.t.        5 g g g f   & 3 4   t.t.t.",
"t.t.  7 [ ' d 8  ....._ 7 ) X.] 7   t.t.",
"t.t.t +.%.$.} ` y &.O.6 { | #.@.o.  t.t.",
"t.t.t.8 7 5 * &   X               t.t.t.",
"t.t.t.t.t.t.t.      . O + t.t.t.t.t.t.t.",
"t.t.t.t.t.  1 G l z x v j < 0 t.t.t.t.t.",
"t.t.t.t., K 4.5.I b Q Y n / 7.w t.t.t.t.",
"t.t.t.+ k ~ r.e.W ~ r.e.W R 6.1.  t.t.t.",
"t.t.t.O x n / E S ! w.0.U A U H , t.t.t.",
"t.t.  h x C S A + . o - V Z Z n z   t.t.",
"t.t.  z P Z Z # 9.w.w.r.> N D ( m . t.t.",
"t.t.  B 2.T 1 ,.r.;   q.r.= P 3.J @ t.t.",
"t.t.t.2 ^ F @ 8.r.:   8.r.: V L $ t.t.t.",
"t.t.t.  c v # <.r.9   <.r.u M j @ t.t.t.",
"t.t.t.t.% $ -.r.r.q   >.r.r.q   t.t.t.t.",
"t.t.t.t.t.  :.r.r.e   :.r.r.e t.t.t.t.t.",
"t.t.t.t.t.  ;.r.r.r   ;.r.r.r t.t.t.t.t.",
"t.t.t.t.t.  -.r.r.i   -.r.7.p t.t.t.t.t.",
"t.t.t.t.t.t.9 =.r.a   *.8.s t.t.t.t.t.t.",
"t.t.t.t.t.t.t.; = t.t.    t.t.t.t.t.t.t."
};
