/* XPM */
static char *goomba_r[] = {
/* columns rows colors chars-per-pixel */
"16 16 11 1 ",
"  c #282828",
". c #682000",
"X c #980010",
"o c #904000",
"O c #C87030",
"+ c #D86058",
"@ c #F0A050",
"# c #F8B868",
"$ c #F89088",
"% c #F8F8F8",
"& c None",
/* pixels */
"&&&&&&....&&&&&&",
"&&&&&.oooo.&&&&&",
"&&&   .OO.   &&&",
"&&&.o% .. %o.&&&",
"&&.oO%    %Oo.&&",
"&.oO@% %% %@Oo.&",
"&.o%########%o.&",
".oO%%@@@@@@%%Oo.",
".oO          Oo.",
".. oo......oo ..",
"&....@####@....&",
"&&&&.#%%%%#.&&&&",
"&&XX.#%%%##.&&&&",
"&X$$XX####.+X&&&",
"&   ++X...++X&&&",
"&&    X&&XXX&&&&"
};
