/* XPM */
static char *goomba_dead[] = {
/* columns rows colors chars-per-pixel */
"16 8 11 1 ",
"  c #282828",
". c #682000",
"X c #980010",
"o c #904000",
"O c #C87030",
"+ c #D86058",
"@ c #F0A050",
"# c #F8B868",
"$ c #F89088",
"% c #F8F8F8",
"& c None",
/* pixels */
"&&&&&&....&&&&&&",
"&&&...oOOo...&&&",
"&..%%%O##O%%%..&",
".o   %%OO%%   o.",
".oO..........Oo.",
"&..X.@%%%%@.X..&",
"&&X$+X@##@X+$X&&",
"&XXXXX....XXXXX&"
};
