/* XPM */
static char *lm_crouch_r[] = {
/* columns rows colors chars-per-pixel */
"16 14 14 1 ",
"  c black",
". c #500000",
"X c #8F581F",
"o c #B02860",
"O c #FF4070",
"+ c #FF706F",
"@ c #DFA03F",
"# c #FFD870",
"$ c #20308F",
"% c #40809F",
"& c #80D8CF",
"* c #FFD0C0",
"= c #FFF8FF",
"- c None",
/* pixels */
"------....------",
"----..OOOo..----",
"---.oOOOoOOO.---",
"--.oo..oOOo#o.--",
"--.o.==.OO@#=.--",
"--..====.oO    -",
"--$.====.       ",
"-$% ....o******X",
"-$%.ooo.& +++++X",
"-$%.oo.%%$     -",
"-$%%..%$$&$   --",
"-$$%%$$X X -----",
"--$$$XXX# # ----",
"----        ----"
};
