/* XPM */
static char *lm_crouch_l[] = {
/* columns rows colors chars-per-pixel */
"16 14 14 1 ",
"  c black",
". c #500000",
"X c #8F581F",
"o c #B02860",
"O c #FF4070",
"+ c #FF706F",
"@ c #DFA03F",
"# c #FFD870",
"$ c #20308F",
"% c #40809F",
"& c #80D8CF",
"* c #FFD0C0",
"= c #FFF8FF",
"- c None",
/* pixels */
"------....------",
"----..oOOO..----",
"---.OOOoOOOo.---",
"--.o#oOOo..oo.--",
"--.=#@OO.==.o.--",
"-    Oo.====..--",
"       .====.$--",
"X******o.... %$-",
"X+++++ &.ooo.%$-",
"-     $%%.oo.%$-",
"--   $&$$%..%%$-",
"----- X X$$%%$$-",
"---- # #XXX$$$--",
"----        ----"
};
