/* XPM */
static char *lm_djump_l[] = {
/* columns rows colors chars-per-pixel */
"16 20 14 1 ",
"  c black",
". c #500000",
"X c #8F581F",
"o c #B02860",
"O c #FF4070",
"+ c #FF706F",
"@ c #DFA03F",
"# c #FFD870",
"$ c #20308F",
"% c #40809F",
"& c #80D8CF",
"* c #FFD0C0",
"= c #FFF8FF",
"- c None",
/* pixels */
"----.....-------",
"---.O#OOO..-----",
"---.=#@ooOO.----",
"--      ooOo.---",
"-         ooo.--",
"----  +     o.--",
"----*****+  oo.-",
"----* * **  *o.-",
"--XX* * ** *X*.-",
"-X*******  *X+ -",
"-X+++++ ** *+ --",
"X=       *+X==X-",
"X==    +++X====X",
"-  =X$XXXXX====X",
"  # $&&%%OOX==X-",
"  X =&==%%%$XX -",
"  X =&==%%%$XX -",
"  X $&%%%%$$#X -",
"-  --$%%%$$-  --",
"------$$$$------"
};
