/* XPM */
static char *lm_dead_l[] = {
/* columns rows colors chars-per-pixel */
"16 24 13 1 ",
"  c black",
". c #500000",
"X c #8F581F",
"o c #B02860",
"O c #FF4070",
"+ c #FF706F",
"@ c #FFD870",
"# c #20308F",
"$ c #40809F",
"% c #80D8CF",
"& c #FFD0C0",
"* c #FFF8FF",
"= c None",
/* pixels */
"======....======",
"====..O@@O..====",
"===.OO*@@*OO.===",
"==.OOo    oOO.==",
"==.O        O.==",
"==.          .==",
"===. O OO O .===",
"==  OOOOOOOO  ==",
"=== OO++++OO ===",
"==  O+ ++ +O  ==",
"=X& ++&&&&++ &X=",
"=X&  &&&&&&  &X=",
"XX+ & ++++ & +X=",
"X*X&        &X==",
"X**X&&&..&&&XXX=",
"=XOOXX&oo&XXO**X",
"==.O#X&OO&X#  *X",
"===#%%X&&X*    =",
"===#$**XX**    =",
"==   **$$$#    =",
"= @XX ####=    =",
"=    X =====  ==",
"==     =========",
"====  =========="
};
