/* XPM */
static char *lbm_growth_l2[] = {
/* columns rows colors chars-per-pixel */
"16 24 13 1 ",
"  c black",
". c #500000",
"X c #885818",
"o c #B02860",
"O c #F84070",
"+ c #F87068",
"@ c #D8A038",
"# c #F8D870",
"$ c #203088",
"% c #408098",
"& c #F8D0C0",
"* c #F8F8F8",
"= c None",
/* pixels */
"====.....=======",
"===.OO#OO..=====",
"===.o*#@oOO.====",
"==       ooO.===",
"=          oO.==",
"=           oo.=",
"==  **+**+  oo.=",
"====* & *++  &+=",
"==X&* & *&+  &X+",
"==X&&&++&&   +X+",
"==X++++X && +++=",
"=         +++  =",
"==      &&++  ==",
"=====oXo.OOo.===",
"====oOXXOOOo.===",
"===o%X**XOoo.===",
"===$X****X$%$===",
"===$X****X%%$===",
"====$X**X%%$====",
"====$%XX%%$$====",
"=====$$$$$$=====",
"======XXXX =====",
"===== #XXX =====",
"=====      ====="
};
