/* XPM */
static char *lm_run_r[] = {
/* columns rows colors chars-per-pixel */
"16 20 14 1 ",
"  c gray16",
". c #500000",
"X c #8C5A18",
"o c #B52963",
"O c #FF4273",
"+ c #FF736B",
"@ c #FFDE00",
"# c #21318C",
"$ c #42849C",
"% c #FFFF9C",
"& c #84DECE",
"* c #FFD6C6",
"= c white",
"- c None",
/* pixels */
"-------     ----",
"-----  OOO%O.---",
"---- OOoo@%=.---",
"--- oOoo      --",
"-- ooo         -",
"-- *   + + +----",
"- *X* +* * *XX--",
"- +X*  *******X-",
"-  +* ** +++++X-",
"--  ++*       --",
"--- X++++    ---",
"---XoXXXXX#-----",
"---XooOX$&&#----",
"-- X===X==&=#  -",
"- XX==X$==&= %  ",
"- XX==X$$$&# X  ",
"- X#XX$$$$# X  -",
"- X% -####- X  -",
"--  --------  --",
"----------------"
};
