/* XPM */
static char *lm_slide_l[] = {
/* columns rows colors chars-per-pixel */
"16 20 14 1 ",
"  c black",
". c #500000",
"X c #885818",
"o c #B02860",
"O c #F84070",
"+ c #F87068",
"@ c #D8A038",
"# c #F8D870",
"$ c #203088",
"% c #408098",
"& c #80D8C8",
"* c #F8D0C0",
"= c #F8F8F8",
"- c None",
/* pixels */
"----.....-------",
"---.O#OOO..-----",
"---.=#@ooOO.----",
"--      ooOo.---",
"-         ooo.--",
"--------    o.--",
"---* * *-  *oo.-",
"-XX* * ** *X*o.-",
"X*******  *X+o.-",
"X+++++ ** *+ .--",
"-      XX.+  o.-",
"--    X==XX =o.-",
"---.Oo====X===.-",
"---$.X====X===X-",
"---$&..X=XXX=X--",
"---$&X#XX%==X---",
"---- XX  %%% ---",
"---- X=  $%XX --",
"-----   -- XX# -",
"----------     -"
};
