/* XPM */
static char *lm_ujump_r[] = {
/* columns rows colors chars-per-pixel */
"16 22 14 1 ",
"  c black",
". c #500000",
"X c #8F581F",
"o c #B02860",
"O c #FF4070",
"+ c #FF706F",
"@ c #DFA03F",
"# c #FFD870",
"$ c #20308F",
"% c #40809F",
"& c #80D8CF",
"* c #FFD0C0",
"= c #FFF8FF",
"- c None",
/* pixels */
"------------XX--",
"-----------X==X-",
"----------X====X",
"-------.....===X",
"-----..OOO#O.=X-",
"----.OOoo@#=.X.-",
"---.oOoo      --",
"--.ooo         -",
"--.*   + + +o.--",
"-.*X* +* * *XX--",
"-.+X*  *******X-",
"-. +* ** +++++X-",
"--  ++*       --",
"-XXXoX+++    ---",
"XX==XoXXXX$-----",
"X====XO%%&&$----",
"X====X%%==&=$  -",
"-X==X%%%==&= #  ",
"- XX%%%%%%&$ X  ",
"- X$$$%%%%$ X  -",
"- X# -$$$$- X  -",
"--  --------  --"
};
