/* XPM */
static char *fireball2[] = {
/* columns rows colors chars-per-pixel */
"8 8 5 1 ",
"  c #B82800",
". c #F87800",
"X c #F88800",
"o c #F8C000",
"O c None",
/* pixels */
"OOOOOOOO",
"OO O  OO",
"OOOOO  O",
"OOO  XX ",
"OO X.oX ",
"OO XooX ",
"OO XXX O",
"OOO   OO"
};
