/* XPM */
static char *fireball0[] = {
/* columns rows colors chars-per-pixel */
"12 12 31 1 ",
"  c red",
". c #FF0C00",
"X c #FF1B00",
"o c #FA1A1A",
"O c #FF2400",
"+ c #FF3000",
"@ c #FF3D00",
"# c #F62E2F",
"$ c #FF4900",
"% c #FF5500",
"& c #FF5F00",
"* c #FF6E00",
"= c #FF7100",
"- c #FF7D00",
"; c #FF8500",
": c #FF9600",
"> c #FF9C03",
", c #FFA400",
"< c #FFAB00",
"1 c #FFB300",
"2 c #FFBB03",
"3 c #FFC306",
"4 c #FFCB08",
"5 c #FFD30B",
"6 c #FFDB0E",
"7 c #FFE311",
"8 c #FFEB13",
"9 c #FFF316",
"0 c #FFFB19",
"q c #FFFBFF",
"w c None",
/* pixels */
"wwww   wwwww",
"ww O***O www",
"w oo.+;;=Oww",
" w#o+&:1<= w",
"www ;1771;  ",
"ww +>60082+ ",
"ww $40qq04$ ",
"ww $,3995,@ ",
"ww @-,55<-Xw",
"www.*=;;-% w",
"wwww.+$@X ww",
"wwwww   wwww"
};
