/* XPM */
static char *fireball1[] = {
/* columns rows colors chars-per-pixel */
"8 8 5 1 ",
"  c #B82800",
". c #F87800",
"X c #F88800",
"o c #F8C000",
"O c None",
/* pixels */
"OOO   OO",
"OO XXX O",
"O  XooX ",
"O O .oX ",
"OOO XXX ",
"O OO   O",
"OOOOOOOO",
"OOOOOOOO"
};
