/* XPM */
static char *fireball3[] = {
/* columns rows colors chars-per-pixel */
"8 8 5 1 ",
"  c #B82800",
". c #F87800",
"X c #F88800",
"o c #F8C000",
"O c None",
/* pixels */
"OOOOOOOO",
"OOOOOOOO",
"O   OO O",
" XXX OOO",
" Xo. O O",
" XooX  O",
"O XXX OO",
"OO   OOO"
};
