/* XPM */
static char *a460dc0382f64ab9dd9e971fb300bc9cqaXSb7n6LKah6IA9[] = {
/* columns rows colors chars-per-pixel */
"16 32 7 1 ",
"  c None",
". c #1C2F60",
"X c #1C5859",
"o c #288177",
"O c #5DAA6C",
"+ c #AFD07C",
"@ c #635D96",
/* pixels */
"                ",
"                ",
"                ",
"      XXXX      ",
"     X++++X     ",
"    X++++++X    ",
"   X++++++++X   ",
"   X++++++++X   ",
"  X++++++++++X  ",
"  X++++++++++X  ",
"  X+O++++OO++X  ",
"  X+++O++OO++X  ",
" XO++++++++++OX ",
" XOO++OOOO++OOX ",
" XOOOOOOOOOOOOX ",
"XOOoOOOooOOoOOOX",
"XOOOOOOooOOOOOOX",
"XoOOooOOOOooOOoX",
"XooooooooooooooX",
".oooXXooooXXooo.",
".oXoXXooXoXXoXo.",
".XooooooooooooX.",
".XXXooXXXXooXXX.",
" .XXXXXXXXXXXX. ",
" .XXXXXX..XXXX. ",
"  .X.X.X..X.X.  ",
"   ..XXXXXX..   ",
"     .XXXX.     ",
"      ....      ",
"      .@@.      ",
"      .@@.      ",
"     .@@@@.     "
};
