/* XPM */
static char *castle[] = {
/* columns rows colors chars-per-pixel */
"80 80 4 1 ",
"  c black",
". c #9C4A00",
"X c #FFCEC5",
"o c None",
/* pixels */
"ooooooooooooooooXXXXoooooooXXXXXXXXXoooooooXXXXXXXXXoooooooXXXXXoooooooooooooooo",
"oooooooooooooooo...XoooooooX.......XoooooooX.......XoooooooX....oooooooooooooooo",
"oooooooooooooooo...XoooooooX.......XoooooooX.......XoooooooX....oooooooooooooooo",
"oooooooooooooooo...XoooooooX.......XoooooooX.......XoooooooX....oooooooooooooooo",
"oooooooooooooooo...XoooooooX.......XoooooooX.......XoooooooX....oooooooooooooooo",
"oooooooooooooooo...XoooooooX.......XoooooooX.......XoooooooX....oooooooooooooooo",
"oooooooooooooooo...XoooooooX.......XoooooooX.......XoooooooX....oooooooooooooooo",
"oooooooooooooooo   XXXXXXXXX       XXXXXXXXX       XXXXXXXXX    oooooooooooooooo",
"oooooooooooooooo....... ....... ....... ....... ....... ....... oooooooooooooooo",
"oooooooooooooooo....... ....... ....... ....... ....... ....... oooooooooooooooo",
"oooooooooooooooo....... ....... ....... ....... ....... ....... oooooooooooooooo",
"oooooooooooooooo                                                oooooooooooooooo",
"oooooooooooooooo... ....... ....... ....... ....... ....... ....oooooooooooooooo",
"oooooooooooooooo... ....... ....... ....... ....... ....... ....oooooooooooooooo",
"oooooooooooooooo... ....... ....... ....... ....... ....... ....oooooooooooooooo",
"oooooooooooooooo                                                oooooooooooooooo",
"oooooooooooooooo.......         ....... .......         ....... oooooooooooooooo",
"oooooooooooooooo.......         ....... .......         ....... oooooooooooooooo",
"oooooooooooooooo.......         ....... .......         ....... oooooooooooooooo",
"oooooooooooooooo                                                oooooooooooooooo",
"oooooooooooooooo... ....        ... ....... ....        ... ....oooooooooooooooo",
"oooooooooooooooo... ....        ... ....... ....        ... ....oooooooooooooooo",
"oooooooooooooooo... ....        ... ....... ....        ... ....oooooooooooooooo",
"oooooooooooooooo                                                oooooooooooooooo",
"oooooooooooooooo.......         ....... .......         ....... oooooooooooooooo",
"oooooooooooooooo.......         ....... .......         ....... oooooooooooooooo",
"oooooooooooooooo.......         ....... .......         ....... oooooooooooooooo",
"oooooooooooooooo                                                oooooooooooooooo",
"oooooooooooooooo... ....        ... ....... ....        ... ....oooooooooooooooo",
"oooooooooooooooo... ....        ... ....... ....        ... ....oooooooooooooooo",
"oooooooooooooooo... ....        ... ....... ....        ... ....oooooooooooooooo",
"oooooooooooooooo                                                oooooooooooooooo",
"XXXXoooooooXXXXXXXXX... ...XXXXXXXXX... ...XXXXXXXXX... ...XXXXXXXXXoooooooXXXXX",
"...XoooooooX.......X... ...X.......X... ...X.......X... ...X.......XoooooooX....",
"...XoooooooX.......X... ...X.......X... ...X.......X... ...X.......XoooooooX....",
"...XoooooooX.......X       X.......X       X.......X       X.......XoooooooX....",
"...XoooooooX.......X.......X.......X.......X.......X.......X.......XoooooooX....",
"...XoooooooX.......X.......X.......X.......X.......X.......X.......XoooooooX....",
"...XoooooooX.......X.......X.......X.......X.......X.......X.......XoooooooX....",
"   XXXXXXXXX       XXXXXXXXX       XXXXXXXXX       XXXXXXXXX       XXXXXXXXX    ",
"....... ....... ....... ....... ....... ....... ....... ....... ....... ....... ",
"....... ....... ....... ....... ....... ....... ....... ....... ....... ....... ",
"....... ....... ....... ....... ....... ....... ....... ....... ....... ....... ",
"                                                                                ",
"... ....... ....... ....... ....... ....... ....... ....... ....... ....... ....",
"... ....... ....... ....... ....... ....... ....... ....... ....... ....... ....",
"... ....... ....... ....... ....... ....... ....... ....... ....... ....... ....",
"                                                                                ",
"....... ....... ....... ....... .....      .... ....... ....... ....... ....... ",
"....... ....... ....... ....... ...          .. ....... ....... ....... ....... ",
"....... ....... ....... ....... ..            . ....... ....... ....... ....... ",
"                                                                                ",
"... ....... ....... ....... .....              .... ....... ....... ....... ....",
"... ....... ....... ....... .....              .... ....... ....... ....... ....",
"... ....... ....... ....... ....                ... ....... ....... ....... ....",
"                                                                                ",
"....... ....... ....... .......                 ....... ....... ....... ....... ",
"....... ....... ....... .......                 ....... ....... ....... ....... ",
"....... ....... ....... .......                 ....... ....... ....... ....... ",
"                                                                                ",
"... ....... ....... ....... ....                ... ....... ....... ....... ....",
"... ....... ....... ....... ....                ... ....... ....... ....... ....",
"... ....... ....... ....... ....                ... ....... ....... ....... ....",
"                                                                                ",
"....... ....... ....... .......                 ....... ....... ....... ....... ",
"....... ....... ....... .......                 ....... ....... ....... ....... ",
"....... ....... ....... .......                 ....... ....... ....... ....... ",
"                                                                                ",
"... ....... ....... ....... ....                ... ....... ....... ....... ....",
"... ....... ....... ....... ....                ... ....... ....... ....... ....",
"... ....... ....... ....... ....                ... ....... ....... ....... ....",
"                                                                                ",
"....... ....... ....... .......                 ....... ....... ....... ....... ",
"....... ....... ....... .......                 ....... ....... ....... ....... ",
"....... ....... ....... .......                 ....... ....... ....... ....... ",
"                                                                                ",
"... ....... ....... ....... ....                ... ....... ....... ....... ....",
"... ....... ....... ....... ....                ... ....... ....... ....... ....",
"... ....... ....... ....... ....                ... ....... ....... ....... ....",
"                                                                                "
};
