/* XPM */
static char *result[] = {
/* columns rows colors chars-per-pixel */
"16 16 5 1 ",
"  c #1C2F60",
". c #984868",
"X c #E08379",
"o c #FFB482",
"O c None",
/* pixels */
"                ",
" Xooooooooooooo ",
" Xooooooooooooo ",
" XXXXXXXXXXXXXX ",
"  ............  ",
"O XX.XX.XXX.XX O",
"O Xo.ooo.oo.oo O",
"O oo..ooo.o.oo O",
"O Xo.o.ooo..oo O",
"O Xo.oo.ooo.oo O",
"O oo.ooo.oo.oo O",
"  ............  ",
" Xooooooooooooo ",
" Xooooooooooooo ",
" XXXXXXXXXXXXXX ",
"                "
};
