/* XPM */
static char *_b43b7f8252149a5c58d03801721ff2c4iN8Yt6U7Ei9HS5G[] = {
/* columns rows colors chars-per-pixel */
"24 24 218 2 ",
"   c None",
".  c #03235D",
"X  c #04255D",
"o  c #05275D",
"O  c #0E275E",
"+  c #0F275E",
"@  c #0F285E",
"#  c #10295E",
"$  c #11295F",
"%  c #102A5E",
"&  c #102A5F",
"*  c #112A5F",
"=  c #152B5F",
"-  c #162D5F",
";  c #122B60",
":  c #1D2F60",
">  c #1C3166",
",  c #243163",
"<  c #243263",
"1  c #223464",
"2  c #263464",
"3  c #243764",
"4  c #343A68",
"5  c #353B68",
"6  c #353C69",
"7  c #363C69",
"8  c #363D69",
"9  c #373F69",
"0  c #413B63",
"q  c #413C64",
"w  c #423C64",
"e  c #39416A",
"r  c #39426A",
"t  c #3A436A",
"y  c #454265",
"u  c #4C4266",
"i  c #4D4466",
"p  c #555068",
"a  c #70516B",
"s  c #71536B",
"d  c #72546C",
"f  c #7C566C",
"g  c #7D566C",
"h  c #7D576C",
"j  c #7F6A6F",
"k  c #903F66",
"l  c #904066",
"z  c #954567",
"x  c #964667",
"c  c #904968",
"v  c #924C69",
"b  c #924D69",
"n  c #9C4B69",
"m  c #9D4C69",
"M  c #9E4C69",
"N  c #9E4D69",
"B  c #9E4E69",
"V  c #9E4E6A",
"C  c #9E4F6A",
"Z  c #9F4F6A",
"A  c #82586D",
"S  c #835B6D",
"D  c #845A6D",
"F  c #855E6E",
"G  c #9F506A",
"H  c #A24C69",
"J  c #A04E6A",
"K  c #A44F6A",
"L  c #A2506A",
"P  c #A2526A",
"I  c #A2536B",
"U  c #A5506A",
"Y  c #A3546B",
"T  c #A4556B",
"R  c #A5566B",
"E  c #A7576C",
"W  c #A2596D",
"Q  c #A35B6E",
"!  c #A8596C",
"~  c #A9596C",
"^  c #B15B6E",
"/  c #B65F6F",
"(  c #8C6870",
")  c #8D6F71",
"_  c #8D7171",
"`  c #8F7271",
"'  c #8E7371",
"]  c #907471",
"[  c #947572",
"{  c #947672",
"}  c #967772",
"|  c #B7606F",
" . c #B6616F",
".. c #B8616F",
"X. c #AF6E71",
"o. c #B86170",
"O. c #BB6670",
"+. c #BC6570",
"@. c #BC6770",
"#. c #BD6F71",
"$. c #B17172",
"%. c #BE7072",
"&. c #BF7272",
"*. c #C26470",
"=. c #C36571",
"-. c #C36E72",
";. c #C37573",
":. c #C37673",
">. c #C57773",
",. c #C37175",
"<. c #C67576",
"1. c #C77874",
"2. c #C87A74",
"3. c #C87B74",
"4. c #C97B74",
"5. c #CA7A74",
"6. c #CC7F75",
"7. c #CD7F75",
"8. c #CB7D78",
"9. c #CC7C78",
"0. c #D27876",
"q. c #D27A77",
"w. c #D57876",
"e. c #D57976",
"r. c #D47D77",
"t. c #CD8075",
"y. c #CE8176",
"u. c #CE8276",
"i. c #CF8276",
"p. c #D48075",
"a. c #D58176",
"s. c #D08476",
"d. c #D18577",
"f. c #D08279",
"g. c #D78278",
"h. c #DD8379",
"j. c #DE8479",
"k. c #D7907B",
"l. c #E5887A",
"z. c #EB8F7C",
"x. c #EF8E7C",
"c. c #F18E7C",
"v. c #F18F7C",
"b. c #F28F7C",
"n. c #F88E7C",
"m. c #ED907C",
"M. c #ED917C",
"N. c #EE927D",
"B. c #E69A7C",
"V. c #E79A7C",
"C. c #EB9F7D",
"Z. c #F7937D",
"A. c #F9907D",
"S. c #FB937D",
"D. c #FA967E",
"F. c #FC947D",
"G. c #F39F7F",
"H. c #F59D7E",
"J. c #F49F7F",
"K. c #E1A07E",
"L. c #E2A27E",
"P. c #E4A47F",
"I. c #E6A47F",
"U. c #E5A67F",
"Y. c #E6A77F",
"T. c #EEA17E",
"R. c #EFA17E",
"E. c #F4A17F",
"W. c #F7A17F",
"Q. c #F0A47E",
"!. c #F1A67F",
"~. c #F2A67F",
"^. c #F2A77F",
"/. c #F3A77F",
"(. c #F3A87F",
"). c #F3A97F",
"_. c #F4A87F",
"`. c #F4A97F",
"'. c #F5AB7F",
"]. c #E9AA80",
"[. c #FFA380",
"{. c #FFA480",
"}. c #FFA781",
"|. c #F1AB80",
" X c #F7AB80",
".X c #F7AC80",
"XX c #FDAB80",
"oX c #FFAB81",
"OX c #FEAF81",
"+X c #FFAC82",
"@X c #FCB081",
"#X c #FFB082",
"$X c #FFB182",
"%X c #FFB282",
"&X c #FEB382",
"*X c #FFB382",
"=X c #FFB682",
"-X c #FFB683",
";X c #FFB783",
":X c #FFB883",
">X c #FFB983",
",X c #FFBA83",
"<X c #FFBC83",
"1X c #FFB984",
"2X c #FFBB84",
"3X c #FFBC84",
"4X c #FFBD85",
"5X c #FFBE84",
"6X c #FFBF85",
"7X c #FFC085",
"8X c #FFC185",
"9X c #FFC285",
"0X c #FFC386",
"qX c #FFC486",
"wX c #FFC686",
"eX c #FFC787",
"rX c #FFC887",
"tX c #FFCA87",
/* pixels */
": - # @ O O + O O + O O + O + + O O O O + O = : ",
"- u F ) ' ' ' ' ' ) ) ' ' ) ) ' ' ' ) ' ] [ p - ",
"# A S.;X3X3X3X3X2X3X3X2X3X3X2X3X3X3X<X<X2XqX{ @ ",
"# g b.*X<X:X:X:X;X;X2X;X:X:X:X:X:X:X:X;X:X3X] @ ",
"# F S.H.G.G.J.J.J.J.J.J.J.J.J.J.E.J.J.G.[.{.( & ",
"; d r.e.w.w.e.e.w.w.e.e.e.w.w.w.e.e.w.w.0.q.d ; ",
"> 1 q c H n J N n n N J N n n n H J M J c 7 1 > ",
"  o < Q =.^ x L ..o.N k  .+./ / J x ^ *.R < o   ",
"    9 9.Z.j.N @.N.z.-.R 0.l.z.N.O.n h.[.9.4     ",
"    4 <.{.T.G 1.2X*X@XV.J 5.3X;X;.N Q.2X].9     ",
"    9 k.2X'.I R d.;X9X*Xu.&.i.3X7.N |.eX].4     ",
"    e L.9X^.I k ~ V.*X;X9X6.I T.;.J |.9X].4     ",
"    9 8.+X).G :.T.L u.3X;X*XV.! l T |.9XP.t     ",
"    4 -.{.).N t.:Xu.#.u.*X9X*Xu.T L ^.9XP.e     ",
"    9 8.+X).G >.3XqXu.L V.;X:X9X1.N ).qXP.t     ",
"    9 ].rX.XG 1.9X<X:XC.! u.9X9X6.N .XtX].t     ",
"  o 2 $.a.&.z ~ 3.:.t.:.l T 3.3.! x &.r.X.1 .   ",
"> 1 q v U G T L N G N G Q L N G I I L J b y 3 > ",
"; a g.T./.^.|.|.!.!.^.^.^.^.^.!.).).^.^.).|.j # ",
"& A S.;X9X3X2X2X3X<X<X<X<X3X3X3X<X<X3X9X9XqX} O ",
"# h b.'.*X+X+X+X+X*X+X*X'.*X'.+X'.+X+X*X+X;X) O ",
"# A n.Z.z.b.x.m.z.b.x.x.b.x.Z.x.Z.x.x.z.Z.Z.F @ ",
"; i S h g g h h g g g g h h h h h h g f g A u - ",
"1 - @ ; # # # # # ; # ; # # # # # # ; # # # - : "
};
