/* XPM */
static char *end_bar[] = {
/* columns rows colors chars-per-pixel */
"8 152 4 1 ",
"  c black",
". c #109400",
"X c #8CD600",
"o c None",
/* pixels */
"oo    oo",
"o X... o",
" X..... ",
" X..... ",
" ...... ",
" ...... ",
"o .... o",
"oo    oo",
"oooXXooo",
"oooXXooo",
"oooXXooo",
"oooXXooo",
"oooXXooo",
"oooXXooo",
"oooXXooo",
"oooXXooo",
"oooXXooo",
"oooXXooo",
"oooXXooo",
"oooXXooo",
"oooXXooo",
"oooXXooo",
"oooXXooo",
"oooXXooo",
"oooXXooo",
"oooXXooo",
"oooXXooo",
"oooXXooo",
"oooXXooo",
"oooXXooo",
"oooXXooo",
"oooXXooo",
"oooXXooo",
"oooXXooo",
"oooXXooo",
"oooXXooo",
"oooXXooo",
"oooXXooo",
"oooXXooo",
"oooXXooo",
"oooXXooo",
"oooXXooo",
"oooXXooo",
"oooXXooo",
"oooXXooo",
"oooXXooo",
"oooXXooo",
"oooXXooo",
"oooXXooo",
"oooXXooo",
"oooXXooo",
"oooXXooo",
"oooXXooo",
"oooXXooo",
"oooXXooo",
"oooXXooo",
"oooXXooo",
"oooXXooo",
"oooXXooo",
"oooXXooo",
"oooXXooo",
"oooXXooo",
"oooXXooo",
"oooXXooo",
"oooXXooo",
"oooXXooo",
"oooXXooo",
"oooXXooo",
"oooXXooo",
"oooXXooo",
"oooXXooo",
"oooXXooo",
"oooXXooo",
"oooXXooo",
"oooXXooo",
"oooXXooo",
"oooXXooo",
"oooXXooo",
"oooXXooo",
"oooXXooo",
"oooXXooo",
"oooXXooo",
"oooXXooo",
"oooXXooo",
"oooXXooo",
"oooXXooo",
"oooXXooo",
"oooXXooo",
"oooXXooo",
"oooXXooo",
"oooXXooo",
"oooXXooo",
"oooXXooo",
"oooXXooo",
"oooXXooo",
"oooXXooo",
"oooXXooo",
"oooXXooo",
"oooXXooo",
"oooXXooo",
"oooXXooo",
"oooXXooo",
"oooXXooo",
"oooXXooo",
"oooXXooo",
"oooXXooo",
"oooXXooo",
"oooXXooo",
"oooXXooo",
"oooXXooo",
"oooXXooo",
"oooXXooo",
"oooXXooo",
"oooXXooo",
"oooXXooo",
"oooXXooo",
"oooXXooo",
"oooXXooo",
"oooXXooo",
"oooXXooo",
"oooXXooo",
"oooXXooo",
"oooXXooo",
"oooXXooo",
"oooXXooo",
"oooXXooo",
"oooXXooo",
"oooXXooo",
"oooXXooo",
"oooXXooo",
"oooXXooo",
"oooXXooo",
"oooXXooo",
"oooXXooo",
"oooXXooo",
"oooXXooo",
"oooXXooo",
"oooXXooo",
"oooXXooo",
"oooXXooo",
"oooXXooo",
"oooXXooo",
"oooXXooo",
"oooXXooo",
"oooXXooo",
"oooXXooo",
"oooXXooo",
"oooXXooo",
"oooXXooo",
"oooXXooo",
"oooXXooo",
"oooXXooo"
};
