/* XPM */
static char *flag[] = {
/* columns rows colors chars-per-pixel */
"32 19 66 1 ",
"  c #120C00",
". c #C85858",
"X c #C85875",
"o c #C96A74",
"O c #77C558",
"+ c #C88058",
"@ c #C89258",
"# c #BBC558",
"$ c #7658C5",
"% c #C97C97",
"& c #C972AF",
"* c #C67CBD",
"= c #9A7CC4",
"- c #A172C5",
"; c #B97CC4",
": c #C158C5",
"> c #72C594",
", c #73C594",
"< c #75C595",
"1 c #76C595",
"2 c #77C596",
"3 c #79C497",
"4 c #78C597",
"5 c #7BC598",
"6 c #7CC499",
"7 c #5AC5AD",
"8 c #5BC5AD",
"9 c #5CC5AD",
"0 c #5DC5AE",
"q c #5EC5AE",
"w c #5A85C5",
"e c #5ABEC5",
"r c #CA8D8D",
"t c #CAA18D",
"y c #CAAB8D",
"u c #A2C48D",
"i c #8FC4B7",
"p c #90C4B7",
"a c #91C4B8",
"s c #92C4B8",
"d c #93C4B8",
"f c #94C4B8",
"g c #95C4B8",
"h c #96C4B9",
"j c #97C4B9",
"k c #98C4B9",
"l c #ABC4B1",
"z c #ACC4B2",
"x c #ADC4B3",
"c c #AEC4B3",
"v c #AFC4B4",
"b c #B0C3B4",
"n c #B1C3B5",
"m c #B2C3B5",
"M c #B1C3B6",
"N c #B3C3B6",
"B c #B4C3B6",
"V c #B5C3B7",
"C c #C4C48D",
"Z c #A18DC4",
"A c #93A4C4",
"S c #91C0C3",
"D c #92C0C4",
"F c #93C0C4",
"G c #CCC3C3",
"H c None",
/* pixels */
"   HHHHHHHHHHHHHHHHHHHHHHHHHHHHH",
" r   HHHHHHHHHHHHHHHHHHHHHHHHHHH",
" .oX   HHHHHHHHHHHHHHHHHHHHHHHHH",
" oX%&&   HHHHHHHHHHHHHHHHHHHHHHH",
" X%&&*:;   HHHHHHHHHHHHHHHHHHHHH",
" %&&*:;--=   HHHHHHHHHHHHHHHHHHH",
" &&*:;--=$ZA   HHHHHHHHHHHHHHHHH",
" &*:;--=$ZAwAF   HHHHHHHHHHHHHHH",
" *:;--=$ZAwAFeSi   HHHHHHHHHHHHH",
" :;--=$ZAwAFeSpqkl   HHHHHHHHHHH",
" ;--=$ZAwAFeDa0jz>6V   HHHHHHHHH",
" --=$ZAwAFeDs9hx,5BuOu   HHHHHHH",
" -=$ZAwAFeFd8gc<3NuOuGC#   HHHHH",
" =$ZAwAFeFf7fv14muOuGC#CGy   HHH",
" $ZAwAFeFg8db22buOuGC#CGy@yG   H",
" ZAwAFeFh9sn41vuOuGC#CGy@yGt+t  ",
" AwAFeFj0aM3<cuOuGC#CGy@yGt+tr. ",
" wAFeFkqpM5,xuOuGC#CGy@yGt+tr.r ",
"                                "
};
