/* XPM */
static char *result[] = {
/* columns rows colors chars-per-pixel */
"16 16 10 1 ",
"  c #1C2F60",
". c #1C5859",
"X c #288177",
"o c #5DAA6C",
"O c #E08379",
"+ c #635D96",
"@ c #FFB482",
"# c #C4C7EE",
"$ c gray99",
"% c None",
/* pixels */
"%%%%%%%%%%%%%%%%",
"%%%%%%%%%%%%%%%%",
"%%%%++%%%%++%%%%",
"%%%+$$+%%+$$+%%%",
"%%+$$#$++$#$$+%%",
"%%+$##+@@+##$+%%",
"%%% $+@@@@+$ %%%",
"%%%% OO@@@@ %%%%",
"%%%% O@O@@O %%%%",
"%%% $ O@OO $ %%%",
"%% $## OO ##$ %%",
"%% ####  #### %%",
"%%% #$ .X $# %%%",
"%%%%  %.o%  %%%%",
"%%%%%%%.o%%%%%%%",
"%%%%%%%.X%%%%%%%"
};
