/* XPM */
static char *_64cbb494f454c438bb3fd9367261f181HSwPLdGzEOmkFp4[] = {
/* columns rows colors chars-per-pixel */
"16 32 107 2 ",
"   c None",
".  c #1D3060",
"X  c #2A3561",
"o  c #2B3562",
"O  c #2C3562",
"+  c #2B3666",
"@  c #2D3963",
"#  c #2E3963",
"$  c #2F3A63",
"%  c #2E3867",
"&  c #2F3867",
"*  c #2C3A67",
"=  c #333864",
"-  c #343864",
";  c #353B64",
":  c #303B68",
">  c #9C4B69",
",  c #9A4E6A",
"<  c #9A4F6A",
"1  c #9E4C69",
"2  c #9F576B",
"3  c #A0506A",
"4  c #A0516A",
"5  c #A2506A",
"6  c #A3506B",
"7  c #A3516B",
"8  c #A1526A",
"9  c #A4506A",
"0  c #A5566B",
"q  c #A0576C",
"w  c #A7566C",
"e  c #A7586B",
"r  c #A7586C",
"t  c #A8596C",
"y  c #A9596C",
"u  c #A85A6C",
"i  c #AB5C6D",
"p  c #AC5C6D",
"a  c #B2626F",
"s  c #B5666F",
"d  c #B5676F",
"f  c #C17675",
"g  c #C47775",
"h  c #CF7575",
"j  c #C37976",
"k  c #C57A76",
"l  c #CC7977",
"z  c #CE7C77",
"x  c #D57C76",
"c  c #D67D77",
"v  c #D87D77",
"b  c #D97D77",
"n  c #D28078",
"m  c #D48078",
"M  c #D48178",
"N  c #D68178",
"B  c #D6867A",
"V  c #D7877A",
"C  c #DD8278",
"Z  c #DD8378",
"A  c #E59A7C",
"S  c #E59B7C",
"D  c #E09F7D",
"F  c #E69E7D",
"G  c #D9A17D",
"H  c #E1A27E",
"J  c #E5A07D",
"K  c #E6A27D",
"L  c #E5A17E",
"P  c #E3A77F",
"I  c #E7A67F",
"U  c #E8A07D",
"Y  c #E8A37E",
"T  c #ECA37E",
"R  c #E8A47E",
"E  c #E3A87F",
"W  c #E2A97F",
"Q  c #E3AA7F",
"!  c #E3AB7F",
"~  c #F0A57F",
"^  c #F1A67F",
"/  c #F1A77F",
"(  c #F5A67F",
")  c #F1A87F",
"_  c #F6A87F",
"`  c #E9A980",
"'  c #EBAC81",
"]  c #EBAD81",
"[  c #F3A980",
"{  c #F7A980",
"}  c #F4AA80",
"|  c #F1AC80",
" . c #F4AC80",
".. c #F5AC80",
"X. c #F5AD80",
"o. c #F6AD80",
"O. c #F5AE81",
"+. c #F6AE80",
"@. c #FCAF81",
"#. c #FEB081",
"$. c #FCB282",
"%. c #FCB382",
"&. c #FDB382",
"*. c #FEB382",
"=. c #FFB482",
"-. c #FFB783",
";. c #B5FBF9",
/* pixels */
";.;.;.;.;.;.;.;.;.;.;.;.;.;.;.;.",
";.              ;.;.;.;.;.;.;.;.",
";.                    ;.;.;.;.;.",
";.                      ;.;.;.;.",
";.      ;.;.      ;.;.;.    ;.;.",
";.    ;.;.;.      ;.;.      ;.;.",
";.    ;.;.;.      ;.;.      ;.;.",
";.;.                        ;.  ",
";.o $ $ $ O & @ $ = $ $ $ $ ;.. ",
";.j P Q Q Q Q Q G ! G Q Q ! ;.@ ",
";.N @.%.$.$.$.$.%.%.-.&.$.&.;.;.",
";.g C C C C C C C Z Z Z C Z ;.;.",
";.= < 9 1 5 5 > 5 9 5 1 5 < ;.;.",
";.+ l b 5 c c w h C c 5 b z ;.;.",
";.& V ( r F &.[ a U [ r _ ` ;.;.",
";.: I +.5 i ) &.R d A r O.] ;.;.",
";.& V { y A d I -./ y 2 +.] ;.;.",
";.& V { y | U d / &.L r +.] ;.;.",
";.& G T 0 L [ A p L L e T H ;.;.",
";.= 2 y 5 e y y 5 e r 5 y 2 ; ;.",
";.k [ +.+.+.} +._ +.+.+._ O.G ;.",
";.N @.%.&.&.%.%.&.&.&.&.&.&.Q ;.",
";.d N c n n n n n n n n n M j ;.",
";.o o o O O O O O O O O o o o ;.",
";.                          ;.;.",
";.                          ;.;.",
";.                          ;.;.",
";.                          ;.;.",
";.                          ;.;.",
";.                          ;.;.",
";.                          ;.;.",
";.;.;.;.;.;.;.;.;.;.;.;.;.;.;.;."
};
