/* XPM */
static char *breakable_block1[] = {
/* columns rows colors chars-per-pixel */
"8 8 3 1 ",
"  c black",
". c #9C4A00",
"X c None",
/* pixels */
"XXX. .XX",
"XX. ...X",
"X. . . .",
". ... ..",
" ... ...",
"... ...X",
"X. . .XX",
"XX...XXX"
};
