/* XPM */
static char *breakable_block3[] = {
/* columns rows colors chars-per-pixel */
"8 8 3 1 ",
"  c black",
". c #9C4A00",
"X c None",
/* pixels */
"XX. .XXX",
"X... .XX",
". . . .X",
".. ... .",
"... ... ",
"X... ...",
"XX. . .X",
"XXX...XX"
};
