/* XPM */
static char *breakable_block[] = {
/* columns rows colors chars-per-pixel */
"16 16 2 1 ",
"  c black",
". c #9C4A00",
/* pixels */
"....... ....... ",
"....... ....... ",
"....... ....... ",
"                ",
"... ....... ....",
"... ....... ....",
"... ....... ....",
"                ",
"....... ....... ",
"....... ....... ",
"....... ....... ",
"                ",
"... ....... ....",
"... ....... ....",
"... ....... ....",
"                "
};
