/* XPM */
static char *result[] = {
/* columns rows colors chars-per-pixel */
"16 16 6 1 ",
"  c #1C5859",
". c #288177",
"X c #5DAA6C",
"o c #AFD07C",
"O c #FFE3AE",
"+ c None",
/* pixels */
"++++++++++++++++",
"++++++++++++++++",
"++++++++++++++++",
"++++++++++++++++",
"++++++++++++++++",
"++++++++++++++++",
"++++++++++++++++",
"++++++++++++++++",
"++++++++++++++  ",
"++++++++++++  OO",
"++++++++++  OOoo",
"++++++++  OOoooo",
"++++++  OOoooooX",
"++++  OOooooooXX",
"++  OOoooXXXXXXX",
"  OOooooXX..XXX."
};
