/* XPM */
static char *dGlsZV9EMUJS[] = {
/* columns rows colors chars-per-pixel */
"16 16 9 1 ",
"  c #1C5859",
". c #B2696F",
"X c #288177",
"o c #5DAA6C",
"O c #E08379",
"+ c #AFD07C",
"@ c #FFB482",
"# c #FFE3AE",
"$ c None",
/* pixels */
"$$$$$$$$$$$$$$$ ",
"$$$$$$$$$$$$$$ #",
"$$$$$$$$$$$$$ #+",
"$$$$$$$$$$$$ #+o",
"$$$$$$$$$$$ #+oo",
"$$$$$$$$$$ #+ooo",
"$$$$$$$$$ #++ooX",
"$$$$$$$$ #++ooX@",
"$$$$$$$ #+++oX@@",
"$$$$$$ #+++oX@@@",
"$$$$$ #+++ooX@@@",
"$$$$ #+ooooX@OOO",
"$$$ #+oooooXOOOO",
"$$ #+oooooXOOO.O",
"$ #++ooXXXOOO...",
" #++ooXOOOOOOO.O"
};
