/* XPM */
static char *result[] = {
/* columns rows colors chars-per-pixel */
"16 16 6 1 ",
"  c #1C2F60",
". c #984868",
"X c #B2696F",
"o c #E08379",
"O c #FFB482",
"+ c None",
/* pixels */
"ooooooooooooooo ",
"oooooOOOoooooOO ",
"OoooOOOOOoooOOO ",
"OOOOOOOOOOOOOOO ",
"OOOOOOOOOOOOOOO ",
"OOOOOOoOOOOOOOo ",
"OOOOOoooOOOOOoo ",
"OOoOOOoOOOoOOOo ",
"OoooOOOOOoooOOO ",
"OOoOOOOOOOoOOOO ",
"OOOOOoooOOOOOoo ",
"oOOOoXXXoOOOoXX ",
"XoooXXXXXoooXXX ",
"XXXXX...XXXXX.. ",
".............. +",
"              ++"
};
