/* XPM */
static char *result[] = {
/* columns rows colors chars-per-pixel */
"16 16 4 1 ",
"  c #1C2F60",
". c #B2696F",
"X c #E08379",
"o c #FFB482",
/* pixels */
"XXXXXXXXXXXXXXX ",
"XXXXXoooXXXXXoo ",
"oXXXoooooXXXooo ",
"ooooooooooooooo ",
"ooooooooooooooo ",
"ooooooXoooooooX ",
"oooooXXXoooooXX ",
"ooXoooXoooXoooX ",
"oXXXoooooXXXooo ",
"ooXoooooooXoooo ",
"ooooooooooooooo ",
"oooooXXXoooooXX ",
"XoooXXXXXoooXXX ",
"XXXXXX.XXXXXXX. ",
"XXXXX...XXXXX.. ",
"XXXXXX.XXXXXXX. "
};
