/* XPM */
static char *result[] = {
/* columns rows colors chars-per-pixel */
"16 16 4 1 ",
"  c #1C2F60",
". c #B2696F",
"X c #E08379",
"o c #FFB482",
/* pixels */
" XXXXXXXXXXXXXX ",
" XXXXoooXXXXXoo ",
" XXXoooooXXXooo ",
" oooooooooooooo ",
" oooooooooooooo ",
" oooooXoooooooX ",
" ooooXXXoooooXX ",
" oXoooXoooXoooX ",
" XXXoooooXXXooo ",
" oXoooooooXoooo ",
" oooooooooooooo ",
" ooooXXXoooooXX ",
" oooXXXXXoooXXX ",
" XXXXX.XXXXXXX. ",
" XXXX...XXXXX.. ",
" XXXXX.XXXXXXX. "
};
