/* XPM */
static char *dGlsZV9M[] = {
/* columns rows colors chars-per-pixel */
"16 16 11 1 ",
"  c #1C2F60",
". c #1C5859",
"X c #984868",
"o c #B2696F",
"O c #288177",
"+ c #5DAA6C",
"@ c #E08379",
"# c #AFD07C",
"$ c #FFB482",
"% c #FFE3AE",
"& c None",
/* pixels */
"..............&&",
"%%%%%%%%%%%%%%.&",
"###############.",
"#####+++#####++.",
"+###+++++###+++.",
"+++++++++++++++.",
"+++++OOO+++++OO ",
"O+++O@@@O+++O@@ ",
"@OOO@$$$@OOO@$$ ",
"$@@@$$$$$@@@$$$ ",
"$$$$$$$$$$$$$$$ ",
"@$$$@ooo@$$$@oo ",
"o@@@ooooo@@@ooo ",
"oooooXXXoooooXX ",
"XXXXXXXXXXXXXX &",
"              &&"
};
