/* XPM */
static char *result[] = {
/* columns rows colors chars-per-pixel */
"16 16 9 1 ",
"  c #1C5859",
". c #B2696F",
"X c #288177",
"o c #5DAA6C",
"O c #E08379",
"+ c #AFD07C",
"@ c #FFB482",
"# c #FFE3AE",
"$ c None",
/* pixels */
" $$$$$$$$$$$$$$$",
"# $$$$$$$$$$$$$$",
"+# $$$$$$$$$$$$$",
"++# $$$$$$$$$$$$",
"o++# $$$$$$$$$$$",
"o+++# $$$$$$$$$$",
"oo+++# $$$$$$$$$",
"Xoo+++# $$$$$$$$",
"@Xoooo+# $$$$$$$",
"@Xooooo+# $$$$$$",
"@@Xooooo+# $$$$$",
"@@@XXXoo++# $$$$",
"O@@@OOXoo++# $$$",
"OOOOOO.Xo+++# $$",
"OOOOO...Xo+++# $",
"OOOOOO.OXoo+++# "
};
