/* XPM */
static char *result[] = {
/* columns rows colors chars-per-pixel */
"16 16 7 1 ",
"  c #B2696F",
". c #288177",
"X c #5DAA6C",
"o c #E08379",
"O c #AFD07C",
"+ c #FFB482",
"@ c #FFE3AE",
/* pixels */
"@@OOOOOXX.  ... ",
"OOOOOOXX. oo oo+",
"OXXXXXXX.ooo++++",
"XX..XXX.o+++++++",
"X.oo...o++++++++",
".o++o  +++++++o+",
".++++ooo+++++ooo",
"++o+++o+++o+++o+",
"+ooo+++++ooo++++",
"++o+++++++o+++++",
"++++++++++++++++",
"+++++ooo+++++ooo",
"o+++ooooo+++oooo",
"oooooo ooooooo o",
"ooooo   ooooo   ",
"oooooo ooooooo o"
};
