/* XPM */
static char *fm_bar_l[] = {
/* columns rows colors chars-per-pixel */
"16 28 16 1 ",
"  c gray16",
". c #420000",
"X c #500000",
"o c gray29",
"O c #BD0000",
"+ c red",
"@ c #8C5A18",
"# c #8F581F",
"$ c #FF7318",
"% c #FFD870",
"& c #DEDEAD",
"* c #FFD0C0",
"= c #FFD6C6",
"- c #FFF8FF",
"; c white",
": c None",
/* pixels */
"::::oooooo::::::",
":::o%-;;&&o:::::",
":    %&;;;&o::::",
"       &;;;&o:::",
"::      &;;;&o::",
"::::--   &;;;&o:",
":::: -$   **;&o:",
"#*** -$  =#$;;&o",
"#*****   =#$o&&o",
"#$$$ ** *=$$ o&o",
"      **$     o:",
":    *$$$     ::",
":#@#*$$      X::",
"#---#o.ooo..&X::",
"#---#oo;;&oOO.::",
"#--#;;;;;&oO+O.:",
":##;;;;;&&oO++.:",
"::o&;;;&&oO+++O.",
":::o&&&ooO+.....",
"::: oooO+++.++O.",
"::: .++++++.OO..",
":::.++++OOOO...:",
":::.++OOOOOO..::",
":::.+OOOO...::::",
"::  OOOO.:::::::",
": %@... ::::::::",
":   ### ::::::::",
":::     ::::::::"
};
