/* XPM */
static char *fm_crouch_l[] = {
/* columns rows colors chars-per-pixel */
"16 15 12 1 ",
"  c gray16",
". c #420000",
"X c gray29",
"o c #BD0000",
"O c red",
"+ c #8C5A18",
"@ c #FF7318",
"# c #FFFF9C",
"$ c #DEDEAD",
"% c #FFD6C6",
"& c white",
"* c None",
/* pixels */
"*****XXXXX******",
"***XX&&&&&XX****",
"**  &#&X&&&&X***",
"      $&   X&X**",
"        &&& XX**",
"+%%%   &&&&& X.*",
"+%%%%@ &&&&&  .*",
"*+@@@@XX&&&X OO.",
"      @XXXX$XoO.",
"*    @.X&$$$Xoo.",
"**.O..ooX$$Xooo.",
"***.O.OooXXoooo.",
"**** + +++.oooo.",
"*** # #++++.oo.*",
"***         ..**"
};
