/* XPM */
static char *fm_idle_l[] = {
/* columns rows colors chars-per-pixel */
"16 28 13 1 ",
"  c gray16",
". c #420000",
"X c gray29",
"o c #BD0000",
"O c red",
"+ c #8C5A18",
"@ c #FF7318",
"# c #FFDE00",
"$ c #FFFF9C",
"% c #DEDEAD",
"& c #FFD6C6",
"* c white",
"= c None",
/* pixels */
"===XXXXX========",
"==X**$**XX======",
"==X%*$#%**X=====",
"=       %%*X====",
"          %*X===",
"           %%X==",
"=  **@**@  %%X==",
"===* & *@@  &@==",
"=+&* & *&@  &+@=",
"=+&&&@@&&   @+@=",
"=+@@@@+ && @@@==",
"         @@@  ==",
"=      &&@@  ===",
"==+@@@@@@@+ ====",
"===+++XX%%X=====",
"==+***+%X**X====",
"=+*****+***%X===",
"=+*****+**%%X===",
"==+***+%*%%X.===",
"==*+++XX%%X..===",
"==.oOOOXXX.o.===",
"==.oOOOOOooo.===",
"===.o.OOooo.====",
"===.o.ooooo.====",
"====.......=====",
"=== + +++++=====",
"== $ $++++ =====",
"==         ====="
};
