/* XPM */
static char *fm_run_l2[] = {
/* columns rows colors chars-per-pixel */
"16 28 13 1 ",
"  c gray16",
". c #420000",
"X c gray29",
"o c #BD0000",
"O c red",
"+ c #8C5A18",
"@ c #FF7318",
"# c #FFDE00",
"$ c #FFFF9C",
"% c #DEDEAD",
"& c #FFD6C6",
"* c white",
"= c None",
/* pixels */
"================",
"====     =======",
"===X**$**  =====",
"===X%*$#%** ====",
"==       %%* ===",
"=          %* ==",
"=           %% =",
"==  **@**@  %% =",
"====* & *@@  &@=",
"==+&* & *&@  &+@",
"==+&&&@@&%   @+@",
"==+@@@@+ && @@@=",
"=         @@@  =",
"==      &&@@  ==",
"=++++@@@@@@+ XX=",
"+*+*+++XX%%%%%%X",
"+**+*.**..****%X",
"+**+o%%oo%%+++%X",
"=++OXXOOXX++**+X",
"==.*OO**O+*****+",
"=++.OO**O+*****+",
" +$+.OOOOO+***+=",
"  +++.OOOoo+++ =",
"  +++.ooooo..++ ",
"=  ++........++ ",
"=   +====..++$+ ",
"==  =======  ++ ",
"=============  ="
};
