/* XPM */
static char *fm_shrink_l3[] = {
/* columns rows colors chars-per-pixel */
"16 28 14 1 ",
"  c black",
". c #500000",
"X c #8F581F",
"o c #B02860",
"O c #FF4070",
"+ c #FF706F",
"@ c #DFA03F",
"# c #FFD870",
"$ c #20308F",
"% c #40809F",
"& c #80D8CF",
"* c #FFD0C0",
"= c #FFF8FF",
"- c None",
/* pixels */
"---.....--------",
"--.OO#OO..------",
"--.o=#@oOO.-----",
"-       ooO.----",
"          oO.---",
"           oo.--",
"-  ==+==+  oo.--",
"---= * =++  *+--",
"-X*= * =*+  *X+-",
"-X***++**   +X+-",
"-X++++X ** +++--",
"         +++  --",
"-      **++  ---",
"--X+++++++X ----",
"---XXX..oo.-----",
"--X===Xo.OO.----",
"-X=====XOOOo.---",
"-X=====XOOoo.---",
"--X===XoOoo.$---",
"--=XXX..oo.$$---",
"--$%&&&...$%$---",
"--$%&&&&&%%%$---",
"---$%$&&%%%$----",
"---$%$%%%%%$----",
"----$$$$$$$-----",
"--- X XXXXX-----",
"-- # #XXXX -----",
"--         -----"
};
