/* XPM */
static char *fm_ujump_r[] = {
/* columns rows colors chars-per-pixel */
"16 28 14 1 ",
"  c gray16",
". c #420000",
"X c gray29",
"o c #BD0000",
"O c red",
"+ c #8C5A18",
"@ c #8F581F",
"# c #FF7318",
"$ c #FFDE00",
"% c #FFFF9C",
"& c #DEDEAD",
"* c #FFD6C6",
"= c white",
"- c None",
/* pixels */
"----------+@@@+-",
"---------+=====+",
"-------XXXXX=+=+",
"-----XX==%==X==+",
"----X==&$%=&X++-",
"---X=&&       X-",
"--X=&          -",
"-X&&           -",
"-X&&  #==#==  X-",
"-#*  ##= * ===X-",
"#+*  #*= * =*+X-",
"#+#   **##***+--",
"-### **  +###+--",
"-   ##        --",
"--  ##**     ---",
"-XXX&######+&---",
"X=+++&&XX++.&---",
"X+==++&..==o.---",
"+=====+&oo&&o.--",
"+=====+XOOXXo.--",
"-+===+OO==OO==--",
"--+++oOO==OO==--",
"--..ooOOOOOOo  -",
"--..oooOOO. +%  ",
"- ...oooOO.++   ",
" ++....o...++   ",
" %++....--.+    ",
"-   -------    -"
};
