/* XPM */
static char *fm_victory[] = {
/* columns rows colors chars-per-pixel */
"16 28 14 1 ",
"  c #081000",
". c gray16",
"X c #420000",
"o c gray29",
"O c #BD0000",
"+ c red",
"@ c #8C5A18",
"# c #FF7318",
"$ c #DEA539",
"% c #FFDE73",
"& c #DEDEAD",
"* c #FFD6C6",
"= c white",
"- c None",
/* pixels */
"-------....-----",
"-..-..o=$%=..---",
"-.=.=.=$==$=&.--",
"--.==.......=&o-",
"-...=........&o-",
".==...........o-",
".=.==.==##==..o-",
"....=.=.**.=*#.#",
".====.=.**.=**.#",
"-oooo*#****#&..#",
"-o=&o..####..*.#",
"-o=&o........*@-",
"-o=&o*......*@--",
"-o=&&o#####@@---",
"--o=&@@@@@@=o---",
"--o===OO&&OO=o--",
"--o&==O+oo+O&..-",
"-- &XO++++++O==.",
"--.X+==++++==.=.",
"---X+==++++==.=.",
"---X++++++++O..-",
"--.O+++OOOO++O.-",
"--.O++O....O+O.-",
"--.OOO.---.OOO.-",
"--....----.....-",
"-.@@@.----.@@@.-",
".*@@@.----.@@@*.",
"......----......"
};
