/* XPM */
static char *bm_bar_l[] = {
/* columns rows colors chars-per-pixel */
"16 28 14 1 ",
"  c black",
". c #500000",
"X c #182842",
"o c #8F581F",
"O c #B02860",
"+ c #FF4070",
"@ c #FF706F",
"# c #FFD870",
"$ c #20308F",
"% c #40809F",
"& c #80D8CF",
"* c #FFD0C0",
"= c #FFF8FF",
"- c None",
/* pixels */
"------......----",
"-----.OO++=#.---",
"----.O+++O#    -",
"---.O+++O       ",
"--.O+++O      --",
"-.O+++O   ==----",
"-.O+**   @= ----",
".O++@o*  @= ***o",
".OO.@o*   *****o",
".O. @@** ** @@@o",
"-.     @**      ",
"--     @@@*    -",
"--X      @@*ooo-",
"--.O$$...%.o===o",
"--$%%.O++..o===o",
"-$%&%.O+++++o==o",
"-$&&%.OO+++++oo-",
"$%&&&%.OO+++O.--",
"$$$$$&%..OOO.---",
"$%&&$&&&%... ---",
"$$%%$&&&&&&$ ---",
"-$$$%%%%%&&&$---",
"--$$%%%%%%&&$---",
"----$$$%%%%&$---",
"-------$%%%%  --",
"-------- $$$o# -",
"-------- ooo   -",
"--------     ---"
};
