/* XPM */
static char *bm_bar_l[] = {
/* columns rows colors chars-per-pixel */
"16 28 13 1 ",
"  c black",
". c #500000",
"X c #885818",
"o c #B02860",
"O c #F84070",
"+ c #F87068",
"@ c #F8D870",
"# c #203088",
"$ c #408098",
"% c #80D8C8",
"& c #F8D0C0",
"* c #F8F8F8",
"= c None",
/* pixels */
"===.....========",
"===.*@OO..======",
"=    ooOOO..====",
"       oOOOo.===",
"==      oOOOo.==",
"====**   oOOOo.=",
"==== *+   &&Oo.=",
"X&&& *+  &X+OOo.",
"X&&&&&   &X+.oo.",
"X+++ && &&++ .o.",
"=     &&+     .=",
"==   &+++     ==",
"=XXX&++      ===",
"X***X.$...##o.==",
"X***X..OOo.$$#==",
"X**XOOOOOo.$%$#=",
"=XXOOOOOoo.$%%#=",
"==.oOOOoo.$%%%$#",
"===.ooo..$%#####",
"====...$%%%#%%$#",
"====#%%%%%%#$$##",
"===#%%%$$$$$###=",
"===#%%$$$$$$##==",
"===#%$$$$###====",
"=   $$$$#=======",
"= @X### ========",
"==  XXX ========",
"====    ========"
};
