/* XPM */
static char *bm_crouch_l[] = {
/* columns rows colors chars-per-pixel */
"16 15 13 1 ",
"  c black",
". c #500000",
"X c #8F581F",
"o c #B02860",
"O c #FF4070",
"+ c #FF706F",
"@ c #FFD870",
"# c #20308F",
"$ c #40809F",
"% c #80D8CF",
"& c #FFD0C0",
"* c #FFF8FF",
"= c None",
/* pixels */
"=====.....======",
"===..OOOOO..====",
"==  *@O.OOOO.===",
"      oO   .O.==",
"        *** ..==",
"X&&&   ***** .#=",
"X&&&&+ *****  #=",
"=X++++..***. %%#",
"      +....o.$%#",
"=    +#.Oooo.$$#",
"==#%##$$.oo.$$$#",
"===#%#%$$..$$$$#",
"==== X XXX#$$$$#",
"=== @ @XXXX#$$#=",
"===         ##=="
};
