/* XPM */
static char *bm_djump_l[] = {
/* columns rows colors chars-per-pixel */
"16 29 14 1 ",
"  c black",
". c #500000",
"X c #8F581F",
"o c #B02860",
"O c #FF4070",
"+ c #FF706F",
"@ c #DFA03F",
"# c #FFD870",
"$ c #20308F",
"% c #40809F",
"& c #80D8CF",
"* c #FFD0C0",
"= c #FFF8FF",
"- c None",
/* pixels */
"------.....-----",
"-----.O#OOo.----",
"-----.=#@OOo.---",
"---       .Oo.--",
"--         .Oo.-",
"--     .  . .o.-",
"--- .      ..oo.",
"---- + +     .o.",
"----  +  +   .o.",
"----==*==++   ..",
"----= * =*+  *+-",
"--X*= * =*+  *X+",
"--X***++**   +X+",
"--X+++X  ** +++-",
"--        ++   -",
"--X     **+XXXO.",
"-X=XX****+X===X.",
"X==X=XX..X=====X",
"X===XOO$$X=====X",
"-X=%oo%%ooX===X-",
"--X%..&&...XXX--",
"- #X&&==&&%%%$--",
"   X%&==&&%%$$--",
"   XX&&&&&%%$$ -",
"   XX$&&%%%$$$X ",
"   X $$&%$$$$XX ",
"    ---$$$$$XXX ",
"-  -----$$$- #X ",
"-------------  -"
};
