/* XPM */
static char *bm_djump_r[] = {
/* columns rows colors chars-per-pixel */
"16 29 14 1 ",
"  c black",
". c #500000",
"X c #8F581F",
"o c #B02860",
"O c #FF4070",
"+ c #FF706F",
"@ c #DFA03F",
"# c #FFD870",
"$ c #20308F",
"% c #40809F",
"& c #80D8CF",
"* c #FFD0C0",
"= c #FFF8FF",
"- c None",
/* pixels */
"-----.....------",
"----.oOO#O.-----",
"---.oOO@#=.-----",
"--.oO.       ---",
"-.oO.         --",
"-.o. .  .     --",
".oo..      . ---",
".o.     + + ----",
".o.   +  +  ----",
"..   ++==*==----",
"-+*  +*= * =----",
"+X*  +*= * =*X--",
"+X+   **++***X--",
"-+++ **  X+++X--",
"-   ++        --",
".OXXX+**     X--",
".X===X+****XX=X-",
"X=====X..XX=X==X",
"X=====X$$OOX===X",
"-X===Xoo%%oo%=X-",
"--XXX...&&..%X--",
"--$%%%&&==&&X# -",
"--$$%%&&==&%X   ",
"- $$%%&&&&&XX   ",
" X$$$%%%&&$XX   ",
" XX$$$$%&$$ X   ",
" XXX$$$$$---    ",
" X# -$$$-----  -",
"-  -------------"
};
