/* XPM */
static char *bm_growth_r2[] = {
/* columns rows colors chars-per-pixel */
"16 28 15 1 ",
"  c black",
". c #500000",
"X c gray29",
"o c #8F581F",
"O c #FF706F",
"+ c #FFDE00",
"@ c #FFD870",
"# c #20308F",
"$ c #40809F",
"% c #DEDEAD",
"& c #80D8CF",
"* c #FFD0C0",
"= c #FFF8FF",
"- c white",
"; c None",
/* pixels */
";;;;;;;;XXXXX;;;",
";;;;;;XX--+--X;;",
";;;;;X--%@@@%X;;",
";;;;X-%%XXXXXXX;",
";;;X-%XXXXXXXXXX",
";;X%%XXXXXXXXXXX",
";;X%%XXO==O==XX;",
";;O*XXOO= * =;;;",
";Oo*XXO*= * =*o;",
";OoOXXX**OO***o;",
";;OOOX** oOOOOo;",
";;XXOOO         ",
";;;XXOO**      ;",
";;;;XoOOOOOOOo;;",
";;;;;.%%..ooo;;;",
";;;;.--.%o===o;;",
";;;.%---o=====o;",
";;;.%%--o=====o;",
";;;#.%%-%o===o;;",
";;;##.%%..ooo=;;",
";;;#$#...&&&$#;;",
";;;#$$$&&&&&$#;;",
";;;;#$$$&&#$#;;;",
";;;;#$$$$$#$#;;;",
";;;;;#######;;;;",
";;;;;ooooo o ;;;",
";;;;; oooo@ @ ;;",
";;;;;         ;;"
};
