/* XPM */
static char *bm_idle_r[] = {
/* columns rows colors chars-per-pixel */
"15 28 14 1 ",
"  c black",
". c #500000",
"X c #8F581F",
"o c #B02860",
"O c #FF4070",
"+ c #FF706F",
"@ c #DFA03F",
"# c #FFD870",
"$ c #20308F",
"% c #40809F",
"& c #80D8CF",
"* c #FFD0C0",
"= c #FFF8FF",
"- c None",
/* pixels */
"-------.....---",
"-----..OO#OO.--",
"----.OOo@#=o.--",
"---.Ooo       -",
"--.Oo          ",
"-.oo           ",
"-.oo  +==+==  -",
"-+*  ++= * =---",
"+X*  +*= * =*X-",
"+X+   **++***X-",
"-+++ ** X++++X-",
"-  +++         ",
"--  ++**      -",
"--- X+++++++X--",
"----.oo..XXX---",
"---.OO.oX===X--",
"--.oOOOX=====X-",
"--.ooOOX=====X-",
"--$.ooOoX===X--",
"--$$.oo..XXX=--",
"--$%$...&&&%$--",
"--$%%%&&&&&%$--",
"---$%%%&&$%$---",
"---$%%%%%$%$---",
"----$$$$$$$----",
"----XXXXX X ---",
"---- XXXX# # --",
"----         --"
};
