/* XPM */
static char *bm_run_r2[] = {
/* columns rows colors chars-per-pixel */
"16 28 14 1 ",
"  c black",
". c #500000",
"X c #8F581F",
"o c #B02860",
"O c #FF4070",
"+ c #FF706F",
"@ c #DFA03F",
"# c #FFD870",
"$ c #20308F",
"% c #40809F",
"& c #80D8CF",
"* c #FFD0C0",
"= c #FFF8FF",
"- c None",
/* pixels */
"-------.....----",
"-----..OO#OO.---",
"----.OOo@#=o.---",
"---.Ooo       --",
"--.Oo          -",
"-.oo           -",
"-.oo  +==+==  --",
"-+*  ++= * =----",
"+X*  +*= * =*X--",
"+X+   **++***X--",
"-+++ ** X++++X--",
"-  +++         -",
"--  ++**      --",
"-.. X++++++XXXX-",
".oooooo..XXX=X=X",
".oOOOO$$OO$=X==X",
".oXXXoo%%oo%X==X",
".X==XX..&&..&XX-",
"X=====X&==&&=$--",
"X=====X&==&&$XX-",
"-X===X&&&&&$X#X ",
"- XXX%%&&&$XXX  ",
" XX$$%%%%%$XXX  ",
" XX$$$$$$$$XX  -",
" X#XX$$----X   -",
" XX  -------  --",
"-  -------------",
"----------------"
};
