/* XPM */
static char *bm_run_r1[] = {
/* columns rows colors chars-per-pixel */
"16 28 14 1 ",
"  c black",
". c #500000",
"X c #8F581F",
"o c #B02860",
"O c #FF4070",
"+ c #FF706F",
"@ c #DFA03F",
"# c #FFD870",
"$ c #20308F",
"% c #40809F",
"& c #80D8CF",
"* c #FFD0C0",
"= c #FFF8FF",
"- c None",
/* pixels */
"-------.....----",
"-----..OO#OO.---",
"----.OOo@#=o.---",
"---.Ooo       --",
"--.Oo          -",
"-.oo           -",
"-.oo  +==+==  --",
"-+*  ++= * =----",
"+X*  +*= * =*X--",
"+X+   **++***X--",
"-+++ ** X++++X--",
"-  +++         -",
"--  ++**      --",
"--- X++++++X----",
"---..oo..XX-----",
"--.OOXXXoo$.----",
"-.OOX==XXOo%XX--",
"-.oX=====XOo&=X-",
"-.oX=====X&%=XX-",
"--..X===X=&&=$--",
"--$%%XXX&&&&%$--",
"---$%%&&&&&&%$--",
"--$$%%%&%%&&%$ -",
"- X$$$%%$$%%$#X ",
"- XX$$$$$-$XXX  ",
"- XXXX --- X    ",
"-- XXX# --     -",
"---     ---  ---"
};
