/* XPM */
static char *bm_slide_l[] = {
/* columns rows colors chars-per-pixel */
"16 28 14 1 ",
"  c black",
". c #500000",
"X c #8F581F",
"o c #B02860",
"O c #FF4070",
"+ c #FF706F",
"@ c #DFA03F",
"# c #FFD870",
"$ c #20308F",
"% c #40809F",
"& c #80D8CF",
"* c #FFD0C0",
"= c #FFF8FF",
"- c None",
/* pixels */
"------.....-----",
"-----.OO#OO.----",
"----.Oo@#=o.----",
"---.Ooo      ---",
"--.Oo         --",
"--.o          --",
"-.oo  +  +   ---",
"-.o  ++==*==----",
"-+*  +*= * =----",
"+X*  +*= * =*X--",
"+X+   **++***X--",
"-+++ *X  X+++X--",
"-   +X===     --",
".OXXX===== ...--",
"X===X=====Xooo.-",
"X===X=X===XOOOo.",
"-X==$XX==XoOOoo.",
"--  %&&XXooooo..",
"-  #X%&&&......-",
"-   XX%&&&&%$---",
"--   XX%$&&%$---",
"--    X$&&%%$---",
"---    $%%%$----",
"---$  &&$$$-----",
"--- %%XX -------",
"--- XXXX -------",
"-- #XX   -------",
"--     ---------"
};
