/* XPM */
static char *bm_ujump_l[] = {
/* columns rows colors chars-per-pixel */
"16 31 14 1 ",
"  c black",
". c #500000",
"X c #8F581F",
"o c #B02860",
"O c #FF4070",
"+ c #FF706F",
"@ c #DFA03F",
"# c #FFD870",
"$ c #20308F",
"% c #40809F",
"& c #80D8CF",
"* c #FFD0C0",
"= c #FFF8FF",
"- c None",
/* pixels */
"--XXX-----------",
"-X===X----------",
"X=X===X---------",
"X=X=.....-------",
"X==.OO#OO..-----",
"-XX.o=#@oOO.----",
"-.       ooO.---",
"-          oO.--",
"-           oo.-",
"-.  ==+==+  oo.-",
"-.OO= * =++  *+-",
"-.X*= * =*+  *X+",
"--X***++**   +X+",
"--X+++X  ** +++-",
"--        ++   -",
"---     **++  --",
"---oX++++++o...-",
"---o$XX..ooXXXO.",
"---$%OO$$oXX==X.",
"--$%oo%%oX=====X",
"--$%..&&.X=====X",
"--==&&==&&X===X-",
"--==&&==&&%XXX--",
"-  %&&&&&&%%$$--",
"  #X $&&&%%%$$--",
"   XX$&&%%%$$$ -",
"   XX$$$%$$$$XX ",
"    X$--$$$$XXX ",
"-    ------ XXX ",
"--  -------- #X ",
"-------------  -"
};
