/* XPM */
static char *coin1[] = {
/* columns rows colors chars-per-pixel */
"72 72 177 2 ",
"   c #030201",
".  c #090500",
"X  c #0C0A01",
"o  c #0A0A0A",
"O  c #140C00",
"+  c #1A0E00",
"@  c #151101",
"#  c #1C1300",
"$  c #191802",
"%  c #15140B",
"&  c #121212",
"*  c #1A1A1A",
"=  c #221400",
"-  c #251E00",
";  c #2A1B00",
":  c #2B2300",
">  c #2F2900",
",  c #29250A",
"<  c #302200",
"1  c #372A00",
"2  c #3A2C00",
"3  c #3B3100",
"4  c #353012",
"5  c #413200",
"6  c #4C3E00",
"7  c #4C4202",
"8  c #4A410E",
"9  c #534500",
"0  c #534800",
"q  c #5A4900",
"w  c #594E0A",
"e  c #534A0F",
"r  c #484114",
"t  c #524A15",
"y  c #50491B",
"u  c #675800",
"i  c #655803",
"p  c #725E00",
"a  c #645A13",
"s  c #7F6D00",
"d  c #4E4829",
"f  c #524C29",
"g  c #625B23",
"h  c #6E652B",
"j  c #72692E",
"k  c #6D6537",
"l  c #706A39",
"z  c #7F763C",
"x  c #8A7807",
"c  c #917D01",
"v  c #84761A",
"b  c #837725",
"n  c #9C8909",
"m  c #998819",
"M  c #A99518",
"N  c #91832A",
"B  c #9B8D35",
"V  c #A19122",
"C  c #A6962B",
"Z  c #A59634",
"A  c #BBA82F",
"S  c #BBA625",
"D  c #BCAA33",
"F  c #B0A03F",
"G  c #C0A817",
"H  c #CCB41C",
"J  c #C3AE24",
"K  c #D4BD26",
"L  c #C1AD31",
"P  c #D4BF3F",
"I  c #ECCC03",
"U  c #ECCD0A",
"Y  c #EFD00A",
"T  c #F5D506",
"R  c #FAD804",
"E  c #F4D40A",
"W  c #F9D90A",
"Q  c #EACC12",
"!  c #E7CB1C",
"~  c #EDD11C",
"^  c #F5D614",
"/  c #F7D914",
"(  c #FCDC15",
")  c #F3D61C",
"_  c #F6D91C",
"`  c #FEDE1B",
"'  c #FFE017",
"]  c #FFE01E",
"[  c #DBC53D",
"{  c #E4CA28",
"}  c #EED322",
"|  c #F1D522",
" . c #F5D923",
".. c #FEDF22",
"X. c #F7DC2E",
"o. c #FCDF2A",
"O. c #E3CD39",
"+. c #ECD33D",
"@. c #F6DB33",
"#. c #FBDF33",
"$. c #F3DA3A",
"%. c #F9DF39",
"&. c #FEE021",
"*. c #FDE02C",
"=. c #FBE132",
"-. c #FCE23B",
";. c #FFE83F",
":. c #8F8543",
">. c #938946",
",. c #8A8356",
"<. c #A39641",
"1. c #A69C56",
"2. c #B0A245",
"3. c #B9A948",
"4. c #AEA35C",
"5. c #BEAF52",
"6. c #9D976B",
"7. c #A19A65",
"8. c #D1BE48",
"9. c #CBBC57",
"0. c #C5BA71",
"q. c #DAC540",
"w. c #DFCC56",
"e. c #D1C151",
"r. c #E3CE42",
"t. c #E0CC4F",
"y. c #E6D047",
"u. c #EBD444",
"i. c #EAD44B",
"p. c #EED94F",
"a. c #F3DC44",
"s. c #F9DF41",
"d. c #F2DB4B",
"f. c #E2CE57",
"g. c #E8D453",
"h. c #F7E042",
"j. c #FCE343",
"k. c #FFE845",
"l. c #FDE54E",
"z. c #FFE94C",
"x. c #F7E14C",
"c. c #FDE653",
"v. c #FFEA55",
"b. c #F6E15A",
"n. c #FEE659",
"m. c #FFEB5A",
"M. c #DCCC63",
"N. c #DDCF6D",
"B. c #E0CF63",
"V. c #EBDC79",
"C. c #FFEE64",
"Z. c #F3E16C",
"A. c #F9E66C",
"S. c #FFED6D",
"D. c #FAE664",
"F. c #F3E272",
"G. c #FFED73",
"H. c #F2E27E",
"J. c #FFED79",
"K. c #D7CB80",
"L. c #D3CA8F",
"P. c #CAC394",
"I. c #E6DA8B",
"U. c #E4DA99",
"Y. c #EADF9F",
"T. c #EEE28E",
"R. c #F3E383",
"E. c #FCEC85",
"W. c #F2E58E",
"Q. c #FCEB88",
"!. c #EFE293",
"~. c #EBE19B",
"^. c #F2E491",
"/. c #F9EB94",
"(. c #F4E892",
"). c #DAD2A2",
"_. c None",
/* pixels */
"_._._._._._._._._._._._._._._._._._._._._._._._._._._._._._._._._._._._._._._._._._._._._._._._._._._._._._._._._._._._._._._._._._._._._._._._.",
"_._._._._._._._._._._._._._._._._._._._._._._._._._.o .     o     .     o     o     o   o o _._._._._._._._._._._._._._._._._._._._._._._._._._.",
"_._._._._._._._._._._._._._._._._._._._._._._._._._.                                      . _._._._._._._._._._._._._._._._._._._._._._._._._._.",
"_._._._._._._._._._._._._._._._._._._._._._._._._._.o . . X   . . . . .   . . . . X   .   O _._._._._._._._._._._._._._._._._._._._._._._._._._.",
"_._._._._._._._._._._._._._._._._._._._._._._._._._.l j j j j j j j j j j j j j j j j j j l _._._._._._._._._._._._._._._._._._._._._._._._._._.",
"_._._._._._._._._._._._._._._._._._.o . .   o   O ,.~.W.W.W.W.W.W.W.W.W.^.W.W.W.W.W.W.W.W.Y.f X   o o . . o _._._._._._._._._._._._._._._._._._.",
"_._._._._._._._._._._._._._._._._._.            X ,.(.E.E.E.E.E.E.E.E.E.E.E.E.E.Q.E.E.Q.Q.^.d               _._._._._._._._._._._._._._._._._._.",
"_._._._._._._._._._._._._._._._._._.  .       . X :.E.G.G.G.G.G.G.G.G.S.G.G.G.S.S.G.S.G.G.H.w O . .   . . X _._._._._._._._._._._._._._._._._._.",
"_._._._._._._._._._._._._._._._._._.y t t t t t w 2.A.C.C.D.m.v.v.v.v.v.v.v.v.v.v.v.v.v.m.b.x q 9 q 9 9 9 0 _._._._._._._._._._._._._._._._._._.",
"_._._._._._._._._._._._._.& o X $ P.~.^.^.!.!.W.R.F.b.x.x.s.%.#.=.=.=.=.-.%.#.#.#.%.%.#.%.%.a.u.i.i.i.i.p.f.:.O o o _._._._._._._._._._._._._._.",
"_._._._._._._._._._._._._.o     O L./.Q.Q.Q.Q.E.J.A.l.s.-.-.X.o.o...o.o.o...o.o.*...o.....o.#.o.X.o.#.#.#.d.B X     _._._._._._._._._._._._._._.",
"_._._._._._._._._._._._._.X     @ K.E.G.J.G.G.G.S.n.-.-.-.o.....] ] ] ] ` ..` ` ` &.` ..&.] ] &.....` ....$.m + . . _._._._._._._._._._._._._._.",
"_._._._._._._._._._._._._.4 1 1 3 N.G.C.C.C.C.m.v.j.-.o.o...` ( ` ( / ( ` ( ( ( ` ` ( ( ( ` ] ] ` ..` ....@.M 5 1 1 _._._._._._._._._._._._._._.",
"_._._._._._._._._.& o X , ).~.T.R.Z.b.x.x.h.-.%.#.| Q U U I I I I U I I U I I I I I I I I U / ` ....` ....o.%.u.g.B.4.# X o * _._._._._._._._._.",
"_._._._._._._._._.o     - ~./.E.G.b.x.j.-.-.=...o.^ I I I I I I I I I I I I I I I I I I I I / ..] ..&...` ..o.#.#.d.3.O     & _._._._._._._._._.",
"_._._._._._._._._.X     - !.E.G.C.c.j.=.-.*.&.] ` E I I I I I I I I I I I I I I I I I I I I / ` ] ] ] &.....` ....@.D + .   $ _._._._._._._._._.",
"_._._._._._._._._.$ O @ 1 H.G.C.m.x.-.=.*.*.&.` ` E I I I I I I I I I I I I I I I I I Y I I ' ' ] ] ] &.&...` &.&.X.S ; # # : _._._._._._._._._.",
"_._._._._.* & % d ).U.I.V.Z.b.c.j.%.=.*.&.^ U I I ^ ] ' ' ] ' ` ' ] ' ] ] ' ' ' ] ] ] ' ' ] Y I I I / ] &.&.&.&.&.o.$.y.t.M.0.- @ o * _._._._._.",
"_._._._._.o     r ~./.E.G.b.x.j.-.*.o...` E I I I W ] ] &.&.] ] ] ] ] ] &.] ] ] ] ] ] ] ] ] Y I I I ^ ] ] ` ` &.&...o.X.-.d.M.O     o _._._._._.",
"_._._._._..     r ^.Q.J.S.d.j.-.-.*.&.] ` E I I I ^ ] ] &.....o.*. .&.*.*.*.*.*.*.&.&.] ] ] Y I I I ^ ] ] &.&.] &.] ....` #.w.+     o _._._._._.",
"_._._._._..     8 !.E.G.C.x.-.-.*.*.` ` ` E I I U ^ ] &.&.*.=.-.$.-.-.$.-.-.%.%.$.=.*.] &.] Y Y I I ^ ' ] ] ] ] &...&.` ..%.w.+     o _._._._._.",
"_._._._._.o     8 !.Q.G.C.a.-.o.&.Q E Y E / ( ( ( ` ] &.*.=.v.m.m.m.m.v.m.m.m.m.m.z.=.&.&.] ] / ( ( E E Y E ^ ] ] ..&.....%.w.+     o _._._._._.",
"_._._._._.o     r !.E.G.m.h.o...&.U I I I ( ......&.&.&.*.k.C.G.G.G.G.G.G.G.G.G.S.C.-.&.&.] ] ] ] ] ^ I I I E ] ] ....` ..#.w.+     o _._._._._.",
"_._._._._..     7 W.E.G.m.-.o...] Y I I U ( ` ........*.*.k.S.G.G.J.G.G.J.J.J.G.G.C.-.&.&.&.] ] &.] E U I I ^ &...........#.w.# .   X _._._._._.",
"_._._._._.@ X O 0 R.J.C.v.#.&.` ` Y I I U ( ` ..&.o.=.#.%.l.m.C.C.C.C.C.C.C.C.C.C.m.=.] ] ] ] ] &.] ^ I I U ~ *.-.#.o.....#.r.; O X # _._._._._.",
"_._._._._.6.7.1.5.F.D.v.j.} ^ E E / / / / ` &.&.*.;.z.v.l.l.h.h.h.h.h.$.h.h.h.j.$.-.] / / / _ ] &.] ' / / _ *.k.z.z.k.o.o.o.$.M C B >._._._._._.",
"_.o . X k ~.^.E.A.b.x.j.#.Q I I I ` ..] &.] &...*.k.C.S.C.c. ._ ] _ ] ] _ ] ] ) ] / / W T T ' ] ] &.] ] ] *.j.C.S.C.v.#.o...X.@.@.d.M.2 X   o _.",
"_.      h ^.Q.G.C.x.h.-.X.U I I I ` ] ..` ....o.#.l.G.J.S.l. .W T W T T T T W W W T T T T T ' ] ] &.&.&.&.*.l.S.G.G.m.%.o.&.` ` ] -.g.2 .   o _.",
"_..     h ^.E.J.C.d.-.-.*.U I I U ` &...` ......#.l.G.G.G.l. .W W W W W W T W W W W T T T E / ] ] &.&.] ..=.l.S.G.G.m.%.o.&.] ] ` #.i.1     o _.",
"_.    . h ^.E.G.m.j.-.*...U I I I ` ] ..] ......#.z.G.J.G.l._ W W W W W W W W W W W T T T Y ' ] ] &.&.&...o.l.S.J.G.m.%...&.] ( ( X.y.2     o _.",
"_.    . h ^.E.G.m.%.o.....U I I I ` ` ` &.` &.o.#.z.G.G.S.l._ W W W W W W W W W W W E T T E ' ] ] &.&.] ..=.l.S.J.G.m.#.*.] ' W W ^ O.1 .   . _.",
"_.o   . h ^.E.G.m.%.o...` I I I I ` ....&.&.....#.l.G.J.S.c._ W W W W W W W W W W W T T T E / ] ] ] &.&...o.l.S.J.G.m.%...` ' W R ^ O.1     o _.",
"_.    . h W.E.G.v.%.o.` ( I I I I ` &.` ` ..&.o.#.z.G.J.S.l._ W W W W W W W W W W W T T T T / ] ] ] ] &...=.l.C.J.G.m.-...] ' W R ^ O.1     o _.",
"_.    . h W.E.G.v.%.o...` I I I I ` ] ..........#.l.G.G.S.c._ W W W W W W W W W W W T T E W ] ' ] &.] &...o.l.S.J.G.v.%.o.` ( W R ^ O.1     o _.",
"_.o     h ^.E.S.m.#.o.` ` I I I I ` ] ....&.....#.l.G.J.G.l. .W W / T W W W W W W W W T T E ' ] ] &.&.&.&.#.x.S.J.G.m.%.&.] ' W R ^ O.1     . _.",
"_.    . h ^.E.G.m.%.o...` I I I I ` ..` ..] &...#.z.S.J.G.x._ W W W W W W W W W W W W T T E ' ] ] &.] &.&.=.l.S.J.G.m.%.o.] ' W R ) O.1 .   o _.",
"_.    . h ^.E.G.v.#.o.&.` I I I I ` &.....` ..o.#.z.G.J.G.l._ W W W W W W W W W W W T T T T ] ] ] &.....&.o.l.S.G.G.v.%.o.] ' W R ^ O.1     o _.",
"_..   . h W.E.G.m.%.o.] ` I I I I ` ` ..........#.l.S.J.S.x._ W W W W W W W W W W W T T T Y / ] ]  ...` ..=.l.S.J.G.m.%...] ' W R ^ O.1     o _.",
"_.o   . h ^.E.G.m.%.o.] ` I I I I ` &...&.&.&...=.l.G.G.S.c._ W W W W W W W W W W W T T T E / ' ] &.] ....*.c.S.J.G.m.#.o.' ' W R ^ O.1 .   . _.",
"_.    . h W.E.G.v.#.o.] ` I I I I ` ] ] &.&.....#.l.G.J.S.c._ W W W W W W W W W W W T T T T ' ] ] &.&.&...*.l.S.J.G.m.#.o.] ' W R ^ O.1     o _.",
"_..     h ^.E.G.m.#.o.&.` I I I I ` &.&.&.] &...#.l.S.J.S.c._ W W W W W W W W W W W T T T E ' ] ] ..] ....#.c.S.J.G.m.%...` ' W R ) O.1     o _.",
"_.      h W.E.G.v.%.o.] ] I I I I ` ` ..&.&.&.o.=.l.G.J.S.l._ W W W W W W W W W W W T T T T ' ] &.` ......o.l.S.J.G.m.%.o.] ' W R ^ O.1     o _.",
"_.    . h W.E.G.v.%.o.&.` I I I I ` &.&...&.&...=.z.G.J.S.l._ W W W W W W W W W W W W T T T ' ] ] ..` ....*.c.C.J.G.m.#.*.] ' W R ^ O.1     . _.",
"_.o     h W.E.G.m.-...` ` I I I I ` ..` ` ......=.z.G.J.G.l._ W W W W W W W W W W W T T T Y / ] ] ] ..` ..=.l.S.J.G.v.-.*.] ' W R ^ O.1 .   o _.",
"_.    . h ^.E.G.m.%.....] I I I U ` ] ] &...` ..=.z.S.G.S.c.) W W W W W W W W W W W T T T E ' ] &.&.&.&...#.l.S.G.G.m.#...] ' W W _ O.2     o _.",
"_.& o @ l U.!.H.b.%.o...` I I I I ' ' ] &.] &...*.k.C.C.C.j./ W W W W W W W W W W W E E E T ' ] ] ..*.=.#.%.c.m.S.C.z.*.] ` *.! { O.e.3 O o & _.",
"_._._._._., : : i u.X...` ` ` ( ` E I I Y / &...*.*.=.-.=...E T E T T T T T T T T T ' ' ] ] ] ] &.*.j.m.C.C.v.-.-.-.*.( W / { 2 ; ; : _._._._._.",
"_._._._._..     7 y.X.` ` &.] ] ` U I I U ( &.&.&.&.&.&.&./ E T Y T T T T Y T T T T ' &.] &.&.&...=.v.S.G.S.l.-.*.] ( W R _ [ + .   X _._._._._.",
"_._._._._.o   . 6 y.X._ ` &.&.] ' I I I I ` ] ` &.&.&.&...( E T T T T T T T T T T E ` ] ] &...&.&.=.v.S.J.S.v.-...` ' R R ^ q.+     o _._._._._.",
"_._._._._.      6 y.#.` ` &.] &.] U I I I / ` ] ] ` &.&...` E E T E T E T T E E E E ' ] ....*.=.=.$.c.C.C.C.k.*...] ' R R ^ q.+     o _._._._._.",
"_._._._._.o   . 6 i.@.` &.&.&.&.] ` ` / ` E E Y E / ] &.` ` ` ` ` ( ` _ ` ( ` ( ( ` ] ....*.l.v.m.m.l.j.j.-.-.&...] ( W R _ q.+     o _._._._._.",
"_._._._._..   . 6 p.#...&.&.&.` ..&.] ] ` E I U U ^ ] &.....` ` &.] ` ] &.] ] ] ] ] &.&.&.X.m.S.G.C.l.-.=.&.&.&.&.] ' R R _ q.+     o _._._._._.",
"_._._._._.o     7 i.=.&.&.............&...E I I I ^ ` &.....&.] &.` &.&.&.&.&.] &.&.] &...#.m.G.J.S.l.*.*.&...&...` ( W R ) q.+     o _._._._._.",
"_._._._._.o o X 7 M.i.$.X.o...] &.` ..` ` E I I U / o.=.#.o.=.*.=.#.*.=.o.=.=.#.#.#.=.=.%.-.m.C.S.C.j.*.&.] ] ] ` ` ..~ } O.9.= X o & _._._._._.",
"_._._._._._._._._.g a u s +.X.] ] ..` ..../ / / _ =.z.v.n.n.v.n.n.n.m.n.n.n.n.v.n.v.c.n.n.v.z.k.j.;.=.o...` ' ( ( _ K p i i g _._._._._._._._._.",
"_._._._._._._._._.O . O : i.=.] &...&.&.&.&.&...o.l.C.G.G.G.G.G.G.G.S.G.G.G.G.G.G.G.G.G.G.C.j.=.#.*.&...&.` ( W R ) S = X X $ _._._._._._._._._.",
"_._._._._._._._._.X     ; g.@.&...........` ` ..#.z.C.J.J.J.J.J.J.J.J.J.J.J.J.J.J.J.J.J.J.S.j.*.&.&.&.&.] ] ( W R ) A + .   % _._._._._._._._._.",
"_._._._._._._._._.o . X : N.p.$.@.o...` ........*.l.C.S.S.S.G.S.S.G.G.S.G.S.S.G.S.G.G.S.S.C.=.*...] ] ' ] &._ ~ | O.<.# X   * _._._._._._._._._.",
"_._._._._._._._._._._._._.b b v c +.o.......] &.*.=.k.z.l.z.l.l.l.l.l.z.z.l.l.l.l.z.z.l.z.k.&.( ( W W ' ( ` H c x v _._._._._._._._._._._._._._.",
"_._._._._._._._._._._._._.@ X O = 8.#.&.` ..&...&.*.o.=.=.#.=.=.#.=.*.=.*.#.=.=.=.#.=.=.*.*.( W W R R R W ~ n + O X _._._._._._._._._._._._._._.",
"_._._._._._._._._._._._._.o     + 8.%...&.&.` ] &.......&.o.........&.&.......o.....o.....` ( R R R R R R ) m O     _._._._._._._._._._._._._._.",
"_._._._._._._._._._._._._.&   o + 9.p.$.$.$.$.$.%.o...] ' ' ] ] &.] ] ' ] ] ] ] ` ` ] ] ` ..) }  .) ~ ) | O.N O . . _._._._._._._._._._._._._._.",
"_._._._._._._._._._._._._._._._._._.<.Z Z Z Z C C K ../ ' ' W ' ( ( ' ' ( ' ( W ( ( ( ( (  .G M M V M V V B _._._._._._._._._._._._._._._._._._.",
"_._._._._._._._._._._._._._._._._._.O O O O O O = c ) W W R W R R R R R R R W R R R T T E ! q + X O X O O O _._._._._._._._._._._._._._._._._._.",
"_._._._._._._._._._._._._._._._._._.            O x  .R R R R R R R R R R R R R R R T T T ! 7 .             _._._._._._._._._._._._._._._._._._.",
"_._._._._._._._._._._._._._._._._._.            X b O.) ) ) ) )  .^ ) ) ) ^ ) ^ ^ | ~ ~ ~ [ 7 .             _._._._._._._._._._._._._._._._._._.",
"_._._._._._._._._._._._._._._._._._._._._._._._._._.3.L L L L L L L L L L L D L L L S A D 2._._._._._._._._._._._._._._._._._._._._._._._._._._.",
"_._._._._._._._._._._._._._._._._._._._._._._._._._.# O + + + + + + O O + + + O + + + + + # _._._._._._._._._._._._._._._._._._._._._._._._._._.",
"_._._._._._._._._._._._._._._._._._._._._._._._._._.X                                     X _._._._._._._._._._._._._._._._._._._._._._._._._._.",
"_._._._._._._._._._._._._._._._._._._._._._._._._._..                                     o _._._._._._._._._._._._._._._._._._._._._._._._._._.",
"_._._._._._._._._._._._._._._._._._._._._._._._._._.& o o o o o o & o o o o o o o o o o o & _._._._._._._._._._._._._._._._._._._._._._._._._._.",
"_._._._._._._._._._._._._._._._._._._._._._._._._._._._._._._._._._._._._._._._._._._._._._._._._._._._._._._._._._._._._._._._._._._._._._._._."
};
