/* XPM */
static char *coin3[] = {
/* columns rows colors chars-per-pixel */
"72 72 124 2 ",
"   c #020100",
".  c #0B0600",
"X  c #0D0A01",
"o  c #0A0A0A",
"O  c #150C00",
"+  c #190D00",
"@  c #171300",
"#  c #1B1400",
"$  c #121212",
"%  c #211300",
"&  c #271F00",
"*  c #281F00",
"=  c #2B2501",
"-  c #352800",
";  c #392F00",
":  c #433200",
">  c #726300",
",  c #7E6E05",
"<  c #70630D",
"1  c #796D1B",
"2  c #867200",
"3  c #907E09",
"4  c #86781E",
"5  c #857820",
"6  c #807734",
"7  c #AA9614",
"8  c #A59325",
"9  c #A09134",
"0  c #B5A22F",
"q  c #B6A331",
"w  c #B2A33C",
"e  c #BCA939",
"r  c #CAB21A",
"t  c #C3AE21",
"y  c #C6B238",
"u  c #DFC41B",
"i  c #ECCC02",
"p  c #E7C90F",
"a  c #EACB0A",
"s  c #F3D30C",
"d  c #E2C516",
"f  c #E6C913",
"g  c #EACC14",
"h  c #E6C91B",
"j  c #E8CB1C",
"k  c #EDD014",
"l  c #F5D612",
"z  c #F7D815",
"x  c #FADB16",
"c  c #F3D61C",
"v  c #FDDE1D",
"b  c #FFE01D",
"n  c #DEC420",
"m  c #DCC42E",
"M  c #DBC434",
"N  c #D7C23A",
"B  c #D8C33A",
"V  c #E5CA22",
"C  c #E6CC29",
"Z  c #EDD127",
"A  c #EFD429",
"S  c #F7DA26",
"D  c #FDDF23",
"F  c #F1D52D",
"G  c #F6D92B",
"H  c #FCDF2A",
"J  c #F5DA34",
"K  c #FADE35",
"L  c #F6DC3A",
"P  c #F9DF3A",
"I  c #FEE020",
"U  c #FCE02D",
"Y  c #FBE034",
"T  c #FAE039",
"R  c #AA9D4C",
"E  c #B2A242",
"W  c #BCAD49",
"Q  c #C4B346",
"!  c #CDBA43",
"~  c #C2B24A",
"^  c #CCBC52",
"/  c #C6BA6C",
"(  c #D6C244",
")  c #D5C34E",
"_  c #D6C451",
"`  c #D3C35C",
"'  c #DFCD58",
"]  c #EBD444",
"[  c #E8D34C",
"{  c #F5DC42",
"}  c #F5DD4A",
"|  c #E7D354",
" . c #F4DD53",
".. c #F4DF5B",
"X. c #FAE147",
"o. c #FBE24A",
"O. c #F7E152",
"+. c #FAE256",
"@. c #FFEA53",
"#. c #F7E15F",
"$. c #FDE55D",
"%. c #FFEB5C",
"&. c #D7C768",
"*. c #E3D261",
"=. c #F6E163",
"-. c #FEE763",
";. c #FFEB65",
":. c #FCE768",
">. c #FEEB6A",
",. c #F9E674",
"<. c #FDE972",
"1. c #FCE97B",
"2. c #FFF275",
"3. c #FFF27D",
"4. c #FBE983",
"5. c #FFF283",
"6. c #FFF28B",
"7. c #FFEE91",
"8. c #FFF195",
"9. c #FFF19B",
"0. c #FFEFA2",
"q. c #FFF0A3",
"w. c #FEF0A8",
"e. c None",
/* pixels */
"e.e.e.e.e.e.e.e.e.e.e.e.e.e.e.e.e.e.e.e.e.e.e.e.e.e.e.e.e.e.e.e.e.e.e.e.e.e.e.e.e.e.e.e.e.e.e.e.e.e.e.e.e.e.e.e.e.e.e.e.e.e.e.e.e.e.e.e.e.e.e.e.",
"e.e.e.e.e.e.e.e.e.e.e.e.e.e.e.e.e.e.e.e.e.e.e.e.e.e.e.e.  o o     o   o o     o   o o e.e.e.e.e.e.e.e.e.e.e.e.e.e.e.e.e.e.e.e.e.e.e.e.e.e.e.e.e.",
"e.e.e.e.e.e.e.e.e.e.e.e.e.e.e.e.e.e.e.e.e.e.e.e.e.e.e.e.                              e.e.e.e.e.e.e.e.e.e.e.e.e.e.e.e.e.e.e.e.e.e.e.e.e.e.e.e.e.",
"e.e.e.e.e.e.e.e.e.e.e.e.e.e.e.e.e.e.e.e.e.e.e.e.e.e.e.e.. . . . . . . . . . . . . . X e.e.e.e.e.e.e.e.e.e.e.e.e.e.e.e.e.e.e.e.e.e.e.e.e.e.e.e.e.",
"e.e.e.e.e.e.e.e.e.e.e.e.e.e.e.e.e.e.e.e.e.e.e.e.e.e.e.e.> > > > > > > > > > > > > > < e.e.e.e.e.e.e.e.e.e.e.e.e.e.e.e.e.e.e.e.e.e.e.e.e.e.e.e.e.",
"e.e.e.e.e.e.e.e.e.e.e.e.e.e.e.e.e.e.e.e.e.e.e.$   o @ ^ ] ] { ] { ] { ] ] { ] ] { ] | R #   o e.e.e.e.e.e.e.e.e.e.e.e.e.e.e.e.e.e.e.e.e.e.e.e.e.",
"e.e.e.e.e.e.e.e.e.e.e.e.e.e.e.e.e.e.e.e.e.e.e.o     O ( T Y U U H H H H H U U U H H { E O     e.e.e.e.e.e.e.e.e.e.e.e.e.e.e.e.e.e.e.e.e.e.e.e.e.",
"e.e.e.e.e.e.e.e.e.e.e.e.e.e.e.e.e.e.e.e.e.e.e.o     X B U b b b v D I I I I v v D I L w +     e.e.e.e.e.e.e.e.e.e.e.e.e.e.e.e.e.e.e.e.e.e.e.e.e.",
"e.e.e.e.e.e.e.e.e.e.e.e.e.e.e.e.e.e.e.e.e.e.e.o     O B U I b v x x x v I I I I D I L w O     e.e.e.e.e.e.e.e.e.e.e.e.e.e.e.e.e.e.e.e.e.e.e.e.e.",
"e.e.e.e.e.e.e.e.e.e.e.e.e.e.e.e.e.e.e.e.e.e.e.o     O N U I b s i i i z b I I I v I L w +     e.e.e.e.e.e.e.e.e.e.e.e.e.e.e.e.e.e.e.e.e.e.e.e.e.",
"e.e.e.e.e.e.e.e.e.e.e.e.e.e.e.e.e.e.e.e.e.e.e.o     O N D D b s i i i z b b b b b b L w O     e.e.e.e.e.e.e.e.e.e.e.e.e.e.e.e.e.e.e.e.e.e.e.e.e.",
"e.e.e.e.e.e.e.e.e.e.e.e.e.e.e.e.e.e.e.e.e.e.e.O .   + M D b b s i i a c U Y U U U b L 0 + .   e.e.e.e.e.e.e.e.e.e.e.e.e.e.e.e.e.e.e.e.e.e.e.e.e.",
"e.e.e.e.e.e.e.e.e.e.e.e.e.e.e.e.e.e.e.e.e.e.e.; - - : n x v x s s i k J X.O.o.T U b H 0 : ; - e.e.e.e.e.e.e.e.e.e.e.e.e.e.e.e.e.e.e.e.e.e.e.e.e.",
"e.e.e.e.e.e.e.e.e.e.e.e.e.e.e.e.e.e.e.$ o o = &.| | L j a i i x b b U %.2.3.2.@.H U D L ] [ *./ # X o $ e.e.e.e.e.e.e.e.e.e.e.e.e.e.e.e.e.e.e.e.",
"e.e.e.e.e.e.e.e.e.e.e.e.e.e.e.e.e.e.e.o     & | P K G a i i i x b b Y >.6.8.6.;.L D U H U K } ` #     o e.e.e.e.e.e.e.e.e.e.e.e.e.e.e.e.e.e.e.e.",
"e.e.e.e.e.e.e.e.e.e.e.e.e.e.e.e.e.e.e.o     & ] I I I i i i a S H K { 1.9.q.8.;.T U b b b I K _ +     o e.e.e.e.e.e.e.e.e.e.e.e.e.e.e.e.e.e.e.e.",
"e.e.e.e.e.e.e.e.e.e.e.e.e.e.e.e.e.e.e.o     & ] I I b s i i a J X.} #.4.q.q.8.;.P I I I b I K _ +     o e.e.e.e.e.e.e.e.e.e.e.e.e.e.e.e.e.e.e.e.",
"e.e.e.e.e.e.e.e.e.e.e.e.e.e.e.e.e.e.e.o     & ] U I b a i i g @.2.3.5.8.q.w.8.;.{ U I b I I L _ O     o e.e.e.e.e.e.e.e.e.e.e.e.e.e.e.e.e.e.e.e.",
"e.e.e.e.e.e.e.e.e.e.e.e.e.e.e.e.e.e.e.o     & ] I I b i i i j :.6.8.q.q.q.w.8.:.T U I I I I P _ #     o e.e.e.e.e.e.e.e.e.e.e.e.e.e.e.e.e.e.e.e.",
"e.e.e.e.e.e.e.e.e.e.e.e.e.e.e.e.e.e.e.o     & ] I I b i i i j >.8.8.q.q.w.w.8.;.P U I I b I L _ +     o e.e.e.e.e.e.e.e.e.e.e.e.e.e.e.e.e.e.e.e.",
"e.e.e.e.e.e.e.e.e.e.e.e.e.e.e.e.e.e.e.o     & ] U I b s i i f $.3.5.6.9.q.w.9.;.P U b I I I L _ +     o e.e.e.e.e.e.e.e.e.e.e.e.e.e.e.e.e.e.e.e.",
"e.e.e.e.e.e.e.e.e.e.e.e.e.e.e.e.e.e.e.o     & ] I I b i i i a L O.+.=.4.9.q.8.;.P H D I b I K _ #     o e.e.e.e.e.e.e.e.e.e.e.e.e.e.e.e.e.e.e.e.",
"e.e.e.e.e.e.e.e.e.e.e.e.e.e.e.e.e.e.e.o     & ] I I b i i i a v H U { 1.9.q.8.;.P H v I I I P _ +     o e.e.e.e.e.e.e.e.e.e.e.e.e.e.e.e.e.e.e.e.",
"e.e.e.e.e.e.e.e.e.e.e.e.e.e.e.e.e.e.e.o     & ] I I b i i i a v H U X.,.9.q.8.:.T U v I I b P _ +     o e.e.e.e.e.e.e.e.e.e.e.e.e.e.e.e.e.e.e.e.",
"e.e.e.e.e.e.e.e.e.e.e.e.e.e.e.e.e.e.e.o     & ] D b b a i i a S P T O.4.9.q.8.;.T H D b I I L _ +     o e.e.e.e.e.e.e.e.e.e.e.e.e.e.e.e.e.e.e.e.",
"e.e.e.e.e.e.e.e.e.e.e.e.e.e.e.e.e.e.e.o     & ] U b b i i i g o.;.>.<.8.q.q.8.;.P D D D v D K _ +     o e.e.e.e.e.e.e.e.e.e.e.e.e.e.e.e.e.e.e.e.",
"e.e.e.e.e.e.e.e.e.e.e.e.e.e.e.e.e.e.e.o     & ] U b b i i i j -.6.8.8.q.w.w.8.>.P H v D I I P _ +     o e.e.e.e.e.e.e.e.e.e.e.e.e.e.e.e.e.e.e.e.",
"e.e.e.e.e.e.e.e.e.e.e.e.e.e.e.e.e.e.e.o     & ] I b b s i i j >.8.9.q.w.w.w.8.;.P U I I I b K _ #     o e.e.e.e.e.e.e.e.e.e.e.e.e.e.e.e.e.e.e.e.",
"e.e.e.e.e.e.e.e.e.e.e.e.e.e.e.e.e.e.e.o     & ] D b b i i i j -.5.8.8.0.q.w.8.;.P D v v v v K ) +     o e.e.e.e.e.e.e.e.e.e.e.e.e.e.e.e.e.e.e.e.",
"e.e.e.e.e.e.e.e.e.e.e.e.e.e.e.e.e.e.e.o     & ] D I b i i i g o.-.:.,.7.q.w.8.$.F c l l l l F ! +     o e.e.e.e.e.e.e.e.e.e.e.e.e.e.e.e.e.e.e.e.",
"e.e.e.e.e.e.e.e.e.e.e.e.e.e.e.e.e.e.e.o     & ] D I b s i i a S K T o.1.9.q.8.+.j a i i i i j y +     o e.e.e.e.e.e.e.e.e.e.e.e.e.e.e.e.e.e.e.e.",
"e.e.e.e.e.e.e.e.e.e.e.e.e.e.e.e.e.e.e.o     & ] D I b i i i i x D I T <.8.q.8.+.j a i i i i j y +     o e.e.e.e.e.e.e.e.e.e.e.e.e.e.e.e.e.e.e.e.",
"e.e.e.e.e.e.e.e.e.e.e.e.e.e.e.e.e.e.e.o     & ] I I b i i i i x I I P <.8.q.8.+.j a i i i i h y + .   o e.e.e.e.e.e.e.e.e.e.e.e.e.e.e.e.e.e.e.e.",
"e.e.e.e.e.e.e.e.e.e.e.e.e.e.e.e.e.e.e.o     & ] D b b s i i i x I I L >.9.q.8.+.j a i i i i h y + .   o e.e.e.e.e.e.e.e.e.e.e.e.e.e.e.e.e.e.e.e.",
"e.e.e.e.e.e.e.e.e.e.e.e.e.e.e.e.e.e.e.o     & ] D I b i i i i x b I L <.9.q.8.+.h a i i i i d y %     o e.e.e.e.e.e.e.e.e.e.e.e.e.e.e.e.e.e.e.e.",
"e.e.e.e.e.e.e.e.e.e.e.e.e.e.e.e.e.e.e.o     & ] D I x s i i i x I I T <.8.0.6.+.h a i i i i h y +     o e.e.e.e.e.e.e.e.e.e.e.e.e.e.e.e.e.e.e.e.",
"e.e.e.e.e.e.e.e.e.e.e.e.e.e.e.e.e.e.e.o     & ] D I b a i i i x b b L >.8.q.8.+.V a i i i i h y +     o e.e.e.e.e.e.e.e.e.e.e.e.e.e.e.e.e.e.e.e.",
"e.e.e.e.e.e.e.e.e.e.e.e.e.e.e.e.e.e.e.o     & ] D I b s i i s z I D T <.9.q.8.+.h a i i i i h y %     o e.e.e.e.e.e.e.e.e.e.e.e.e.e.e.e.e.e.e.e.",
"e.e.e.e.e.e.e.e.e.e.e.e.e.e.e.e.e.e.e.o     * [ I I b i i i i x b I P <.8.0.8.+.h a i i i i h y + .   o e.e.e.e.e.e.e.e.e.e.e.e.e.e.e.e.e.e.e.e.",
"e.e.e.e.e.e.e.e.e.e.e.e.e.e.e.e.e.e.e.o     * ] I b b i i i i x D I K <.9.9.8.+.h a i i i i h y +     o e.e.e.e.e.e.e.e.e.e.e.e.e.e.e.e.e.e.e.e.",
"e.e.e.e.e.e.e.e.e.e.e.e.e.e.e.e.e.e.e.o     & ] D I b s i i i x b I T <.8.q.8.+.j a i i i i d y +     o e.e.e.e.e.e.e.e.e.e.e.e.e.e.e.e.e.e.e.e.",
"e.e.e.e.e.e.e.e.e.e.e.e.e.e.e.e.e.e.e.o     & ] D I b i i i i z x I J <.8.q.8.+.V a i i i i h y +     o e.e.e.e.e.e.e.e.e.e.e.e.e.e.e.e.e.e.e.e.",
"e.e.e.e.e.e.e.e.e.e.e.e.e.e.e.e.e.e.e.o     & ] D I x s i i i i i a j =.8.q.8.+.h a i i i i h y +     o e.e.e.e.e.e.e.e.e.e.e.e.e.e.e.e.e.e.e.e.",
"e.e.e.e.e.e.e.e.e.e.e.e.e.e.e.e.e.e.e.o     & ] D b b i i i i i i i j =.8.9.8.+.h a i i i i h y %     o e.e.e.e.e.e.e.e.e.e.e.e.e.e.e.e.e.e.e.e.",
"e.e.e.e.e.e.e.e.e.e.e.e.e.e.e.e.e.e.e.o     & ] D D b s i i i i i i j #.8.q.8.+.j a i i i i h y + .   o e.e.e.e.e.e.e.e.e.e.e.e.e.e.e.e.e.e.e.e.",
"e.e.e.e.e.e.e.e.e.e.e.e.e.e.e.e.e.e.e.o     & ] D D b i i i i i i i h =.8.q.8.+.V a i i i i h y +     o e.e.e.e.e.e.e.e.e.e.e.e.e.e.e.e.e.e.e.e.",
"e.e.e.e.e.e.e.e.e.e.e.e.e.e.e.e.e.e.e.o     & ] D D v i i i i i i i j =.8.9.8.+.j a i i i i d y +     o e.e.e.e.e.e.e.e.e.e.e.e.e.e.e.e.e.e.e.e.",
"e.e.e.e.e.e.e.e.e.e.e.e.e.e.e.e.e.e.e.o     & ] D D v i i i i i i i h =.8.q.8.+.j a i i i i h y +     o e.e.e.e.e.e.e.e.e.e.e.e.e.e.e.e.e.e.e.e.",
"e.e.e.e.e.e.e.e.e.e.e.e.e.e.e.e.e.e.e.o     & ] D D v i i i i i i i j =.8.0.8.+.h a i i i i h y + .   o e.e.e.e.e.e.e.e.e.e.e.e.e.e.e.e.e.e.e.e.",
"e.e.e.e.e.e.e.e.e.e.e.e.e.e.e.e.e.e.e.o     & ] D D v s i i i i i i j =.8.0.8.+.h a i i i i h y +     o e.e.e.e.e.e.e.e.e.e.e.e.e.e.e.e.e.e.e.e.",
"e.e.e.e.e.e.e.e.e.e.e.e.e.e.e.e.e.e.e.o     & ] D b b i i i i i i i j =.8.q.8.+.h p i i i i h y +     o e.e.e.e.e.e.e.e.e.e.e.e.e.e.e.e.e.e.e.e.",
"e.e.e.e.e.e.e.e.e.e.e.e.e.e.e.e.e.e.e.o     & ] D b v s i i i i i i g =.8.q.8.+.j a i i i i h y +     o e.e.e.e.e.e.e.e.e.e.e.e.e.e.e.e.e.e.e.e.",
"e.e.e.e.e.e.e.e.e.e.e.e.e.e.e.e.e.e.e.o     & ] D I b i i i i i i i h =.8.q.8.+.j a i i i i d y %     o e.e.e.e.e.e.e.e.e.e.e.e.e.e.e.e.e.e.e.e.",
"e.e.e.e.e.e.e.e.e.e.e.e.e.e.e.e.e.e.e.o     & ] D I b i i i i i i i h =.8.q.6.+.V a i i i i h y %     o e.e.e.e.e.e.e.e.e.e.e.e.e.e.e.e.e.e.e.e.",
"e.e.e.e.e.e.e.e.e.e.e.e.e.e.e.e.e.e.e.o     & ] D I b s i i i i i i h =.8.q.8...h a i i i i h y +     o e.e.e.e.e.e.e.e.e.e.e.e.e.e.e.e.e.e.e.e.",
"e.e.e.e.e.e.e.e.e.e.e.e.e.e.e.e.e.e.e.o     & ] D I I i i i i i i i j =.8.0.8. .h a i i i i h y +     o e.e.e.e.e.e.e.e.e.e.e.e.e.e.e.e.e.e.e.e.",
"e.e.e.e.e.e.e.e.e.e.e.e.e.e.e.e.e.e.e.o     = ] D I b i i i i i i i j =.8.q.8.O.j a i i i i h y +     o e.e.e.e.e.e.e.e.e.e.e.e.e.e.e.e.e.e.e.e.",
"e.e.e.e.e.e.e.e.e.e.e.e.e.e.e.e.e.e.e.$ .   = ' { L J g i i a g g h C #.5.6.3.o.h a a a u u M W #   o $ e.e.e.e.e.e.e.e.e.e.e.e.e.e.e.e.e.e.e.e.",
"e.e.e.e.e.e.e.e.e.e.e.e.e.e.e.e.e.e.e.e.e.e.e.6 5 5 7 r l l c { O. . .O.O.+.o.G p i p r 2 , 1 e.e.e.e.e.e.e.e.e.e.e.e.e.e.e.e.e.e.e.e.e.e.e.e.e.",
"e.e.e.e.e.e.e.e.e.e.e.e.e.e.e.e.e.e.e.e.e.e.e.@ X . % M D I Y >.5.6.5.[ C V g a i i d 7 # O X e.e.e.e.e.e.e.e.e.e.e.e.e.e.e.e.e.e.e.e.e.e.e.e.e.",
"e.e.e.e.e.e.e.e.e.e.e.e.e.e.e.e.e.e.e.e.e.e.e.X     O M H D T <.8.9.5.} j a a i i i u 8 +     e.e.e.e.e.e.e.e.e.e.e.e.e.e.e.e.e.e.e.e.e.e.e.e.e.",
"e.e.e.e.e.e.e.e.e.e.e.e.e.e.e.e.e.e.e.e.e.e.e.o     O N D I K >.6.8.5.{ g a i i i i h 8 +     e.e.e.e.e.e.e.e.e.e.e.e.e.e.e.e.e.e.e.e.e.e.e.e.e.",
"e.e.e.e.e.e.e.e.e.e.e.e.e.e.e.e.e.e.e.e.e.e.e.o     O B U b Y @.;.;.%.G p i i i i i h 8 O     e.e.e.e.e.e.e.e.e.e.e.e.e.e.e.e.e.e.e.e.e.e.e.e.e.",
"e.e.e.e.e.e.e.e.e.e.e.e.e.e.e.e.e.e.e.e.e.e.e.o     O N U I U T T T Y c a i i i i i V 8 +     e.e.e.e.e.e.e.e.e.e.e.e.e.e.e.e.e.e.e.e.e.e.e.e.e.",
"e.e.e.e.e.e.e.e.e.e.e.e.e.e.e.e.e.e.e.e.e.e.e.o     O N U I I U H H D l i i i i i i u 8 O     e.e.e.e.e.e.e.e.e.e.e.e.e.e.e.e.e.e.e.e.e.e.e.e.e.",
"e.e.e.e.e.e.e.e.e.e.e.e.e.e.e.e.e.e.e.e.e.e.e.o     O ) L L L L L L K Z h h h h d h M 9 O .   e.e.e.e.e.e.e.e.e.e.e.e.e.e.e.e.e.e.e.e.e.e.e.e.e.",
"e.e.e.e.e.e.e.e.e.e.e.e.e.e.e.e.e.e.e.e.e.e.e.e.e.e.e.e.~ Q Q Q Q Q Q e q q q 0 0 0 E e.e.e.e.e.e.e.e.e.e.e.e.e.e.e.e.e.e.e.e.e.e.e.e.e.e.e.e.e.",
"e.e.e.e.e.e.e.e.e.e.e.e.e.e.e.e.e.e.e.e.e.e.e.e.e.e.e.e.+ O O O O O O + O O O O + + + e.e.e.e.e.e.e.e.e.e.e.e.e.e.e.e.e.e.e.e.e.e.e.e.e.e.e.e.e.",
"e.e.e.e.e.e.e.e.e.e.e.e.e.e.e.e.e.e.e.e.e.e.e.e.e.e.e.e.                              e.e.e.e.e.e.e.e.e.e.e.e.e.e.e.e.e.e.e.e.e.e.e.e.e.e.e.e.e.",
"e.e.e.e.e.e.e.e.e.e.e.e.e.e.e.e.e.e.e.e.e.e.e.e.e.e.e.e.                              e.e.e.e.e.e.e.e.e.e.e.e.e.e.e.e.e.e.e.e.e.e.e.e.e.e.e.e.e.",
"e.e.e.e.e.e.e.e.e.e.e.e.e.e.e.e.e.e.e.e.e.e.e.e.e.e.e.e.o $ o o $ o o o $ o o o o o $ e.e.e.e.e.e.e.e.e.e.e.e.e.e.e.e.e.e.e.e.e.e.e.e.e.e.e.e.e.",
"e.e.e.e.e.e.e.e.e.e.e.e.e.e.e.e.e.e.e.e.e.e.e.e.e.e.e.e.e.e.e.e.e.e.e.e.e.e.e.e.e.e.e.e.e.e.e.e.e.e.e.e.e.e.e.e.e.e.e.e.e.e.e.e.e.e.e.e.e.e.e.e."
};
