/* XPM */
static char *coin2[] = {
/* columns rows colors chars-per-pixel */
"16 16 91 1 ",
"  c #050503",
". c #080702",
"X c #080703",
"o c #0C0B06",
"O c #0D0B06",
"+ c #100D03",
"@ c #100E03",
"# c #181504",
"$ c #1C1905",
"% c #1E1907",
"& c #17150A",
"* c #2D2605",
"= c #2F290B",
"- c #332B05",
"; c #332C05",
": c #322A09",
"> c #3B3206",
", c #3B3515",
"< c #453B0B",
"1 c #413B19",
"2 c #4E430C",
"3 c #50430E",
"4 c #494222",
"5 c #DDC217",
"6 c #DDC219",
"7 c #EDCC02",
"8 c #EDCD02",
"9 c #EDCD04",
"0 c #EDCD08",
"q c #ECCD09",
"w c #EECF08",
"e c #EFCF08",
"r c #F6D507",
"t c #F1D008",
"y c #F1D109",
"u c #F0D00B",
"i c #F7D708",
"p c #F5D50B",
"a c #F3D30C",
"s c #F3D30D",
"d c #F1D20E",
"f c #F3D40D",
"g c #F4D40C",
"h c #F4D40D",
"j c #F5D50F",
"k c #F6D70F",
"l c #F9D90A",
"z c #F9D90B",
"x c #EFD212",
"c c #EDD017",
"v c #F2D416",
"b c #F7D815",
"n c #F8D813",
"m c #FADA12",
"M c #F8D914",
"N c #F9DA15",
"B c #FADA17",
"V c #FBDA17",
"C c #FADC15",
"Z c #FBDC15",
"A c #FADC16",
"S c #FBDC18",
"D c #F9DB1D",
"F c #FEDF1D",
"G c #FEDF1E",
"H c #E4CA28",
"J c #F0D321",
"K c #F4D824",
"L c #FBDE20",
"P c #FDDF20",
"I c #FCDE27",
"U c #FDE026",
"Y c #FEE029",
"T c #FCE132",
"R c #FBE33B",
"E c #FCE339",
"W c #FDE339",
"Q c #FDE33A",
"! c #F4DE4B",
"~ c #FBE547",
"^ c #F8E34E",
"/ c #FCE754",
"( c #FCE755",
") c #F9E358",
"_ c #FDE95E",
"` c #FBE76B",
"' c #F6E576",
"] c #F9E771",
"[ c #FAE871",
"{ c #F6E578",
"} c None",
/* pixels */
"}}}}}}XXX.}}}}}}",
"}}}}}1{''!2}}}}}",
"}}}},)q00bI<}}}}",
"}}}&`uUTYsVI%}}}",
"}}}4^v~_RjMP3}}}",
"}}o[wE(ziAySg+}}",
"}}o[eQ(liAySp+}}",
"}}o[eQ(liAySp+}}",
"}}o[eQ(liAySp+}}",
"}}o[wQ(liCySp+}}",
"}}O]eW/ziZySf@}}",
"}}}=DdLrmhNk-}}}",
"}}}#KtGFGaBx$}}}",
"}}}}*J987nc;}}}}",
"}}}}}:H556>}}}}}",
"}}}}}}    }}}}}}"
};
