/* XPM */
static char *a8a423acf9eb4569ca71236c30930d7d3DVYurArEStTxefD[] = {
/* columns rows colors chars-per-pixel */
"16 16 133 2 ",
"   c None",
".  c #070400",
"X  c #060500",
"o  c #060501",
"O  c #0A0500",
"+  c #0E0B05",
"@  c #0E0B06",
"#  c #0D0B08",
"$  c #120F03",
"%  c #151000",
"&  c #171000",
"*  c #141204",
"=  c #10100A",
"-  c #2E2605",
";  c #2C2507",
":  c #302A09",
">  c #3C340F",
",  c #393110",
"<  c #433608",
"1  c #4E4307",
"2  c #4B4218",
"3  c #4D4519",
"4  c #685A0D",
"5  c #62571F",
"6  c #79691B",
"7  c #494427",
"8  c #4C4628",
"9  c #776E38",
"0  c #7F763E",
"q  c #DDC009",
"w  c #E2C409",
"e  c #E2C40A",
"r  c #E5C70A",
"t  c #E6C80E",
"y  c #F5D506",
"u  c #F5D507",
"i  c #F6D507",
"p  c #F6D607",
"a  c #F0D009",
"s  c #F1D00A",
"d  c #F0D00B",
"f  c #F6D608",
"g  c #F2D30D",
"h  c #F4D60E",
"j  c #F9D90A",
"k  c #F9D90B",
"l  c #FAD90B",
"z  c #E1C71D",
"x  c #E8CC1C",
"c  c #EDD01C",
"v  c #F6D611",
"b  c #F5D713",
"n  c #F7D713",
"m  c #F5D614",
"M  c #F6D714",
"N  c #F7D813",
"B  c #F6D814",
"V  c #F9D915",
"C  c #FBDC16",
"Z  c #FCDC15",
"A  c #F5D81E",
"S  c #FBDB19",
"D  c #FBDC18",
"F  c #FCDE1A",
"G  c #F9DC1C",
"H  c #ECD022",
"J  c #EED322",
"K  c #F0D423",
"L  c #FCDF21",
"P  c #FDDF21",
"I  c #FEDF20",
"U  c #FFDF20",
"Y  c #FEDF21",
"T  c #FEDF23",
"R  c #FBDD24",
"E  c #FBDD25",
"W  c #FBDD26",
"Q  c #FDDF24",
"!  c #FEDF24",
"~  c #FCDD26",
"^  c #F2D62B",
"/  c #F7DC2C",
"(  c #FADD2C",
")  c #E5CE34",
"_  c #F5DB37",
"`  c #F7DC36",
"'  c #FADE31",
"]  c #FADF36",
"[  c #FADF37",
"{  c #F4DB39",
"}  c #FEE020",
"|  c #FEE021",
" . c #FEE022",
".. c #FEE023",
"X. c #FDE024",
"o. c #FEE024",
"O. c #FEE125",
"+. c #FEE127",
"@. c #FDE22C",
"#. c #FCE12E",
"$. c #FCE132",
"%. c #FCE234",
"&. c #FCE235",
"*. c #FDE236",
"=. c #FEE434",
"-. c #FDE53E",
";. c #FEE43F",
":. c #F2DF5B",
">. c #FCE342",
",. c #FDE542",
"<. c #FAE345",
"1. c #FBE345",
"2. c #FEE649",
"3. c #FEE54A",
"4. c #FDE64A",
"5. c #FEE64A",
"6. c #FEE853",
"7. c #FEE956",
"8. c #FEE95E",
"9. c #FEE95F",
"0. c #EDDD69",
"q. c #EEDD68",
"w. c #EEDD69",
"e. c #EFDD69",
"r. c #EDDD6D",
"t. c #EEDD6C",
"y. c #F9E460",
"u. c #F9E562",
"i. c #FEEB65",
"p. c #FEEC66",
"a. c #FFEB69",
"s. c #FFEB6A",
"d. c #F9E982",
/* pixels */
"            = = = =             ",
"        * 9 r.0.e.0.5 &         ",
"      7 d.y.&.R ~ U ( ` ,       ",
"    8 :.*.m a a a a m } K 2     ",
"  $ d.*.S v ~ $.$.} h D } { .   ",
"  0 y.m m =.5.<.<.G F B -.$.6   ",
"= r.] a } 5.9.l l u Z O.p.O.x @ ",
"= 0.~ a U 5.9.l l u Z ~ p.O.r @ ",
"= 0.~ a L 5.9.l l u Z O.p.O.r @ ",
"= 0.E a L 2.9.l l u Z ~ i.O.r @ ",
"  3 / V f @.#.u u Z } 7.>.A <   ",
"  & { U S v ~ U L } 6.*.} J O   ",
"    : J } -.a.a.a.a.,.} t ;     ",
"      , ) ^ U O.} O.c z ;       ",
"        . 4 e e e q 1 .         ",
"            # # # #             "
};
