/* XPM */
static char *coin5[] = {
/* columns rows colors chars-per-pixel */
"72 72 131 2 ",
"   c #020100",
".  c #0B0600",
"X  c #0C0902",
"o  c #0A0A0A",
"O  c #140C00",
"+  c #180E00",
"@  c #100F0F",
"#  c #161200",
"$  c #1B1300",
"%  c #131313",
"&  c #231400",
"*  c #2F2200",
"=  c #302300",
"-  c #352A00",
";  c #433200",
":  c #726301",
">  c #7F6E04",
",  c #70620A",
"<  c #7A6D1A",
"1  c #756B2C",
"2  c #887300",
"3  c #8F7C0B",
"4  c #847722",
"5  c #867820",
"6  c #B9A216",
"7  c #B6A11D",
"8  c #AF9E34",
"9  c #AA9C3A",
"0  c #B4A025",
"q  c #B4A22E",
"w  c #B6A330",
"e  c #B2A23D",
"r  c #BFAD3A",
"t  c #C1AA0D",
"y  c #D4BA1C",
"u  c #D9BF1F",
"i  c #CAB428",
"p  c #C8B432",
"a  c #C6B438",
"s  c #D4BF37",
"d  c #ECCC01",
"f  c #E9CA0C",
"g  c #EED008",
"h  c #F1D30A",
"j  c #E3C613",
"k  c #E7CA15",
"l  c #EACC13",
"z  c #E1C51B",
"x  c #E5C91A",
"c  c #E9CC19",
"v  c #EED113",
"b  c #F6D712",
"n  c #F6D816",
"m  c #F9DA15",
"M  c #F4D51B",
"N  c #FEDF1D",
"B  c #FFE01D",
"V  c #DEC531",
"C  c #D7C139",
"Z  c #E6CB25",
"A  c #E5CD2D",
"S  c #F3D625",
"D  c #F5D921",
"F  c #FDDF24",
"G  c #F1D62B",
"H  c #F7DC2D",
"J  c #FBDF2B",
"K  c #E1CA36",
"L  c #EFD533",
"P  c #ECD43D",
"I  c #F6DC33",
"U  c #FADE34",
"Y  c #F5DC3B",
"T  c #F8DF3B",
"R  c #FEE020",
"E  c #FCE02F",
"W  c #FBE037",
"Q  c #FCE23E",
"!  c #C3B345",
"~  c #C2B24D",
"^  c #CCBA4C",
"/  c #C5B75C",
"(  c #CBBF64",
")  c #D9C646",
"_  c #DEC845",
"`  c #D3C048",
"'  c #D6C550",
"]  c #D8C651",
"[  c #D4C559",
"{  c #EED742",
"}  c #EFD844",
"|  c #E8D34D",
" . c #F6DE43",
".. c #F8DF42",
"X. c #F6DE4B",
"o. c #E7D254",
"O. c #E9D453",
"+. c #E4D25F",
"@. c #F2DB53",
"#. c #F2DE58",
"$. c #FAE147",
"%. c #FBE34C",
"&. c #F6E153",
"*. c #FAE254",
"=. c #F7E15F",
"-. c #FBE45D",
";. c #FFEC5D",
":. c #D4C672",
">. c #E4D161",
",. c #F6E162",
"<. c #FCE666",
"1. c #FFE965",
"2. c #FAE66D",
"3. c #FFEC6B",
"4. c #FFF36D",
"5. c #F9E673",
"6. c #FFEE71",
"7. c #F7E57A",
"8. c #FFF374",
"9. c #FFF37C",
"0. c #F9E780",
"q. c #FDEC8B",
"w. c #FFF284",
"e. c #FFF28D",
"r. c #FFF195",
"t. c #FFF19A",
"y. c #FEEFA3",
"u. c #FEEFAA",
"i. c #FFF0A2",
"p. c #FEF0A9",
"a. c None",
/* pixels */
"a.a.a.a.a.a.a.a.a.a.a.a.a.a.a.a.a.a.a.a.a.a.a.a.a.a.a.a.a.a.a.a.a.a.a.a.a.a.a.a.a.a.a.a.a.a.a.a.a.a.a.a.a.a.a.a.a.a.a.a.a.a.a.a.a.a.a.a.a.a.a.a.",
"a.a.a.a.a.a.a.a.a.a.a.a.a.a.a.a.a.a.a.a.a.a.a.a.a.a.a.a.o   o     o o   o     o   o o a.a.a.a.a.a.a.a.a.a.a.a.a.a.a.a.a.a.a.a.a.a.a.a.a.a.a.a.a.",
"a.a.a.a.a.a.a.a.a.a.a.a.a.a.a.a.a.a.a.a.a.a.a.a.a.a.a.a.                              a.a.a.a.a.a.a.a.a.a.a.a.a.a.a.a.a.a.a.a.a.a.a.a.a.a.a.a.a.",
"a.a.a.a.a.a.a.a.a.a.a.a.a.a.a.a.a.a.a.a.a.a.a.a.a.a.a.a.. . . . . . . . . . . . X . X a.a.a.a.a.a.a.a.a.a.a.a.a.a.a.a.a.a.a.a.a.a.a.a.a.a.a.a.a.",
"a.a.a.a.a.a.a.a.a.a.a.a.a.a.a.a.a.a.a.a.a.a.a.a.a.a.a.a., : : : : : : : : : : : : : , a.a.a.a.a.a.a.a.a.a.a.a.a.a.a.a.a.a.a.a.a.a.a.a.a.a.a.a.a.",
"a.a.a.a.a.a.a.a.a.a.a.a.a.a.a.a.a.a.a.a.a.a.a.% o . $ ( O.{ { { { { { { { { { { { { | 9 $   o a.a.a.a.a.a.a.a.a.a.a.a.a.a.a.a.a.a.a.a.a.a.a.a.a.",
"a.a.a.a.a.a.a.a.a.a.a.a.a.a.a.a.a.a.a.a.a.a.a.o     + [ ..E J J E E E J J J J J W U P q O     a.a.a.a.a.a.a.a.a.a.a.a.a.a.a.a.a.a.a.a.a.a.a.a.a.",
"a.a.a.a.a.a.a.a.a.a.a.a.a.a.a.a.a.a.a.a.a.a.a.o     + ' Y B F N N B B R B B R B R R H 0 O     a.a.a.a.a.a.a.a.a.a.a.a.a.a.a.a.a.a.a.a.a.a.a.a.a.",
"a.a.a.a.a.a.a.a.a.a.a.a.a.a.a.a.a.a.a.a.a.a.a.o     + ' Y N F R F R B N m m m B B R T 0 X     a.a.a.a.a.a.a.a.a.a.a.a.a.a.a.a.a.a.a.a.a.a.a.a.a.",
"a.a.a.a.a.a.a.a.a.a.a.a.a.a.a.a.a.a.a.a.a.a.a.o     $ ' W F R R N B B h g d d b B R I 0 O     a.a.a.a.a.a.a.a.a.a.a.a.a.a.a.a.a.a.a.a.a.a.a.a.a.",
"a.a.a.a.a.a.a.a.a.a.a.a.a.a.a.a.a.a.a.a.a.a.a.o     + ' T N R F R B B b d d d h R R I 0 O     a.a.a.a.a.a.a.a.a.a.a.a.a.a.a.a.a.a.a.a.a.a.a.a.a.",
"a.a.a.a.a.a.a.a.a.a.a.a.a.a.a.a.a.a.a.a.a.a.a.O   . $ ) I F R R E E E v d g d h B R H 7 + .   a.a.a.a.a.a.a.a.a.a.a.a.a.a.a.a.a.a.a.a.a.a.a.a.a.",
"a.a.a.a.a.a.a.a.a.a.a.a.a.a.a.a.a.a.a.a.a.a.a.- - - ; K E F E Q %.&.$.G v g d b N N R 6 ; - - a.a.a.a.a.a.a.a.a.a.a.a.a.a.a.a.a.a.a.a.a.a.a.a.a.",
"a.a.a.a.a.a.a.a.a.a.a.a.a.a.a.a.a.a.a.% o X - :.+.| P U J F T ;.9.9.8.%.E B B b f d g Z { O.o./ $ o o % a.a.a.a.a.a.a.a.a.a.a.a.a.a.a.a.a.a.a.a.",
"a.a.a.a.a.a.a.a.a.a.a.a.a.a.a.a.a.a.a.o     * >. .J J J F J Q 3.e.r.w.<.E B B b d d d v E W Y ` +     o a.a.a.a.a.a.a.a.a.a.a.a.a.a.a.a.a.a.a.a.",
"a.a.a.a.a.a.a.a.a.a.a.a.a.a.a.a.a.a.a.o   . = o.U F N F N J ..6.t.i.r.2.$.E F M f d d g B R E C O     o a.a.a.a.a.a.a.a.a.a.a.a.a.a.a.a.a.a.a.a.",
"a.a.a.a.a.a.a.a.a.a.a.a.a.a.a.a.a.a.a.o     = O.U N F F N J ..6.r.p.t.7.#. .T G f d d h N F J C O     o a.a.a.a.a.a.a.a.a.a.a.a.a.a.a.a.a.a.a.a.",
"a.a.a.a.a.a.a.a.a.a.a.a.a.a.a.a.a.a.a.o     = O.U N N R R J ..6.t.p.t.r.w.9.4.$.f d d h B F J C O     o a.a.a.a.a.a.a.a.a.a.a.a.a.a.a.a.a.a.a.a.",
"a.a.a.a.a.a.a.a.a.a.a.a.a.a.a.a.a.a.a.o   . = O.U F F N F J ..6.t.p.p.i.i.r.w.=.c d d h B F F s O     o a.a.a.a.a.a.a.a.a.a.a.a.a.a.a.a.a.a.a.a.",
"a.a.a.a.a.a.a.a.a.a.a.a.a.a.a.a.a.a.a.o     = o.U B B F B J ..6.t.p.p.i.i.r.e.=.c d d h B F F C O     o a.a.a.a.a.a.a.a.a.a.a.a.a.a.a.a.a.a.a.a.",
"a.a.a.a.a.a.a.a.a.a.a.a.a.a.a.a.a.a.a.o     = O.U R R R F J ..6.t.p.t.t.e.w.8.%.l d d h B F F C O     o a.a.a.a.a.a.a.a.a.a.a.a.a.a.a.a.a.a.a.a.",
"a.a.a.a.a.a.a.a.a.a.a.a.a.a.a.a.a.a.a.o     = O.U R R R B J ..6.r.p.t.0.,.*.%.I f d d h B F J C O     o a.a.a.a.a.a.a.a.a.a.a.a.a.a.a.a.a.a.a.a.",
"a.a.a.a.a.a.a.a.a.a.a.a.a.a.a.a.a.a.a.o   . = O.U B R B R J ..6.t.i.r.2...U E M g d d h B F J C O     o a.a.a.a.a.a.a.a.a.a.a.a.a.a.a.a.a.a.a.a.",
"a.a.a.a.a.a.a.a.a.a.a.a.a.a.a.a.a.a.a.o     = o.U B R N F J ..6.r.i.r.2.T F E n d d d h N F F C O     o a.a.a.a.a.a.a.a.a.a.a.a.a.a.a.a.a.a.a.a.",
"a.a.a.a.a.a.a.a.a.a.a.a.a.a.a.a.a.a.a.o     = o.U F N F F J T 6.t.i.t.5.&...U S f d d h B R F C O     o a.a.a.a.a.a.a.a.a.a.a.a.a.a.a.a.a.a.a.a.",
"a.a.a.a.a.a.a.a.a.a.a.a.a.a.a.a.a.a.a.o     = O.U N F N R J ..6.t.p.t.q.6.1.1.Q l d d h B R J C O     o a.a.a.a.a.a.a.a.a.a.a.a.a.a.a.a.a.a.a.a.",
"a.a.a.a.a.a.a.a.a.a.a.a.a.a.a.a.a.a.a.o   . = o.U F N F N J  .6.r.p.p.t.t.r.w.*.c d d h B R E C O     o a.a.a.a.a.a.a.a.a.a.a.a.a.a.a.a.a.a.a.a.",
"a.a.a.a.a.a.a.a.a.a.a.a.a.a.a.a.a.a.a.o     = O.U N B B F J ..6.t.p.p.p.p.t.e.=.c d d h B R F C O     o a.a.a.a.a.a.a.a.a.a.a.a.a.a.a.a.a.a.a.a.",
"a.a.a.a.a.a.a.a.a.a.a.a.a.a.a.a.a.a.a.o     = O.U N N N N J ..3.r.p.p.t.r.r.9.*.l d d h N F F C O     o a.a.a.a.a.a.a.a.a.a.a.a.a.a.a.a.a.a.a.a.",
"a.a.a.a.a.a.a.a.a.a.a.a.a.a.a.a.a.a.a.o     = _ S b b b b M L 3.r.p.t.q.5.1.-.Y l d d h B F J C O     o a.a.a.a.a.a.a.a.a.a.a.a.a.a.a.a.a.a.a.a.",
"a.a.a.a.a.a.a.a.a.a.a.a.a.a.a.a.a.a.a.o   . * s k d d d d f Z 1.r.y.r.5.X.W U M d d d h B F J s O     o a.a.a.a.a.a.a.a.a.a.a.a.a.a.a.a.a.a.a.a.",
"a.a.a.a.a.a.a.a.a.a.a.a.a.a.a.a.a.a.a.o     * s k d d d d f Z 1.r.i.r.<.U R B n d d d h B F J C O     o a.a.a.a.a.a.a.a.a.a.a.a.a.a.a.a.a.a.a.a.",
"a.a.a.a.a.a.a.a.a.a.a.a.a.a.a.a.a.a.a.o   . = s j d d d d f Z 1.t.i.e.<.U N B b d d d b B R F C O     o a.a.a.a.a.a.a.a.a.a.a.a.a.a.a.a.a.a.a.a.",
"a.a.a.a.a.a.a.a.a.a.a.a.a.a.a.a.a.a.a.o     * s k d d d d f Z 1.r.i.r.<.W F B b d d d g B R H C O     o a.a.a.a.a.a.a.a.a.a.a.a.a.a.a.a.a.a.a.a.",
"a.a.a.a.a.a.a.a.a.a.a.a.a.a.a.a.a.a.a.o     * s k d d d d f Z 1.r.t.r.<.W R B b g d d h B R J C O     o a.a.a.a.a.a.a.a.a.a.a.a.a.a.a.a.a.a.a.a.",
"a.a.a.a.a.a.a.a.a.a.a.a.a.a.a.a.a.a.a.o     * s k d d d d f Z 1.r.y.e.<.U B B b d d d h B R F C O     o a.a.a.a.a.a.a.a.a.a.a.a.a.a.a.a.a.a.a.a.",
"a.a.a.a.a.a.a.a.a.a.a.a.a.a.a.a.a.a.a.o     * s k d d d d f Z 1.r.i.e.<.W R B b f d d h B R F C O     o a.a.a.a.a.a.a.a.a.a.a.a.a.a.a.a.a.a.a.a.",
"a.a.a.a.a.a.a.a.a.a.a.a.a.a.a.a.a.a.a.o   . * s k d d d d f Z <.r.i.e.<.U R B b d d d h B R H C O     o a.a.a.a.a.a.a.a.a.a.a.a.a.a.a.a.a.a.a.a.",
"a.a.a.a.a.a.a.a.a.a.a.a.a.a.a.a.a.a.a.o     * s j d d d d f Z 1.t.i.e.<.W R B b d d d h B F F C O     o a.a.a.a.a.a.a.a.a.a.a.a.a.a.a.a.a.a.a.a.",
"a.a.a.a.a.a.a.a.a.a.a.a.a.a.a.a.a.a.a.o   . * s k d d d d f Z <.r.i.r.<.W R B b d d d h B F H C O     o a.a.a.a.a.a.a.a.a.a.a.a.a.a.a.a.a.a.a.a.",
"a.a.a.a.a.a.a.a.a.a.a.a.a.a.a.a.a.a.a.o     = s k d d d d f Z <.r.i.r.<.U R B b d d d g B F F C O     o a.a.a.a.a.a.a.a.a.a.a.a.a.a.a.a.a.a.a.a.",
"a.a.a.a.a.a.a.a.a.a.a.a.a.a.a.a.a.a.a.o     = s k d d d d f Z <.r.i.e.<.U B R b d d d g B F F C O     o a.a.a.a.a.a.a.a.a.a.a.a.a.a.a.a.a.a.a.a.",
"a.a.a.a.a.a.a.a.a.a.a.a.a.a.a.a.a.a.a.o     = s k d d d d f Z <.r.i.r.<.W B B b d d d h B F J C O     o a.a.a.a.a.a.a.a.a.a.a.a.a.a.a.a.a.a.a.a.",
"a.a.a.a.a.a.a.a.a.a.a.a.a.a.a.a.a.a.a.o   . = s j d d d d f Z <.r.i.e.<.W B B b d d g h B N J C O     o a.a.a.a.a.a.a.a.a.a.a.a.a.a.a.a.a.a.a.a.",
"a.a.a.a.a.a.a.a.a.a.a.a.a.a.a.a.a.a.a.o     = s k d d d d f Z <.r.i.e.2.U F B b d d d h B R F C O     o a.a.a.a.a.a.a.a.a.a.a.a.a.a.a.a.a.a.a.a.",
"a.a.a.a.a.a.a.a.a.a.a.a.a.a.a.a.a.a.a.o     = s k d d d d f Z 1.t.i.e.<.U N N m d d d h B R E C O     o a.a.a.a.a.a.a.a.a.a.a.a.a.a.a.a.a.a.a.a.",
"a.a.a.a.a.a.a.a.a.a.a.a.a.a.a.a.a.a.a.o     = s k d d d d f Z 1.r.i.e.#.c g d d d d d h B R E C O     o a.a.a.a.a.a.a.a.a.a.a.a.a.a.a.a.a.a.a.a.",
"a.a.a.a.a.a.a.a.a.a.a.a.a.a.a.a.a.a.a.o   . = s k d d d d f Z 1.t.i.w.@.k d d d d d d h B R R C O     o a.a.a.a.a.a.a.a.a.a.a.a.a.a.a.a.a.a.a.a.",
"a.a.a.a.a.a.a.a.a.a.a.a.a.a.a.a.a.a.a.o     * s k d d d d f Z 1.t.y.e.@.k d d d d d d h N F F C O     o a.a.a.a.a.a.a.a.a.a.a.a.a.a.a.a.a.a.a.a.",
"a.a.a.a.a.a.a.a.a.a.a.a.a.a.a.a.a.a.a.o     * s k d d d d f Z <.r.y.w.O.c d d d d d d h B F J C O     o a.a.a.a.a.a.a.a.a.a.a.a.a.a.a.a.a.a.a.a.",
"a.a.a.a.a.a.a.a.a.a.a.a.a.a.a.a.a.a.a.o   . * s j d d d d f Z 1.t.y.e.@.c d d d d d d h B F J s O     o a.a.a.a.a.a.a.a.a.a.a.a.a.a.a.a.a.a.a.a.",
"a.a.a.a.a.a.a.a.a.a.a.a.a.a.a.a.a.a.a.o     * s k d d d d f Z <.t.t.q.@.c d d d d d d h B F F C O     o a.a.a.a.a.a.a.a.a.a.a.a.a.a.a.a.a.a.a.a.",
"a.a.a.a.a.a.a.a.a.a.a.a.a.a.a.a.a.a.a.o   . * s k d d d d f Z <.t.y.w.@.k d d d d d d h B F F C O     o a.a.a.a.a.a.a.a.a.a.a.a.a.a.a.a.a.a.a.a.",
"a.a.a.a.a.a.a.a.a.a.a.a.a.a.a.a.a.a.a.o     * s k d d d d f Z <.r.y.q.@.c d d d d d d h B F J C O     o a.a.a.a.a.a.a.a.a.a.a.a.a.a.a.a.a.a.a.a.",
"a.a.a.a.a.a.a.a.a.a.a.a.a.a.a.a.a.a.a.o     * s k d d d d f Z <.t.y.e.@.c d d d d d d h N F J C O     o a.a.a.a.a.a.a.a.a.a.a.a.a.a.a.a.a.a.a.a.",
"a.a.a.a.a.a.a.a.a.a.a.a.a.a.a.a.a.a.a.o     * s k d d d d f Z <.r.y.w.@.k d d d d d d h N F J s O     o a.a.a.a.a.a.a.a.a.a.a.a.a.a.a.a.a.a.a.a.",
"a.a.a.a.a.a.a.a.a.a.a.a.a.a.a.a.a.a.a.o     * C k d d d d l Z 1.r.y.w.@.c d d d d d d h N F J s O     o a.a.a.a.a.a.a.a.a.a.a.a.a.a.a.a.a.a.a.a.",
"a.a.a.a.a.a.a.a.a.a.a.a.a.a.a.a.a.a.a.@ o X * ^ V z j f d g x *.w.w.9.@.A k l f f d d M L Y  .^ #   o @ a.a.a.a.a.a.a.a.a.a.a.a.a.a.a.a.a.a.a.a.",
"a.a.a.a.a.a.a.a.a.a.a.a.a.a.a.a.a.a.a.a.a.a.a.1 < > 2 u l d k W %.&.&.@.@.#.@.Y M M M y 3 5 5 a.a.a.a.a.a.a.a.a.a.a.a.a.a.a.a.a.a.a.a.a.a.a.a.a.",
"a.a.a.a.a.a.a.a.a.a.a.a.a.a.a.a.a.a.a.a.a.a.a.# . O $ i x d d l c Z A *.w.w.w.;.J F H 6 $ X X a.a.a.a.a.a.a.a.a.a.a.a.a.a.a.a.a.a.a.a.a.a.a.a.a.",
"a.a.a.a.a.a.a.a.a.a.a.a.a.a.a.a.a.a.a.a.a.a.a.X   . + p k d d d f f Z *.e.t.e.1.U R U 7 +     a.a.a.a.a.a.a.a.a.a.a.a.a.a.a.a.a.a.a.a.a.a.a.a.a.",
"a.a.a.a.a.a.a.a.a.a.a.a.a.a.a.a.a.a.a.a.a.a.a.o     + a x d d d d f c %.w.r.w.1.U J I 0 O     a.a.a.a.a.a.a.a.a.a.a.a.a.a.a.a.a.a.a.a.a.a.a.a.a.",
"a.a.a.a.a.a.a.a.a.a.a.a.a.a.a.a.a.a.a.a.a.a.a.o     + a k d d d d f f W ;.3.1.%.J F I 0 X     a.a.a.a.a.a.a.a.a.a.a.a.a.a.a.a.a.a.a.a.a.a.a.a.a.",
"a.a.a.a.a.a.a.a.a.a.a.a.a.a.a.a.a.a.a.a.a.a.a.o     + a x d d d d d f D W Q W W J F I 0 O     a.a.a.a.a.a.a.a.a.a.a.a.a.a.a.a.a.a.a.a.a.a.a.a.a.",
"a.a.a.a.a.a.a.a.a.a.a.a.a.a.a.a.a.a.a.a.a.a.a.o     + a x d d d d d d n F J J F F J I 0 O     a.a.a.a.a.a.a.a.a.a.a.a.a.a.a.a.a.a.a.a.a.a.a.a.a.",
"a.a.a.a.a.a.a.a.a.a.a.a.a.a.a.a.a.a.a.a.a.a.a.o   . + ! V x x x z z Z G I I I Y Y T } 8 +     a.a.a.a.a.a.a.a.a.a.a.a.a.a.a.a.a.a.a.a.a.a.a.a.a.",
"a.a.a.a.a.a.a.a.a.a.a.a.a.a.a.a.a.a.a.a.a.a.a.a.a.a.a.a.e q q q q q w r ! ! ! ! ! ~ ~ a.a.a.a.a.a.a.a.a.a.a.a.a.a.a.a.a.a.a.a.a.a.a.a.a.a.a.a.a.",
"a.a.a.a.a.a.a.a.a.a.a.a.a.a.a.a.a.a.a.a.a.a.a.a.a.a.a.a.O + O O + + O + + + O + + + + a.a.a.a.a.a.a.a.a.a.a.a.a.a.a.a.a.a.a.a.a.a.a.a.a.a.a.a.a.",
"a.a.a.a.a.a.a.a.a.a.a.a.a.a.a.a.a.a.a.a.a.a.a.a.a.a.a.a.    .                         a.a.a.a.a.a.a.a.a.a.a.a.a.a.a.a.a.a.a.a.a.a.a.a.a.a.a.a.a.",
"a.a.a.a.a.a.a.a.a.a.a.a.a.a.a.a.a.a.a.a.a.a.a.a.a.a.a.a.                              a.a.a.a.a.a.a.a.a.a.a.a.a.a.a.a.a.a.a.a.a.a.a.a.a.a.a.a.a.",
"a.a.a.a.a.a.a.a.a.a.a.a.a.a.a.a.a.a.a.a.a.a.a.a.a.a.a.a.@ o o o o @ @ o o o @ o o o % a.a.a.a.a.a.a.a.a.a.a.a.a.a.a.a.a.a.a.a.a.a.a.a.a.a.a.a.a.",
"a.a.a.a.a.a.a.a.a.a.a.a.a.a.a.a.a.a.a.a.a.a.a.a.a.a.a.a.a.a.a.a.a.a.a.a.a.a.a.a.a.a.a.a.a.a.a.a.a.a.a.a.a.a.a.a.a.a.a.a.a.a.a.a.a.a.a.a.a.a.a.a."
};
