/* XPM */
static char *coin6[] = {
/* columns rows colors chars-per-pixel */
"16 16 89 1 ",
"  c gray2",
". c #060505",
"X c #080702",
"o c #080703",
"O c #0D0B06",
"+ c #110D03",
"@ c #181404",
"# c #1D1805",
"$ c #1E1907",
"% c #17140A",
"& c #2D2605",
"* c #2F290B",
"= c #342B05",
"- c #342C05",
"; c #342A09",
": c #3B3206",
"> c #3A3415",
", c #3F3B18",
"< c #453B0B",
"1 c #4F440B",
"2 c #50440E",
"3 c #4A4222",
"4 c #DDC217",
"5 c #DEC217",
"6 c #DDC219",
"7 c #EDCC01",
"8 c #EDCD01",
"9 c #EDCD03",
"0 c #EDCD08",
"q c #EECF08",
"w c #EFCF08",
"e c #EECF09",
"r c #EFD00C",
"t c #F5D507",
"y c #F0D009",
"u c #F1D10A",
"i c #F7D708",
"p c #F4D50B",
"a c #F2D20E",
"s c #F3D40C",
"d c #F3D40D",
"f c #F4D50C",
"g c #F4D40D",
"h c #F5D50E",
"j c #F6D70F",
"k c #F9D90A",
"l c #F9D90B",
"z c #FAD90A",
"x c #EDD017",
"c c #F0D212",
"v c #F2D416",
"b c #F7D815",
"n c #F8D812",
"m c #F8D913",
"M c #FADB12",
"N c #F9DA15",
"B c #FADB16",
"V c #FADC15",
"C c #FBDD18",
"Z c #FBDD19",
"A c #F9DB1C",
"S c #FEDF1D",
"D c #FEDF1E",
"F c #E4CA28",
"G c #F0D422",
"H c #F4D724",
"J c #FBDD20",
"K c #FDDF20",
"L c #FCDE27",
"P c #FDE026",
"I c #FEE029",
"U c #FCE132",
"Y c #FDE339",
"T c #FCE33A",
"R c #FDE33A",
"E c #F4DE4A",
"W c #FCE547",
"Q c #F8E34D",
"! c #FCE753",
"~ c #FCE754",
"^ c #F9E458",
"/ c #FDE95D",
"( c #FAE76B",
") c #F5E576",
"_ c #F6E576",
"` c #F9E871",
"' c #FAE870",
"] c #FAE871",
"[ c None",
/* pixels */
"[[[[[[Xooo[[[[[[",
"[[[[[1E__),[[[[[",
"[[[[<Lb000^>[[[[",
"[[[$LBsIUPr(%[[[",
"[[[2KmhT/WvQ3[[[",
"[[+fZuVil~Re]O[[",
"[[+pZuVik~Rq'O[[",
"[[+pZuVik~Rq'O[[",
"[[+pZuVik~Rq'O[[",
"[[+pZuVil~Rq'O[[",
"[[+gCuViz!Yw`O[[",
"[[[=jNgMtJaA*[[[",
"[[[#cBdDSDyH@[[[",
"[[[[-xn789G&[[[[",
"[[[[[:654F;[[[[[",
"[[[[[[.  .[[[[[["
};
