/* XPM */
static char *coin6[] = {
/* columns rows colors chars-per-pixel */
"72 72 172 2 ",
"   c #020101",
".  c #090600",
"X  c #0E0A01",
"o  c #0B0B0B",
"O  c #140C00",
"+  c #190E00",
"@  c #161201",
"#  c #1E1500",
"$  c #131414",
"%  c #251A00",
"&  c #332A01",
"*  c #3A2F00",
"=  c #403100",
"-  c #443900",
";  c #473F09",
":  c #524500",
">  c #574D07",
",  c #5D4D00",
"<  c #5E540C",
"1  c #464017",
"2  c #46411B",
"3  c #504A18",
"4  c #57511D",
"5  c #675600",
"6  c #716202",
"7  c #716512",
"8  c #7C6E15",
"9  c #7F7117",
"0  c #524C21",
"q  c #595328",
"w  c #72692D",
"e  c #736923",
"r  c #6F693D",
"t  c #716933",
"y  c #7D753D",
"u  c #7B7448",
"i  c #847100",
"p  c #8A7600",
"a  c #8C7900",
"s  c #80700B",
"d  c #8D7B0D",
"f  c #837412",
"g  c #8F7F18",
"h  c #837620",
"j  c #83772B",
"k  c #857822",
"l  c #AF9803",
"z  c #A59009",
"x  c #A99301",
"c  c #A28F18",
"v  c #A39114",
"b  c #A3901B",
"n  c #AC9A15",
"m  c #BCA60D",
"M  c #BDA610",
"N  c #B8A31C",
"B  c #9C8C22",
"V  c #9B8C2D",
"C  c #A79829",
"Z  c #AA9824",
"A  c #A2953A",
"S  c #AB9C38",
"D  c #BEA922",
"F  c #B7A631",
"G  c #B9A731",
"H  c #BBA933",
"J  c #B9A738",
"K  c #C1AB17",
"L  c #C7B01E",
"P  c #D3BA19",
"I  c #D2B917",
"U  c #C7AF20",
"Y  c #C7B022",
"T  c #D2BB29",
"R  c #CFBA35",
"E  c #C2B13F",
"W  c #D0BB36",
"Q  c #ECCC02",
"!  c #EBCC0B",
"~  c #F0CE02",
"^  c #EED007",
"/  c #EFD00A",
"(  c #F5D506",
")  c #F3D40A",
"_  c #F9D90A",
"`  c #E9CD13",
"'  c #E7CC1A",
"]  c #E8CC1A",
"[  c #EDD11E",
"{  c #F5D611",
"}  c #F7D814",
"|  c #FADB14",
" . c #F1D41C",
".. c #F6D91C",
"X. c #FDDE1B",
"o. c #FFE017",
"O. c #FFE01E",
"+. c #DFC72D",
"@. c #DFC82C",
"#. c #E6CB22",
"$. c #E3CA2A",
"%. c #E8CE28",
"&. c #ECD123",
"*. c #EAD029",
"=. c #F3D722",
"-. c #F3D826",
";. c #FEDF22",
":. c #F2D72B",
">. c #F3D82E",
",. c #FBDF2A",
"<. c #E3CB32",
"1. c #E0CA39",
"2. c #ECD335",
"3. c #ECD43B",
"4. c #F5DB34",
"5. c #F9DE35",
"6. c #F5DD3B",
"7. c #F8DF3B",
"8. c #FEE021",
"9. c #FCE02D",
"0. c #FDE234",
"q. c #FDE33A",
"w. c #9F9242",
"e. c #A89B48",
"r. c #A39954",
"t. c #A1985B",
"y. c #B5A544",
"u. c #BAAD5D",
"i. c #BEB057",
"p. c #9B9466",
"a. c #BDB57B",
"s. c #C6B547",
"d. c #D0BD46",
"f. c #C9BB68",
"g. c #C7BD70",
"h. c #C8BC70",
"j. c #C4BA7D",
"k. c #D8C440",
"l. c #DECA4E",
"z. c #ECD542",
"x. c #EFD947",
"c. c #ECD64C",
"v. c #F3DB44",
"b. c #E4D256",
"n. c #EAD653",
"m. c #E6D35A",
"M. c #F1DD5C",
"N. c #FCE343",
"B. c #FCE44A",
"V. c #FFEB4B",
"C. c #FBE554",
"Z. c #FFEC52",
"A. c #FFEE5C",
"S. c #EEDC66",
"D. c #FFEE62",
"F. c #FFED6A",
"G. c #F8E462",
"H. c #FFED74",
"J. c #FDEC7E",
"K. c #F5E375",
"L. c #E6DC9C",
"P. c #F4E482",
"I. c #F6E887",
"U. c #FBEB83",
"Y. c #F2E58D",
"T. c #F7E988",
"R. c #FAEB8E",
"E. c #EEE299",
"W. c #ECE091",
"Q. c #F1E496",
"!. c #F6E891",
"~. c None",
/* pixels */
"~.~.~.~.~.~.~.~.~.~.~.~.~.~.~.~.~.~.~.~.~.~.~.~.~.~.~.~.~.~.~.~.~.~.~.~.~.~.~.~.~.~.~.~.~.~.~.~.~.~.~.~.~.~.~.~.~.~.~.~.~.~.~.~.~.~.~.~.~.~.~.~.",
"~.~.~.~.~.~.~.~.~.~.~.~.~.~.~.~.~.~.~.~.~.~.~.~.~.~.. o   o o     o   o o     o .   o   o o ~.~.~.~.~.~.~.~.~.~.~.~.~.~.~.~.~.~.~.~.~.~.~.~.~.~.",
"~.~.~.~.~.~.~.~.~.~.~.~.~.~.~.~.~.~.~.~.~.~.~.~.~.~.                                      . ~.~.~.~.~.~.~.~.~.~.~.~.~.~.~.~.~.~.~.~.~.~.~.~.~.~.",
"~.~.~.~.~.~.~.~.~.~.~.~.~.~.~.~.~.~.~.~.~.~.~.~.~.~.O . . . .     . . . . . .   . .   .   @ ~.~.~.~.~.~.~.~.~.~.~.~.~.~.~.~.~.~.~.~.~.~.~.~.~.~.",
"~.~.~.~.~.~.~.~.~.~.~.~.~.~.~.~.~.~.~.~.~.~.~.~.~.~.7 6 6 7 e w w w w w w w w w w w w w t r ~.~.~.~.~.~.~.~.~.~.~.~.~.~.~.~.~.~.~.~.~.~.~.~.~.~.",
"~.~.~.~.~.~.~.~.~.~.~.~.~.~.~.~.~.~.~.~.~.~.o . O k b.x.c.S.J.Y.Y.Y.Y.Y.Y.Y.Y.Y.!.Y.Y.Y.Q.L.q O o o ~.~.~.~.~.~.~.~.~.~.~.~.~.~.~.~.~.~.~.~.~.~.",
"~.~.~.~.~.~.~.~.~.~.~.~.~.~.~.~.~.~.~.~.~.~.    . f x.5.7.C.H.J.U.U.U.U.U.U.U.U.U.U.U.U.R.Q.4     . ~.~.~.~.~.~.~.~.~.~.~.~.~.~.~.~.~.~.~.~.~.~.",
"~.~.~.~.~.~.~.~.~.~.~.~.~.~.~.~.~.~.~.~.~.~.X   O a 6.9.9.B.A.F.H.H.H.F.H.H.F.H.F.H.F.F.J.P.< .   X ~.~.~.~.~.~.~.~.~.~.~.~.~.~.~.~.~.~.~.~.~.~.",
"~.~.~.~.~.~.~.~.~.~.~.~.~.~.~.~.~.~.~.~.~.~.: : , l ,.,.8.0.q.B.V.B.B.B.B.B.B.B.B.B.B.B.C.M.g > 3 0 ~.~.~.~.~.~.~.~.~.~.~.~.~.~.~.~.~.~.~.~.~.~.",
"~.~.~.~.~.~.~.~.~.~.~.~.~.~.~.~.~.~.o o @ A b.n.z.4.,.;.8...[ ] ` ' ] ` ' ] ` ] ` ] ` ` #.<.M.P.E.L.u @ o o ~.~.~.~.~.~.~.~.~.~.~.~.~.~.~.~.~.~.",
"~.~.~.~.~.~.~.~.~.~.~.~.~.~.~.~.~.~.    X C v.q.,.,.;.;.8...! Q ! Q Q ! ! Q Q ! ! Q Q ! ` #.B.J.R.Q.y .     ~.~.~.~.~.~.~.~.~.~.~.~.~.~.~.~.~.~.",
"~.~.~.~.~.~.~.~.~.~.~.~.~.~.~.~.~.~.. . O n >.8.;.X.8.X.X.| Q Q Q Q Q Q Q Q Q Q Q Q Q Q Q ` N.D.H.U.j O     ~.~.~.~.~.~.~.~.~.~.~.~.~.~.~.~.~.~.",
"~.~.~.~.~.~.~.~.~.~.~.~.~.~.~.~.~.~.& & * m ,.8.8.X.X.X.X.{ ) Q ! ^ ^ ~ / / ^ Q ~ / ( ! ! ` 0.V.A.G.B & & & ~.~.~.~.~.~.~.~.~.~.~.~.~.~.~.~.~.~.",
"~.~.~.~.~.~.~.~.~.~.~.~.~.$ o o @ s.m.b.z.4.,.;.O.{ Q Q ! ) X.O.O.O.O.O.O.O.O.O.X.X.O.O.O.8.[ ' #.<.n.P.E.L.p.@ o o ~.~.~.~.~.~.~.~.~.~.~.~.~.~.",
"~.~.~.~.~.~.~.~.~.~.~.~.~.o     O s.6.5.0.;.8.8.O.{ Q Q Q ) O.O.X.O.X.;.X.O.O.O.X.;.X.8.O.O.{ ! ` ' v.J.R.!.t.o     ~.~.~.~.~.~.~.~.~.~.~.~.~.~.",
"~.~.~.~.~.~.~.~.~.~.~.~.~.o     O W ,.;.;.;.O.O.O.) Q Q Q ) O.O.O.;.,.;.9.;.,.,.,.;.;.;.8.O.) Q Q ` 6.F.U.I.r.X     ~.~.~.~.~.~.~.~.~.~.~.~.~.~.",
"~.~.~.~.~.~.~.~.~.~.~.~.~.o     O R ,.;.;.;.X.;.O.{ ^ Q Q ) O.O.9.9.0.q.v.q.6.q.6.0.9.X.8.O.{ Q Q ` 6.F.U.I.r..     ~.~.~.~.~.~.~.~.~.~.~.~.~.~.",
"~.~.~.~.~.~.~.~.~.~.~.~.~.o     O R ,.;.;.;.;.;.O.{ Q Q Q ) O.O.9.q.Z.A.D.D.D.D.A.Z.q.9.8.O./ Q Q ` 6.F.U.I.r.X     ~.~.~.~.~.~.~.~.~.~.~.~.~.~.",
"~.~.~.~.~.~.~.~.~.~.~.~.~.o     O R ,.;.X.;.X.;.O.{ Q Q Q / 8.O.8.q.A.F.H.H.H.H.F.A.N.,.O.O./ Q Q ` 6.F.J.I.r..     ~.~.~.~.~.~.~.~.~.~.~.~.~.~.",
"~.~.~.~.~.~.~.~.~.~.~.~.~.X     O R ,.X.8.8.O.O.O.) Q Q Q { O.O.9.N.D.F.H.H.H.H.F.D.N.9.9.8.{ Q ! ` 4.F.J.U.e.X     ~.~.~.~.~.~.~.~.~.~.~.~.~.~.",
"~.~.~.~.~.~.~.~.~.~.~.~.~.% O O % T ,.;.8.O.O.O.O.) ^ Q ^ / o.o.;.0.Z.A.A.D.D.A.D.A.N.q.q.5.[ ! Q ` 9.Z.D.F.S # O O ~.~.~.~.~.~.~.~.~.~.~.~.~.~.",
"~.~.~.~.~.~.~.~.~.~.~.~.~.e.F F D :.8.8.O.{ ! ) ^ { | | | o.{ { { [ 9.0.6.6.4.6.6.6.C.A.Z.V.0.X.X...=.*.2.1.l.f.j.j.~.~.~.~.~.~.~.~.~.~.~.~.~.~.",
"~.~.~.~.~.~.~.~.~.o     # k.&.[ ] ;.8.8.X.) Q Q Q { O.O.o.o.) ) ( { { ....} | ....:.Z.F.F.D.N.,.O.O. .! ` ' 3.H.R.!.j.X   o o ~.~.~.~.~.~.~.~.~.",
"~.~.~.~.~.~.~.~.~.o     # +.) ^ ) X.O.8.O.) Q Q Q { O.O.O.| ^ ( ( ( _ ) _ _ _ _ { :.Z.F.J.F.B.9.8.O.) Q Q ` 4.F.U.U.h.X     o ~.~.~.~.~.~.~.~.~.",
"~.~.~.~.~.~.~.~.~.o     # +.) ( ) X.O.O.O.) Q Q Q { O.O.O.} ) ( ( _ _ _ _ _ _ _ } :.Z.H.H.F.B.9.;.;.{ ! ! ! >.F.J.U.g.X     o ~.~.~.~.~.~.~.~.~.",
"~.~.~.~.~.~.~.~.~.o     # +.( ( ( X.8.O.O.) ^ Q Q { O.O.o.o.( ( ( ( _ _ _ _ _ _ { -.Z.F.H.F.B.9.X.X.{ Q Q ! :.F.J.U.g.O     o ~.~.~.~.~.~.~.~.~.",
"~.~.~.~.~.~.~.~.~.o     # +.( ( ( X.O.8.O.^ Q Q Q { O.O.O.} ) ( ( ( _ _ _ _ _ _ | -.Z.H.J.F.V.9.;.X.{ Q Q ! >.F.J.I.g.X     o ~.~.~.~.~.~.~.~.~.",
"~.~.~.~.~.~.~.~.~.o     # +.) ( ) X.O.8.O./ Q Q Q { O.O.o.o.) ( ( _ _ _ _ _ _ _ { -.Z.H.H.F.B.9.;.;.{ Q Q ! >.F.J.U.g.X     o ~.~.~.~.~.~.~.~.~.",
"~.~.~.~.~.~.~.~.~.o     # +./ ( ) X.O.8.O.) Q Q Q { O.O.O.| ( ( ( ( _ _ _ _ _ _ { :.Z.F.H.F.B.0.X.O.{ Q ! ! *.F.J.U.g.X     o ~.~.~.~.~.~.~.~.~.",
"~.~.~.~.~.~.~.~.~.o     # +.( ( ( X.O.8.O./ Q Q Q { O.O.O.o.( ( ( ( _ _ _ _ _ _ { -.Z.H.H.F.B.9.;.O.{ Q Q ! 4.F.J.U.g.X     o ~.~.~.~.~.~.~.~.~.",
"~.~.~.~.~.~.~.~.~.o     # +.) ( ( X.O.8.O.) Q Q Q { 8.8.O.o.^ ( ( _ _ _ _ _ _ _ } :.Z.H.H.F.B.,.;.O.{ Q Q ! >.F.J.U.g.X     o ~.~.~.~.~.~.~.~.~.",
"~.~.~.~.~.~.~.~.~.o     # +.( ( ) o.O.O.O.) Q Q Q { O.8.O.} ( ( ( ( _ _ _ _ _ _ { -.Z.H.H.F.B.0.X.8.{ Q Q ! >.F.U.U.g.X     o ~.~.~.~.~.~.~.~.~.",
"~.~.~.~.~.~.~.~.~.o     # +.( ( ) O.O.8.O.) Q Q Q { O.O.o.{ ) ( ( ( _ _ _ _ _ _ } -.Z.H.H.F.B.0...O.{ Q ! ! *.F.J.U.g.X     o ~.~.~.~.~.~.~.~.~.",
"~.~.~.~.~.~.~.~.~.o     # +./ ( ) o.8.O.O.^ Q Q Q } O.O.O.o.) ( ( _ _ _ _ _ _ _ } -.Z.H.J.D.B.9.8.O.{ Q Q ! 4.F.U.U.g.X     o ~.~.~.~.~.~.~.~.~.",
"~.~.~.~.~.~.~.~.~.o     # +.) ( ) o.8.8.O.) Q Q Q } O.O.O.o.( ( ( _ _ _ _ _ _ _ } -.V.H.H.F.V.9.8.O.{ Q Q ! >.F.J.U.g.X     o ~.~.~.~.~.~.~.~.~.",
"~.~.~.~.~.~.~.~.~.o     # +.( ^ ) o.O.O.O.^ Q Q Q { O.O.O.} ) ( ( ( _ _ _ _ _ _ { :.Z.H.H.F.B.9.8.8.{ Q Q ! 2.F.J.U.g.X     o ~.~.~.~.~.~.~.~.~.",
"~.~.~.~.~.~.~.~.~.o     # +.) ( ) o.O.O.O.^ ^ Q Q { O.O.O.} ) ( ( ( _ _ _ _ _ _ } -.Z.H.H.F.B.9.;.O.{ Q ! ! >.F.J.U.g.X     o ~.~.~.~.~.~.~.~.~.",
"~.~.~.~.~.~.~.~.~.o     # +.( ( ) o.O.8.O.) Q Q Q } O.O.o.o.) ( ( ( _ _ _ _ _ _ } -.Z.F.H.F.B.9.X.O.{ Q Q ! >.F.J.U.g.X     o ~.~.~.~.~.~.~.~.~.",
"~.~.~.~.~.~.~.~.~.o     # +.( ( ^ o.O.8.O.^ Q Q Q { O.O.O.} ) ( ( _ _ _ _ _ _ _ } -.Z.H.K.F.B.0.8.O.{ Q Q ! *.F.J.U.g.X     o ~.~.~.~.~.~.~.~.~.",
"~.~.~.~.~.~.~.~.~.o     # @.( ( ^ O.O.8.O.^ Q Q Q { O.O.o.o.( ( ( ( _ _ _ _ _ _ { 9.Z.H.H.F.B.9.;.O.{ Q Q ` >.F.U.U.g.X     o ~.~.~.~.~.~.~.~.~.",
"~.~.~.~.~.~.~.~.~.o     # +.^ ( ) O.O.8.O.^ ^ Q Q { 8.8.O.| ) ( ( _ _ _ _ _ _ _ o.-.V.H.H.F.V.9.;.;.{ Q Q ! :.F.J.U.g.X     o ~.~.~.~.~.~.~.~.~.",
"~.~.~.~.~.~.~.~.~.o     # @.( ( ) o.O.O.O.^ Q Q Q { O.O.O.| ) ( ( ( _ _ _ _ _ _ o.-.Z.H.H.F.B.9...;.{ Q ! ! >.F.J.U.g.X     o ~.~.~.~.~.~.~.~.~.",
"~.~.~.~.~.~.~.~.~.o     # +.( ( ) O.O.O.O.) Q Q Q { O.O.O.o.^ ( ( ( _ _ _ _ _ _ { :.Z.H.J.F.B.9.;.X.{ Q Q ! >.F.J.U.g.X     o ~.~.~.~.~.~.~.~.~.",
"~.~.~.~.~.~.~.~.~.o     # +.) ( ( o.O.O.O.^ Q Q Q { O.8.O.| ( ( ( ( _ _ _ _ _ _ } :.V.H.K.F.B.9.;.;.{ Q Q ! 2.F.J.U.g.X     o ~.~.~.~.~.~.~.~.~.",
"~.~.~.~.~.~.~.~.~.o     # @.( ^ ^ o.O.O.O.) ^ Q ^ { O.O.O.| ) ( ( ( _ _ _ _ _ _ } -.Z.H.H.F.B.9.X.O.{ Q Q ! >.F.J.U.h.X     o ~.~.~.~.~.~.~.~.~.",
"~.~.~.~.~.~.~.~.~.o     # @.( ( ) O.O.O.O.^ Q Q Q { O.O.O.| ) ( ( ( _ _ _ _ _ _ } -.V.H.H.F.B.9.;.O.{ Q Q ! >.F.J.U.h.O     o ~.~.~.~.~.~.~.~.~.",
"~.~.~.~.~.~.~.~.~.o     # @.) ^ ) o.O.O.O.) Q Q Q { O.O.O._ ( ( ( ( _ _ _ _ _ _ } -.Z.H.J.F.V.9.;.O.{ Q Q ` :.F.J.U.g.X     o ~.~.~.~.~.~.~.~.~.",
"~.~.~.~.~.~.~.~.~.o     # @.) ) ) o.O.O.O.^ Q Q Q { O.O.O.o.) ( _ ( _ _ _ _ _ _ } -.V.H.H.F.V.9.O.X.{ Q Q ! :.F.U.U.g.X     o ~.~.~.~.~.~.~.~.~.",
"~.~.~.~.~.~.~.~.~.o     # +.) ) ) X.X.X.X.) Q Q Q { O.8.O.| ) ( ( ) _ _ _ _ _ _ | -.Z.H.J.D.B.9.X.O.) Q Q ! >.F.U.U.h.X     o ~.~.~.~.~.~.~.~.~.",
"~.~.~.~.~.~.~.~.~.$ . o % d.$.$.#.,.;.X.X.) Q Q Q { O.O.X.| ) ) _ _ _ _ _ _ _ _ { ..V.D.D.A.N.9.O.O.{ ! ! ` 3.K.Y.L.j.$ o o $ ~.~.~.~.~.~.~.~.~.",
"~.~.~.~.~.~.~.~.~.~.~.~.~.; - - : P } { ) | | | | { ) ( ) ) X.| | | _ ( ( ( ( _ ) } 9.q.q.q.=.! ) ) ) X...:.D : ; ; ~.~.~.~.~.~.~.~.~.~.~.~.~.~.",
"~.~.~.~.~.~.~.~.~.~.~.~.~.O .   + U / ) ) X.X.;.X.) Q Q Q ) O.O.X.X.( ( ( ( ( ( ) ) O.8.9.8.{ ! Q Q ) O.,.>.c O .   ~.~.~.~.~.~.~.~.~.~.~.~.~.~.",
"~.~.~.~.~.~.~.~.~.~.~.~.~.X     O L / ) ) | X.;.;.{ Q Q Q ) O.O.X.| ) ( ( ( ( ( ) ) X.8.8.8.) Q Q Q ) O.9.4.c O     ~.~.~.~.~.~.~.~.~.~.~.~.~.~.",
"~.~.~.~.~.~.~.~.~.~.~.~.~.o     O U / ) ( X.;.;.8.) Q Q Q ) O.8.O.X.) ( ) ) ( ( ) ) X.O.8.X./ Q Q Q { O.,.4.c X     ~.~.~.~.~.~.~.~.~.~.~.~.~.~.",
"~.~.~.~.~.~.~.~.~.~.~.~.~.o     O U / ( _ | 8.O.8.{ Q Q Q / X.O.8.X.X.| X.| | | | X.X.O.X.X.) Q Q Q ) ;.8.4.b X     ~.~.~.~.~.~.~.~.~.~.~.~.~.~.",
"~.~.~.~.~.~.~.~.~.~.~.~.~.o     X U { ( ) X.O.8.O.) ^ Q Q { O.8.8.X.8.X.X.O.8.;.X.O.O.8.;.X.{ Q Q Q { X.,.6.c O     ~.~.~.~.~.~.~.~.~.~.~.~.~.~.",
"~.~.~.~.~.~.~.~.~.~.~.~.~.o     O Y { / ) | O.8.O.) Q Q Q ) O.O.8.8.8.8.X.8.O.X.X.8.8.8.8.O.) Q Q Q { ;.,.4.b O     ~.~.~.~.~.~.~.~.~.~.~.~.~.~.",
"~.~.~.~.~.~.~.~.~.~.~.~.~.$ o   @ H <.%.#.;.;.O.O.{ Q Q Q ) X.O.O.O.O.O.8.O.O.8.X.X.O.O.O.X.{ Q Q !  .4.v.c.V O   o ~.~.~.~.~.~.~.~.~.~.~.~.~.~.",
"~.~.~.~.~.~.~.~.~.~.~.~.~.~.~.~.~.~.f f p I ..| | _ { { { { { { { | ) { { { | ) { { { { | { { { } &.M d k j ~.~.~.~.~.~.~.~.~.~.~.~.~.~.~.~.~.~.",
"~.~.~.~.~.~.~.~.~.~.~.~.~.~.~.~.~.~.. . + x ] { ) | O.X.X.| Q Q Q Q Q Q ~ Q Q Q ~ Q Q ~ Q Q | X.,.>.i O X O ~.~.~.~.~.~.~.~.~.~.~.~.~.~.~.~.~.~.",
"~.~.~.~.~.~.~.~.~.~.~.~.~.~.~.~.~.~.    O z ] { ) | X.X.X.| Q Q Q Q Q Q Q Q Q Q Q Q Q Q Q Q | X.,.3.i X     ~.~.~.~.~.~.~.~.~.~.~.~.~.~.~.~.~.~.",
"~.~.~.~.~.~.~.~.~.~.~.~.~.~.~.~.~.~.o   O B <.%.&...8.;.X.| Q Q Q ~ Q Q Q Q Q ~ Q Q Q Q ! ! =.4.v.n.8 O   o ~.~.~.~.~.~.~.~.~.~.~.~.~.~.~.~.~.~.",
"~.~.~.~.~.~.~.~.~.~.~.~.~.~.~.~.~.~.~.~.~.~.V B v P -.X.| _ ~ ~ ~ Q ~ ~ ~ Q ~ ~ ~ Q ( / { %.K Z A e.~.~.~.~.~.~.~.~.~.~.~.~.~.~.~.~.~.~.~.~.~.~.",
"~.~.~.~.~.~.~.~.~.~.~.~.~.~.~.~.~.~.~.~.~.~.O O # p ' { ) ( ( ( ( ( ( ( ( ( ( ( ( ( X.X.,.2.5 + . @ ~.~.~.~.~.~.~.~.~.~.~.~.~.~.~.~.~.~.~.~.~.~.",
"~.~.~.~.~.~.~.~.~.~.~.~.~.~.~.~.~.~.~.~.~.~.    O i #.{ ( ) ( ( ( ( ( ( ( ( ( ( ( ) X.X.5.z., .   . ~.~.~.~.~.~.~.~.~.~.~.~.~.~.~.~.~.~.~.~.~.~.",
"~.~.~.~.~.~.~.~.~.~.~.~.~.~.~.~.~.~.~.~.~.~..   X s 1.%.] &.]  .[ [ ]  .=.] =.] #.&.4.5.x.m., X   o ~.~.~.~.~.~.~.~.~.~.~.~.~.~.~.~.~.~.~.~.~.~.",
"~.~.~.~.~.~.~.~.~.~.~.~.~.~.~.~.~.~.~.~.~.~.~.~.~.~.y.J H H H H H H H H H H H H H J E s.s.u.~.~.~.~.~.~.~.~.~.~.~.~.~.~.~.~.~.~.~.~.~.~.~.~.~.~.",
"~.~.~.~.~.~.~.~.~.~.~.~.~.~.~.~.~.~.~.~.~.~.~.~.~.~.# O O + + + + O + O O + O + + O + O O # ~.~.~.~.~.~.~.~.~.~.~.~.~.~.~.~.~.~.~.~.~.~.~.~.~.~.",
"~.~.~.~.~.~.~.~.~.~.~.~.~.~.~.~.~.~.~.~.~.~.~.~.~.~..         .     .             .       X ~.~.~.~.~.~.~.~.~.~.~.~.~.~.~.~.~.~.~.~.~.~.~.~.~.~.",
"~.~.~.~.~.~.~.~.~.~.~.~.~.~.~.~.~.~.~.~.~.~.~.~.~.~.o                                     o ~.~.~.~.~.~.~.~.~.~.~.~.~.~.~.~.~.~.~.~.~.~.~.~.~.~.",
"~.~.~.~.~.~.~.~.~.~.~.~.~.~.~.~.~.~.~.~.~.~.~.~.~.~.$ o o o o o o $ o o o o o o o o o o o $ ~.~.~.~.~.~.~.~.~.~.~.~.~.~.~.~.~.~.~.~.~.~.~.~.~.~.",
"~.~.~.~.~.~.~.~.~.~.~.~.~.~.~.~.~.~.~.~.~.~.~.~.~.~.~.~.~.~.~.~.~.~.~.~.~.~.~.~.~.~.~.~.~.~.~.~.~.~.~.~.~.~.~.~.~.~.~.~.~.~.~.~.~.~.~.~.~.~.~.~."
};
