/* XPM */
static char *coin4[] = {
/* columns rows colors chars-per-pixel */
"16 16 23 1 ",
"  c gray1",
". c #050303",
"X c #070601",
"o c #050503",
"O c #070502",
"+ c #040404",
"@ c #050404",
"# c gray2",
"$ c #060606",
"% c #080602",
"& c #C9B11A",
"* c #CEB419",
"= c #DEC10A",
"- c #DFC10A",
"; c #E3C409",
": c #ECCE17",
"> c #E7CB18",
", c #F5D727",
"< c #F5D826",
"1 c #F0D428",
"2 c #E7CE30",
"3 c #ECD130",
"4 c None",
/* pixels */
"444444 %%+444444",
"444444%32o444444",
"444444%,1.444444",
"444444%,1.444444",
"444444%,1.444444",
"444444%<1.444444",
"444444%,1.444444",
"444444%:>.444444",
"444444X;-.444444",
"444444X;-.444444",
"444444X;-.444444",
"444444X;-.444444",
"444444X;=.444444",
"444444X;-.444444",
"444444O*&.444444",
"444444@##$444444"
};
