/* XPM */
static char *coin5[] = {
/* columns rows colors chars-per-pixel */
"16 16 64 1 ",
"  c gray1",
". c #060401",
"X c #050403",
"o c #060502",
"O c #060503",
"+ c #070503",
"@ c #060602",
"# c #040404",
"$ c gray2",
"% c #060504",
"& c #090601",
"* c #090701",
"= c #0E0A02",
"- c #1A1504",
"; c #AE9A27",
": c #AF9C2C",
"> c #B5A023",
", c #B4A028",
"< c #CDB41C",
"1 c #D7BC16",
"2 c #D8BD18",
"3 c #C2AD2C",
"4 c #CEB520",
"5 c #CCB423",
"6 c #DEC213",
"7 c #EBCB03",
"8 c #EFCE07",
"9 c #E6C80E",
"0 c #EBCC0A",
"q c #EFD007",
"w c #EFD009",
"e c #F0D007",
"r c #F0D008",
"t c #EACC10",
"y c #EBCF1C",
"u c #FBDD1D",
"i c #FBDD1E",
"p c #E9CD24",
"a c #F5D821",
"s c #F4D828",
"d c #F4D92A",
"f c #F8DC2C",
"g c #FBDF2E",
"h c #FCDF2E",
"j c #E6CD33",
"k c #EED435",
"l c #EED535",
"z c #F0D530",
"x c #F9DF33",
"c c #FCE02E",
"v c #FAE245",
"b c #FBE65D",
"n c #FCE96C",
"m c #FEEE7A",
"M c #FDED87",
"N c #FDEE8D",
"B c #FEEE8E",
"V c #FFEF90",
"C c #FFEF91",
"Z c #FEF093",
"A c #FEF098",
"S c #FFF09C",
"D c #FFF09F",
"F c None",
/* pixels */
"FFFFFF&**@FFFFFF",
"FFFFF+lds3FFFFFF",
"FFFFF-fgr4FFFFFF",
"FFFFOkhZxw, FFFF",
"FFFFozcDnr> FFFF",
"FFFFozhAve> FFFF",
"FFFFopaSbq> FFFF",
"FFFFO6tVue> FFFF",
"FFFFo6tCie> FFFF",
"FFFFo6tCie> FFFF",
"FFFFo6tB8e> FFFF",
"FFFFo6tN7e> FFFF",
"FFFF%2tM0w;#FFFF",
"FFFFF=9ym5FFFFFF",
"FFFFF.<1j:FFFFFF",
"FFFFFFX$$#FFFFFF"
};
