/* XPM */
static char *coin2[] = {
/* columns rows colors chars-per-pixel */
"72 72 170 2 ",
"   c #020101",
".  c #090700",
"X  c #0E0A01",
"o  c #0B0B0B",
"O  c #140C00",
"+  c #1A0F00",
"@  c #161200",
"#  c #1D1400",
"$  c #131313",
"%  c #251A00",
"&  c #332A01",
"*  c #3B3100",
"=  c #403000",
"-  c #443900",
";  c #473F09",
":  c #534500",
">  c #5D4D00",
",  c #574D06",
"<  c #46411A",
"1  c #514A17",
"2  c #695500",
"3  c #61560F",
"4  c #716304",
"5  c #7F6F0A",
"6  c #6F6310",
"7  c #776A15",
"8  c #7E7016",
"9  c #514B20",
"0  c #5B5325",
"q  c #72692D",
"w  c #746923",
"e  c #6F693D",
"r  c #706931",
"t  c #7E763E",
"y  c #7C7548",
"u  c #857300",
"i  c #897500",
"p  c #8B7800",
"a  c #8C7C0E",
"s  c #827412",
"d  c #817420",
"f  c #83772B",
"g  c #857923",
"h  c #908018",
"j  c #A38F09",
"k  c #A69100",
"l  c #AD9603",
"z  c #A38F12",
"x  c #A3911B",
"c  c #A99516",
"v  c #BBA40D",
"b  c #BEA712",
"n  c #BAA41D",
"m  c #9C8B22",
"M  c #9C8D2F",
"N  c #A89629",
"B  c #AA9725",
"V  c #A2943B",
"C  c #AE9F3B",
"Z  c #BEA922",
"A  c #B8A632",
"S  c #BBA933",
"D  c #BAA839",
"F  c #C5AE1D",
"G  c #D0B718",
"H  c #D3BB18",
"J  c #C4AF20",
"K  c #CEB82E",
"L  c #D1B921",
"P  c #CDB834",
"I  c #C2B03F",
"U  c #ECCC02",
"Y  c #EBCC0B",
"T  c #EED007",
"R  c #EFD10B",
"E  c #F5D506",
"W  c #F4D40A",
"Q  c #F8D70D",
"!  c #F7D80E",
"~  c #F9D90A",
"^  c #EACD13",
"/  c #E8CC1A",
"(  c #EDD11E",
")  c #EFD213",
"_  c #F5D611",
"`  c #F8D710",
"'  c #F7D814",
"]  c #FADB15",
"[  c #F0D31B",
"{  c #F6D91C",
"}  c #FEDF1C",
"|  c #FFE01E",
" . c #DFC730",
".. c #E6CB23",
"X. c #E0C72E",
"o. c #E2C92B",
"O. c #E8CE28",
"+. c #EACE22",
"@. c #EDD122",
"#. c #ECD129",
"$. c #F4D721",
"%. c #F5D923",
"&. c #FDDF23",
"*. c #F3D72B",
"=. c #F3D82B",
"-. c #FBDF2A",
";. c #E4CC33",
":. c #E1C939",
">. c #ECD335",
",. c #E9D13B",
"<. c #F6DB34",
"1. c #F9DE34",
"2. c #F0D73C",
"3. c #F5DC3B",
"4. c #F8DF3B",
"5. c #FEE021",
"6. c #FCE02C",
"7. c #FCE134",
"8. c #FDE33A",
"9. c #9F9243",
"0. c #A99D49",
"q. c #A49A55",
"w. c #A2995C",
"e. c #B5A545",
"r. c #BAAD5C",
"t. c #BEB057",
"y. c #9C9567",
"u. c #BEB67B",
"i. c #C9B742",
"p. c #C3B349",
"a. c #D0BD47",
"s. c #C9BB69",
"d. c #C9BD72",
"f. c #C4BA7D",
"g. c #DBC647",
"h. c #ECD542",
"j. c #EBD64D",
"k. c #EED848",
"l. c #F3DB44",
"z. c #E6D354",
"x. c #E5D258",
"c. c #EBD655",
"v. c #F1DD5B",
"b. c #FCE444",
"n. c #FCE44B",
"m. c #FFEB4C",
"M. c #FFEB54",
"N. c #FFEE5C",
"B. c #FBE455",
"V. c #EEDC66",
"C. c #FFEF62",
"Z. c #FBE769",
"A. c #FFED6B",
"S. c #F8E462",
"D. c #FFF061",
"F. c #FFED72",
"G. c #FFED79",
"H. c #F4E475",
"J. c #E6DC9C",
"K. c #EFE38E",
"L. c #F4E482",
"P. c #FCEC83",
"I. c #F2E58D",
"U. c #F7E988",
"Y. c #FAEB8C",
"T. c #EEE295",
"R. c #ECE198",
"E. c #F1E594",
"W. c #F6E992",
"Q. c None",
/* pixels */
"Q.Q.Q.Q.Q.Q.Q.Q.Q.Q.Q.Q.Q.Q.Q.Q.Q.Q.Q.Q.Q.Q.Q.Q.Q.Q.Q.Q.Q.Q.Q.Q.Q.Q.Q.Q.Q.Q.Q.Q.Q.Q.Q.Q.Q.Q.Q.Q.Q.Q.Q.Q.Q.Q.Q.Q.Q.Q.Q.Q.Q.Q.Q.Q.Q.Q.Q.Q.Q.Q.Q.Q.",
"Q.Q.Q.Q.Q.Q.Q.Q.Q.Q.Q.Q.Q.Q.Q.Q.Q.Q.Q.Q.Q.Q.Q.Q.Q.Q.o o     o     o o     o o       o   o o Q.Q.Q.Q.Q.Q.Q.Q.Q.Q.Q.Q.Q.Q.Q.Q.Q.Q.Q.Q.Q.Q.Q.Q.Q.Q.",
"Q.Q.Q.Q.Q.Q.Q.Q.Q.Q.Q.Q.Q.Q.Q.Q.Q.Q.Q.Q.Q.Q.Q.Q.Q.Q.o                                       Q.Q.Q.Q.Q.Q.Q.Q.Q.Q.Q.Q.Q.Q.Q.Q.Q.Q.Q.Q.Q.Q.Q.Q.Q.Q.",
"Q.Q.Q.Q.Q.Q.Q.Q.Q.Q.Q.Q.Q.Q.Q.Q.Q.Q.Q.Q.Q.Q.Q.Q.Q.Q.X . . . . . . . . . . . . . . . . X . O Q.Q.Q.Q.Q.Q.Q.Q.Q.Q.Q.Q.Q.Q.Q.Q.Q.Q.Q.Q.Q.Q.Q.Q.Q.Q.",
"Q.Q.Q.Q.Q.Q.Q.Q.Q.Q.Q.Q.Q.Q.Q.Q.Q.Q.Q.Q.Q.Q.Q.Q.Q.Q.e r q q q q q q q q q q q q q w 6 4 4 6 Q.Q.Q.Q.Q.Q.Q.Q.Q.Q.Q.Q.Q.Q.Q.Q.Q.Q.Q.Q.Q.Q.Q.Q.Q.Q.",
"Q.Q.Q.Q.Q.Q.Q.Q.Q.Q.Q.Q.Q.Q.Q.Q.Q.Q.Q.Q.Q.Q.o   X 0 J.E.I.I.I.E.I.I.I.E.I.I.I.I.U.L.V.j.j.x.d O   o Q.Q.Q.Q.Q.Q.Q.Q.Q.Q.Q.Q.Q.Q.Q.Q.Q.Q.Q.Q.Q.Q.",
"Q.Q.Q.Q.Q.Q.Q.Q.Q.Q.Q.Q.Q.Q.Q.Q.Q.Q.Q.Q.Q.Q.o   . 0 T.Y.P.P.P.P.P.P.P.P.P.P.U.P.G.G.B.4.4.k.s X     Q.Q.Q.Q.Q.Q.Q.Q.Q.Q.Q.Q.Q.Q.Q.Q.Q.Q.Q.Q.Q.Q.",
"Q.Q.Q.Q.Q.Q.Q.Q.Q.Q.Q.Q.Q.Q.Q.Q.Q.Q.Q.Q.Q.Q.X . X 3 L.G.F.F.G.A.F.F.F.A.F.F.F.A.A.D.n.-.-.<.p O . X Q.Q.Q.Q.Q.Q.Q.Q.Q.Q.Q.Q.Q.Q.Q.Q.Q.Q.Q.Q.Q.Q.",
"Q.Q.Q.Q.Q.Q.Q.Q.Q.Q.Q.Q.Q.Q.Q.Q.Q.Q.Q.Q.Q.Q.9 1 , a v.B.n.b.n.b.n.n.n.b.b.n.b.b.b.b.7.5.5.<.l > : : Q.Q.Q.Q.Q.Q.Q.Q.Q.Q.Q.Q.Q.Q.Q.Q.Q.Q.Q.Q.Q.Q.",
"Q.Q.Q.Q.Q.Q.Q.Q.Q.Q.Q.Q.Q.Q.Q.Q.Q.Q.o o @ y J.R.L.v.;.../ / / / ^ / / / / / / / / ^ %.5.&.-.<.2.c.x.V @ o o Q.Q.Q.Q.Q.Q.Q.Q.Q.Q.Q.Q.Q.Q.Q.Q.Q.Q.",
"Q.Q.Q.Q.Q.Q.Q.Q.Q.Q.Q.Q.Q.Q.Q.Q.Q.Q.    . y E.Y.G.v./ Y Y U U Y U Y Y Y U Y U Y Y Y ] 5.&.&.-.-.1.l.N O     Q.Q.Q.Q.Q.Q.Q.Q.Q.Q.Q.Q.Q.Q.Q.Q.Q.Q.",
"Q.Q.Q.Q.Q.Q.Q.Q.Q.Q.Q.Q.Q.Q.Q.Q.Q.Q..   X f H.G.A.8.^ Y U U U U U U U U U U U U U U ] | | 5.| &.&.<.c O   . Q.Q.Q.Q.Q.Q.Q.Q.Q.Q.Q.Q.Q.Q.Q.Q.Q.Q.",
"Q.Q.Q.Q.Q.Q.Q.Q.Q.Q.Q.Q.Q.Q.Q.Q.Q.Q.& & * m S.B.m.7.^ W T T T T U Y T U E Y T T U W ' ] ] } } } &.=.v = & & Q.Q.Q.Q.Q.Q.Q.Q.Q.Q.Q.Q.Q.Q.Q.Q.Q.Q.",
"Q.Q.Q.Q.Q.Q.Q.Q.Q.Q.Q.Q.Q.Q.o o O y.J.R.L.c.;.o./ [ } } | | | | | | | | | | | | | ] _ Y U U _ } &.&.<.h.z.x.p.@ o o $ Q.Q.Q.Q.Q.Q.Q.Q.Q.Q.Q.Q.Q.",
"Q.Q.Q.Q.Q.Q.Q.Q.Q.Q.Q.Q.Q.Q.    X w.W.Y.G.l./ Y Y _ | | | | | | | 5.| | | &.} 5.5.| W U U U ' } &.5.6.-.3.3.i.O     o Q.Q.Q.Q.Q.Q.Q.Q.Q.Q.Q.Q.Q.",
"Q.Q.Q.Q.Q.Q.Q.Q.Q.Q.Q.Q.Q.Q.    X q.U.P.A.4.^ U U W | 5.| 5.6.=.5.-.-.6.5.&.&.5.| | W U U U ' } &.} &.&.&.-.P O     o Q.Q.Q.Q.Q.Q.Q.Q.Q.Q.Q.Q.Q.",
"Q.Q.Q.Q.Q.Q.Q.Q.Q.Q.Q.Q.Q.Q.    X q.U.P.A.3.^ Y U W | | &.6.7.8.b.3.3.8.8.7.6.5.&.} W U U U W | } } &.} -.-.P O     o Q.Q.Q.Q.Q.Q.Q.Q.Q.Q.Q.Q.Q.",
"Q.Q.Q.Q.Q.Q.Q.Q.Q.Q.Q.Q.Q.Q.    . q.U.P.A.8.Y Y U W | | 6.8.M.D.C.C.D.D.N.M.8.6.} } _ U U U ` | 5.&.5.5.&.-.P O     o Q.Q.Q.Q.Q.Q.Q.Q.Q.Q.Q.Q.Q.",
"Q.Q.Q.Q.Q.Q.Q.Q.Q.Q.Q.Q.Q.Q.    X q.U.P.A.3.^ U U W | | 6.b.N.A.F.G.F.F.A.D.8.6.&.| W U U U _ | } &.5.| 5.-.P O     o Q.Q.Q.Q.Q.Q.Q.Q.Q.Q.Q.Q.Q.",
"Q.Q.Q.Q.Q.Q.Q.Q.Q.Q.Q.Q.Q.Q.    X 0.L.G.A.<.Y Y U ) | 6.-.n.C.A.F.F.G.G.A.D.b.6.| | W U U U W | 5.| 5.| 5.-.K +     O Q.Q.Q.Q.Q.Q.Q.Q.Q.Q.Q.Q.Q.",
"Q.Q.Q.Q.Q.Q.Q.Q.Q.Q.Q.Q.Q.Q.O O # C Z.A.M.-.^ Y Y ( 6.8.3.b.N.C.C.C.C.C.N.M.8.5.| | W U T U ! | | | | 5.5.-.L % O + # Q.Q.Q.Q.Q.Q.Q.Q.Q.Q.Q.Q.Q.",
"Q.Q.Q.Q.Q.Q.Q.Q.Q.Q.Q.Q.Q.Q.f.f.s.g.,.;.#.$.} ] } 7.m.M.N.m.3.<.<.3.<.<.<.6.{ _ W W ] ] ' | _ T U W _ } 5.&.*.n A A 0.Q.Q.Q.Q.Q.Q.Q.Q.Q.Q.Q.Q.Q.",
"Q.Q.Q.Q.Q.Q.Q.Q.Q.$     X f.W.Y.G.2./ ^ Y ' &.| -.n.C.A.A.M.=.{ ' { { ' ' _ W ~ W W ] 5.| | ! U U U W } 5.} %.( @.@.g.#     o Q.Q.Q.Q.Q.Q.Q.Q.Q.",
"Q.Q.Q.Q.Q.Q.Q.Q.Q.o     X d.Y.G.A.*.Y U Y _ | | -.n.A.G.A.M.*.' ~ ~ ~ ~ ~ ~ W E E W ] | | | ) U U U W } | | | W E E X.#     o Q.Q.Q.Q.Q.Q.Q.Q.Q.",
"Q.Q.Q.Q.Q.Q.Q.Q.Q.o     X d.U.P.A.*.^ Y U ' } | 6.n.A.G.F.M.=.' ~ ~ ~ ~ ~ ~ E E E W ] | | | R T U U E | | | ] E E E X.#     o Q.Q.Q.Q.Q.Q.Q.Q.Q.",
"Q.Q.Q.Q.Q.Q.Q.Q.Q.o     X d.P.P.A.*.Y U U _ } &.6.n.A.G.F.M.*.' ~ ~ ~ ~ ~ ~ E E E E ' | | | ! U U U W | | | | E E E X.#     o Q.Q.Q.Q.Q.Q.Q.Q.Q.",
"Q.Q.Q.Q.Q.Q.Q.Q.Q.o     X d.P.P.A.>.Y U U ' &.| 6.n.A.G.A.M.=.' ~ ~ ~ ~ ~ ~ E E E W ] | 5.| _ U U U W | | | | E E W X.#     o Q.Q.Q.Q.Q.Q.Q.Q.Q.",
"Q.Q.Q.Q.Q.Q.Q.Q.Q.o     O d.P.G.A.#.Y U U _ } 5.6.n.A.G.F.M.=.' ~ ~ ~ ~ ~ ~ ~ E E W ] | | | ! T U U W | | | | W W W X.+     o Q.Q.Q.Q.Q.Q.Q.Q.Q.",
"Q.Q.Q.Q.Q.Q.Q.Q.Q.o     X d.P.P.A.*.Y U U _ } 5.6.n.A.G.A.M.%.' ~ ~ ~ ~ ~ ~ E E E W ' | | | _ U U U T ] | | ] W E W X.#     o Q.Q.Q.Q.Q.Q.Q.Q.Q.",
"Q.Q.Q.Q.Q.Q.Q.Q.Q.o     X d.Y.G.A.*.Y U U ' &.} 7.n.A.G.F.M.=.' ~ ~ ~ ~ ~ ~ E E E W ] | | | _ U U U W } | | } W E W X.#     o Q.Q.Q.Q.Q.Q.Q.Q.Q.",
"Q.Q.Q.Q.Q.Q.Q.Q.Q.o     X d.P.P.A.*.Y U U _ &.&.6.n.A.G.F.M.=._ ~ ~ ~ ~ ~ ~ ~ E E W ] | 5.| _ U U U W } 5.| ] E E E X.#     o Q.Q.Q.Q.Q.Q.Q.Q.Q.",
"Q.Q.Q.Q.Q.Q.Q.Q.Q.o     X d.P.P.A.*.Y Y U _ &.} 6.n.A.G.F.M.=._ ~ ~ ~ ~ ~ ~ E E E W ] | | | W U U U W } 5.5.] W E W X.#     o Q.Q.Q.Q.Q.Q.Q.Q.Q.",
"Q.Q.Q.Q.Q.Q.Q.Q.Q.o     O d.P.P.A.*.Y U U ' } 5.6.n.A.G.F.M.=.' ~ ~ ~ ~ ~ ~ E E E R ] | 5.| R T U U T | | | | E E T o.#     o Q.Q.Q.Q.Q.Q.Q.Q.Q.",
"Q.Q.Q.Q.Q.Q.Q.Q.Q.o     X d.P.G.A.#.Y U U _ &.5.6.n.A.G.F.M.*.' ~ ~ ~ ~ ~ ~ E E E E ] | | | ! U U U E | | | | T E E  .#     o Q.Q.Q.Q.Q.Q.Q.Q.Q.",
"Q.Q.Q.Q.Q.Q.Q.Q.Q.o     X d.Y.P.A.*.Y Y U ' &.| 6.n.A.G.A.B.%.' ~ ~ ~ ~ ~ ~ ~ E E E ] | 5.| ! T U U E | | | | E E E o.#     o Q.Q.Q.Q.Q.Q.Q.Q.Q.",
"Q.Q.Q.Q.Q.Q.Q.Q.Q.o     X d.P.G.A.*.Y U U Q | | 6.n.A.G.F.M.=.' ~ ~ ~ ~ ~ ~ E E E W ] | | | ) T U U R | | | | E E T o.#     o Q.Q.Q.Q.Q.Q.Q.Q.Q.",
"Q.Q.Q.Q.Q.Q.Q.Q.Q.o     X d.P.P.A.*.^ Y U _ 5.5.6.n.A.G.F.M.=.' ~ ~ ~ ~ ~ ~ E E E W ] | | | W T U U R | | | | T E W X.#     o Q.Q.Q.Q.Q.Q.Q.Q.Q.",
"Q.Q.Q.Q.Q.Q.Q.Q.Q.o     X d.P.P.A.*.Y U U _ 5.5.6.n.A.G.F.M.%.' ~ ~ ~ ~ ~ ~ ~ E E W ] | | | _ U U U E | | | | E E W X.#     o Q.Q.Q.Q.Q.Q.Q.Q.Q.",
"Q.Q.Q.Q.Q.Q.Q.Q.Q.o     X d.P.P.A.*.Y U U _ 5.5.6.n.A.G.F.M.=.] ~ ~ ~ ~ ~ ~ E E E W ' | | | ) U U U R | | | | E E E X.#     o Q.Q.Q.Q.Q.Q.Q.Q.Q.",
"Q.Q.Q.Q.Q.Q.Q.Q.Q.o     X d.P.P.A.>.Y U U _ 5.5.6.n.A.G.F.M.%._ ~ ~ ~ ~ ~ ~ ~ E E ! ' | | | W U U U E | | | | E E W X.#     o Q.Q.Q.Q.Q.Q.Q.Q.Q.",
"Q.Q.Q.Q.Q.Q.Q.Q.Q.o     X d.P.P.A.#.Y U U _ } &.6.n.A.G.F.M.=._ ~ ~ ~ ~ ~ ~ E E E E | | | | _ T U U T | | | ] ~ E T X.#     . Q.Q.Q.Q.Q.Q.Q.Q.Q.",
"Q.Q.Q.Q.Q.Q.Q.Q.Q.o     X d.P.P.A.*.Y U U _ } &.6.n.A.G.F.M.=.' ~ ~ ~ ~ ~ ~ E E E E ~ | | | _ U U U E | | | | W E E X.+     o Q.Q.Q.Q.Q.Q.Q.Q.Q.",
"Q.Q.Q.Q.Q.Q.Q.Q.Q.o     X d.U.G.A.*.^ U U _ } 5.6.n.A.G.F.M.=.' ~ ~ ~ ~ ~ ~ E E E E ] | 5.| W U U U W | | | ] W W W X.%     o Q.Q.Q.Q.Q.Q.Q.Q.Q.",
"Q.Q.Q.Q.Q.Q.Q.Q.Q.o     O d.P.P.A.*.Y Y U _ &.5.6.n.A.G.A.M.=._ ~ ~ ~ ~ ~ ~ ~ E E E ] | | | _ U U U R | | | } E E W X.+     o Q.Q.Q.Q.Q.Q.Q.Q.Q.",
"Q.Q.Q.Q.Q.Q.Q.Q.Q.o     O d.Y.P.A.*.Y U U _ 5.5.6.n.A.G.F.M.=.' ~ ~ ~ ~ ~ ~ ~ E E W ! | | | _ U U U W ] | | } W E W X.#     o Q.Q.Q.Q.Q.Q.Q.Q.Q.",
"Q.Q.Q.Q.Q.Q.Q.Q.Q.o     X d.P.G.A.>.Y U U _ | | 6.n.A.G.F.M.%.' ~ ~ ~ ~ ~ ~ E E E W | | | | _ U U U W | | | } E E W X.#     o Q.Q.Q.Q.Q.Q.Q.Q.Q.",
"Q.Q.Q.Q.Q.Q.Q.Q.Q.o     X d.P.P.A.*.^ U U ' } 5.6.n.A.G.F.M.=.' ~ ~ ~ ~ ~ ~ E E E W | | | | W U U U W } | 5.] E E W X.#     o Q.Q.Q.Q.Q.Q.Q.Q.Q.",
"Q.Q.Q.Q.Q.Q.Q.Q.Q.o     X d.U.P.A.*.Y U U _ } | 6.n.A.G.F.M.%.' ~ ~ ~ ~ ~ ~ E E E W ! | | | _ U U U W } } &.} W E W X.#     o Q.Q.Q.Q.Q.Q.Q.Q.Q.",
"Q.Q.Q.Q.Q.Q.Q.Q.Q.o     X d.U.G.A.*.Y U U _ } } -.n.A.G.F.M.=._ ~ ~ ~ ~ ~ ~ E E E W ` | | | ` U U U W ] | 5.} W T W  .#     o Q.Q.Q.Q.Q.Q.Q.Q.Q.",
"Q.Q.Q.Q.Q.Q.Q.Q.Q.$ o o @ u.K.T.H.2.^ Y Y _ } &.-.b.N.A.N.m.{ _ ~ ~ ~ ~ ~ ~ ~ E W W ] | | | ` Y U U W | | | %...o.o.a.% o o $ Q.Q.Q.Q.Q.Q.Q.Q.Q.",
"Q.Q.Q.Q.Q.Q.Q.Q.Q.Q.Q.Q.Q.Q.< < : n =.{ ' W R E _ $.8.8.8.6._ ~ E ~ W ~ ~ E ] | | ] W R W R W ] } ] ] W _ _ H : - - : Q.Q.Q.Q.Q.Q.Q.Q.Q.Q.Q.Q.Q.",
"Q.Q.Q.Q.Q.Q.Q.Q.Q.Q.Q.Q.Q.Q..   O c <.&.} ' U U Y W &.6.6.| R W E E E E W E ] | | | W U U U _ | | | ] W W _ F O .   X Q.Q.Q.Q.Q.Q.Q.Q.Q.Q.Q.Q.Q.",
"Q.Q.Q.Q.Q.Q.Q.Q.Q.Q.Q.Q.Q.Q.    X x <.-.| _ U U U W } &.&.] W W E E E E E W ] | | | W U U U W | } } ] W W _ F O     o Q.Q.Q.Q.Q.Q.Q.Q.Q.Q.Q.Q.Q.",
"Q.Q.Q.Q.Q.Q.Q.Q.Q.Q.Q.Q.Q.Q.    X x <.-.| W U U U W } } 5.] W ~ E E W E W W | | | } W U U U ' } &.5.] E W _ J O     o Q.Q.Q.Q.Q.Q.Q.Q.Q.Q.Q.Q.Q.",
"Q.Q.Q.Q.Q.Q.Q.Q.Q.Q.Q.Q.Q.Q.    O x 3.&.| ' U U U R } &.5.| ] ] ] ] ] ] ] } } } &.} W U U U W 5.} &.] Q W ) F O     o Q.Q.Q.Q.Q.Q.Q.Q.Q.Q.Q.Q.Q.",
"Q.Q.Q.Q.Q.Q.Q.Q.Q.Q.Q.Q.Q.Q.    X x <.6.| W U U U W &.} 5.5.5.| } &.} } | | } &.} } _ U U U ` | &.} ] Q R R F O     o Q.Q.Q.Q.Q.Q.Q.Q.Q.Q.Q.Q.Q.",
"Q.Q.Q.Q.Q.Q.Q.Q.Q.Q.Q.Q.Q.Q.    O x 3.-.5._ U U U W | 5.| &.} &.&.} &.} | 5.5.5.5.| W U U U W | 5.| } W W _ J O     o Q.Q.Q.Q.Q.Q.Q.Q.Q.Q.Q.Q.Q.",
"Q.Q.Q.Q.Q.Q.Q.Q.Q.Q.Q.Q.Q.Q.o . @ M j.h.<.[ Y U U E | ] } &.} } &.} } } | | | | | | W Y U U ~ | | 5.%./ O.X.S @ .   $ Q.Q.Q.Q.Q.Q.Q.Q.Q.Q.Q.Q.Q.",
"Q.Q.Q.Q.Q.Q.Q.Q.Q.Q.Q.Q.Q.Q.Q.Q.Q.Q.f g a b @.[ _ ' ' ' ' Q Q ` Q ' Q ' ' _ ' Q ] _ _ W W _ _ ] ] { H u 8 8 Q.Q.Q.Q.Q.Q.Q.Q.Q.Q.Q.Q.Q.Q.Q.Q.Q.Q.",
"Q.Q.Q.Q.Q.Q.Q.Q.Q.Q.Q.Q.Q.Q.Q.Q.Q.Q.O o + i <.&.} ] U U U U U U U U U U U U U U U U ] | | | ] W W ( k # X X Q.Q.Q.Q.Q.Q.Q.Q.Q.Q.Q.Q.Q.Q.Q.Q.Q.Q.",
"Q.Q.Q.Q.Q.Q.Q.Q.Q.Q.Q.Q.Q.Q.Q.Q.Q.Q..   X u 2.-.} ` U U U U U U U U U U U U U U U U ` | | | ] W W ( j O     Q.Q.Q.Q.Q.Q.Q.Q.Q.Q.Q.Q.Q.Q.Q.Q.Q.Q.",
"Q.Q.Q.Q.Q.Q.Q.Q.Q.Q.Q.Q.Q.Q.Q.Q.Q.Q.    O 8 z.l.<.$.Y U U U U U U U U U U U U U U U ] | | &.{ +.O. .m X .   Q.Q.Q.Q.Q.Q.Q.Q.Q.Q.Q.Q.Q.Q.Q.Q.Q.Q.",
"Q.Q.Q.Q.Q.Q.Q.Q.Q.Q.Q.Q.Q.Q.Q.Q.Q.Q.Q.Q.Q.Q.0.M B F O._ E E U U U E U U E U U U T U Q ] } %.G z m M Q.Q.Q.Q.Q.Q.Q.Q.Q.Q.Q.Q.Q.Q.Q.Q.Q.Q.Q.Q.Q.Q.",
"Q.Q.Q.Q.Q.Q.Q.Q.Q.Q.Q.Q.Q.Q.Q.Q.Q.Q.Q.Q.Q.Q.O X + 2 2.-.| ] Q E E E E E E E E E E E W W _ / i # O @ Q.Q.Q.Q.Q.Q.Q.Q.Q.Q.Q.Q.Q.Q.Q.Q.Q.Q.Q.Q.Q.Q.",
"Q.Q.Q.Q.Q.Q.Q.Q.Q.Q.Q.Q.Q.Q.Q.Q.Q.Q.Q.Q.Q.Q..   . > k.6.| ] W E E E E E E E E E E E E W _ ..u X   . Q.Q.Q.Q.Q.Q.Q.Q.Q.Q.Q.Q.Q.Q.Q.Q.Q.Q.Q.Q.Q.Q.",
"Q.Q.Q.Q.Q.Q.Q.Q.Q.Q.Q.Q.Q.Q.Q.Q.Q.Q.Q.Q.Q.Q.o   . > x.l.4.<.@.@.@./ ( ( ( ( ( ( / $.( / O.:.5 X     Q.Q.Q.Q.Q.Q.Q.Q.Q.Q.Q.Q.Q.Q.Q.Q.Q.Q.Q.Q.Q.Q.",
"Q.Q.Q.Q.Q.Q.Q.Q.Q.Q.Q.Q.Q.Q.Q.Q.Q.Q.Q.Q.Q.Q.Q.Q.Q.Q.r.p.p.I D S S S S S S S S S S S S S D e.Q.Q.Q.Q.Q.Q.Q.Q.Q.Q.Q.Q.Q.Q.Q.Q.Q.Q.Q.Q.Q.Q.Q.Q.Q.Q.",
"Q.Q.Q.Q.Q.Q.Q.Q.Q.Q.Q.Q.Q.Q.Q.Q.Q.Q.Q.Q.Q.Q.Q.Q.Q.Q.# O + O + O O O + + O O + O + O + + O # Q.Q.Q.Q.Q.Q.Q.Q.Q.Q.Q.Q.Q.Q.Q.Q.Q.Q.Q.Q.Q.Q.Q.Q.Q.Q.",
"Q.Q.Q.Q.Q.Q.Q.Q.Q.Q.Q.Q.Q.Q.Q.Q.Q.Q.Q.Q.Q.Q.Q.Q.Q.Q.O         . .       .             .   . Q.Q.Q.Q.Q.Q.Q.Q.Q.Q.Q.Q.Q.Q.Q.Q.Q.Q.Q.Q.Q.Q.Q.Q.Q.Q.",
"Q.Q.Q.Q.Q.Q.Q.Q.Q.Q.Q.Q.Q.Q.Q.Q.Q.Q.Q.Q.Q.Q.Q.Q.Q.Q.o                                     . Q.Q.Q.Q.Q.Q.Q.Q.Q.Q.Q.Q.Q.Q.Q.Q.Q.Q.Q.Q.Q.Q.Q.Q.Q.Q.",
"Q.Q.Q.Q.Q.Q.Q.Q.Q.Q.Q.Q.Q.Q.Q.Q.Q.Q.Q.Q.Q.Q.Q.Q.Q.Q.$ o o o o o o o o o o o o o o o o o o $ Q.Q.Q.Q.Q.Q.Q.Q.Q.Q.Q.Q.Q.Q.Q.Q.Q.Q.Q.Q.Q.Q.Q.Q.Q.Q.",
"Q.Q.Q.Q.Q.Q.Q.Q.Q.Q.Q.Q.Q.Q.Q.Q.Q.Q.Q.Q.Q.Q.Q.Q.Q.Q.Q.Q.Q.Q.Q.Q.Q.Q.Q.Q.Q.Q.Q.Q.Q.Q.Q.Q.Q.Q.Q.Q.Q.Q.Q.Q.Q.Q.Q.Q.Q.Q.Q.Q.Q.Q.Q.Q.Q.Q.Q.Q.Q.Q.Q.Q."
};
