/* XPM */
static char *coin3[] = {
/* columns rows colors chars-per-pixel */
"16 16 70 1 ",
"  c gray1",
". c #040401",
"X c #050403",
"o c #050503",
"O c #070503",
"+ c #060602",
"@ c #040404",
"# c gray2",
"$ c #060504",
"% c #080601",
"& c #090701",
"* c #0C0A02",
"= c #1A1404",
"- c #A18E1D",
"; c #A18D1E",
": c #A9921B",
"> c #BDA513",
", c #B09B27",
"< c #B5A230",
"1 c #B4A133",
"2 c #D6BA13",
"3 c #CEB729",
"4 c #C2AE33",
"5 c #EBCB03",
"6 c #ECCB03",
"7 c #EDCC01",
"8 c #EDCC02",
"9 c #EDCC03",
"0 c #EDCD03",
"q c #EBCB04",
"w c #EACA06",
"e c #EDCC05",
"r c #EDCD06",
"t c #ECCD08",
"y c #ECCD09",
"u c #EFCF09",
"i c #EBCC0D",
"p c #ECCE13",
"a c #ECCF1A",
"s c #F7D716",
"d c #F0D31B",
"f c #DEC633",
"g c #EAD02D",
"h c #F1D527",
"j c #F1D627",
"k c #F8DA20",
"l c #FEDF23",
"z c #F0D52D",
"x c #F4D829",
"c c #F5D92A",
"v c #F8DC2C",
"b c #E4CC32",
"n c #EFD530",
"m c #FDE023",
"M c #FDE024",
"N c #FCE030",
"B c #FCE130",
"V c #FAE246",
"C c #FBE559",
"Z c #FDE972",
"A c #FDEE7D",
"S c #FDEC80",
"D c #FDED82",
"F c #FDEC86",
"G c #FDEC87",
"H c #FFEF8A",
"J c #FEED8C",
"K c #FFEE8E",
"L c #FFEF8F",
"P c None",
/* pixels */
"PPPPPP%&&+PPPPPP",
"PPPPPOnxc4PPPPPP",
"PPPPP=kuB3PPPPPP",
"PPPPozeVHM1 PPPP",
"PPPPojyDLm< PPPP",
"PPPPojrCKl< PPPP",
"PPPPohtZJs, PPPP",
"PPPPoh0NGq: PPPP",
"PPPPoh8NG6: PPPP",
"PPPPoh7dG5: PPPP",
"PPPPoh8pF5: PPPP",
"PPPPoh7pF5: PPPP",
"PPPP$g9aSw;@PPPP",
"PPPPP*vAi>PPPPPP",
"PPPPP.fb2-PPPPPP",
"PPPPPPX##@PPPPPP"
};
