/* XPM */
static char *_f1f3c9c67b6477b928743b2759c04aazbLDxlF8Mya6jTvJ[] = {
/* columns rows colors chars-per-pixel */
"12 8 2 1 ",
"  c None",
". c #101010",
/* pixels */
"....  .   . ",
".    . . . .",
".    . . . .",
"...  . . . .",
"   . . . . .",
"   . . . . .",
".... ... ...",
"...   .   . "
};
