/* XPM */
static char *_2[] = {
/* columns rows colors chars-per-pixel */
"3 10 2 1 ",
"  c #202020",
". c None",
/* pixels */
"...",
"...",
"...",
"...",
"...",
"...",
".  ",
".  ",
"  .",
"  ."
};
