/* XPM */
static char *_b311dcd4d164e2fa1c20abbb5d27680ibORel66AUHNIovq[] = {
/* columns rows colors chars-per-pixel */
"12 12 2 1 ",
"  c None",
". c #E1E0E0",
/* pixels */
"            ",
"   ......   ",
"  ........  ",
"  ..    ..  ",
"  ..    ..  ",
"  ..    ..  ",
"  ..    ..  ",
"  ..    ..  ",
"  ..    ..  ",
"  ........  ",
"   ......   ",
"            "
};
