/* XPM */
static char *d84609f655ee481ec8ce2059324a10d9todnSEy7g4wRt8Dw[] = {
/* columns rows colors chars-per-pixel */
"12 12 2 1 ",
"  c None",
". c #E1E0E0",
/* pixels */
"            ",
"     ..     ",
"    ...     ",
"   ....     ",
"     ..     ",
"     ..     ",
"     ..     ",
"     ..     ",
"     ..     ",
"   ......   ",
"   ......   ",
"            "
};
