/* XPM */
static char *_52f9b987c2f4051bea3b9687e911453KiIXKM2HyX5QeHwk[] = {
/* columns rows colors chars-per-pixel */
"12 12 2 1 ",
"  c None",
". c #E1E0E0",
/* pixels */
"            ",
"   ......   ",
"  ........  ",
"  ..    ..  ",
"       ...  ",
"      ...   ",
"     ...    ",
"    ...     ",
"   ...      ",
"  ........  ",
"  ........  ",
"            "
};
