/* XPM */
static char *be044a57540442f3ad956967b8c85730krGdY1fAijmsuaqa[] = {
/* columns rows colors chars-per-pixel */
"12 12 2 1 ",
"  c None",
". c #E1E0E0",
/* pixels */
"            ",
"   ......   ",
"  ........  ",
"  ..    ..  ",
"        ..  ",
"     ....   ",
"     ....   ",
"        ..  ",
"  ..    ..  ",
"  ........  ",
"   ......   ",
"            "
};
