/* XPM */
static char *f81a4a2b677f41e6fec6ae979a1044carmD9YDbnSxs3Umie[] = {
/* columns rows colors chars-per-pixel */
"12 12 2 1 ",
"  c None",
". c #E1E0E0",
/* pixels */
"            ",
"      ...   ",
"     ....   ",
"    .....   ",
"   ... ..   ",
"  ...  ..   ",
"  ..   ..   ",
"  ........  ",
"  ........  ",
"       ..   ",
"       ..   ",
"            "
};
