/* XPM */
static char *_19deefd63e64140e654131927f25febo9HaD4aUw98AfYKC[] = {
/* columns rows colors chars-per-pixel */
"12 12 2 1 ",
"  c None",
". c #E1E0E0",
/* pixels */
"            ",
"   .......  ",
"  ........  ",
"  ..        ",
"  ..        ",
"  .......   ",
"  ........  ",
"  ..    ..  ",
"  ..    ..  ",
"  ........  ",
"   ......   ",
"            "
};
