/* XPM */
static char *_2d3a03fbb9c4119932b764a568f2882WLJdYaWpYpoN6lXJ[] = {
/* columns rows colors chars-per-pixel */
"12 12 2 1 ",
"  c None",
". c #E1E0E0",
/* pixels */
"            ",
"  ........  ",
"  ........  ",
"        ..  ",
"       ...  ",
"      ...   ",
"     ...    ",
"    ...     ",
"   ...      ",
"  ...       ",
"  ..        ",
"            "
};
