/* XPM */
static char *ZWlnaHQ_[] = {
/* columns rows colors chars-per-pixel */
"12 12 2 1 ",
"  c #E1E0E0",
". c None",
/* pixels */
"............",
"...      ...",
"..        ..",
"..  ....  ..",
"..  ....  ..",
"...      ...",
"...      ...",
"..  ....  ..",
"..  ....  ..",
"..        ..",
"...      ...",
"............"
};
