/* XPM */
static char *_3[] = {
/* columns rows colors chars-per-pixel */
"6 10 2 1 ",
"  c #202020",
". c None",
/* pixels */
"  ..  ",
"  .   ",
"  .  .",
"    ..",
"    ..",
"     .",
"  .   ",
"  ..  ",
"......",
"......"
};
